<svg xmlns="http://www.w3.org/2000/svg" viewBox="0 0 53.34 42.7" fill="#ffffffe0">
    <path class="cls-1" d="M0,11.48c.16.09.08.24.08.36V32.53c0,.12.08.27-.08.37Z"/>
    <path d="M52.57,0H20c-.59.09-.81.52-.92,1a3,3,0,0,0,0,.6V9.56c0,.86.06.82-.81.82H1.51c-.93,0-1.25.22-1.51,1v.08a.8.8,0,0,1,0,.43V32.46a.82.82,0,0,1,0,.44V33a1.5,1.5,0,0,0,1.66.94c1.47,0,2.94,0,4.41,0,.35,0,.41.1.41.42,0,2.34,0,4.69,0,7a1.52,1.52,0,0,0,.1.67,1.19,1.19,0,0,0,2,.27c2.82-2.7,5.65-5.41,8.46-8.12a.9.9,0,0,1,.67-.27h15l.49,0a1.1,1.1,0,0,0,1-.78,1.71,1.71,0,0,0,.08-.64q0-4.37,0-8.73c0-.29.06-.4.37-.38a9.93,9.93,0,0,0,1.22,0,.61.61,0,0,1,.49.19c1.32,1.28,2.65,2.54,4,3.81l4.57,4.35a1.25,1.25,0,0,0,.83.45,1.17,1.17,0,0,0,1.28-1.27c0-2.37,0-4.74,0-7.11,0-.33.06-.43.41-.43,1.51,0,3,0,4.53,0,1.1,0,1.49-.38,1.49-1.47q0-10.21,0-20.45A1.4,1.4,0,0,0,52.57,0ZM8.81,38.8V36c0-.61,0-1.22,0-1.82,0-.18,0-.26.23-.26,1.59,0,3.18,0,4.89,0Zm23-7.63c0,.31-.07.4-.39.4H2.8c-.34,0-.45-.05-.45-.43q0-8.94,0-17.9c0-.35.1-.41.42-.41h16c.34,0,.44.06.44.43,0,2.89,0,5.79,0,8.69,0,1,.43,1.42,1.43,1.42,3.61,0,7.22,0,10.83,0,.34,0,.42.08.42.42C31.84,26.24,31.85,28.71,31.86,31.17Zm12.71-2.91-5.12-4.89h4.89c.17,0,.24,0,.24.22C44.57,25.12,44.57,26.65,44.57,28.26ZM51,20.59c0,.33,0,.45-.42.45H21.93c-.33,0-.42-.08-.42-.42,0-6,0-11.93,0-17.9,0-.37.11-.43.45-.43H36.27c4.77,0,9.54,0,14.31,0,.35,0,.44.08.44.44Q51,11.66,51,20.59Z"/>
    <path d="M36.27,7.72H46.49a1.54,1.54,0,0,1,.79.13A1,1,0,0,1,47.8,9a1,1,0,0,1-.87.83,3.17,3.17,0,0,1-.44,0H26a1.21,1.21,0,0,1-1.17-.48,1,1,0,0,1,.77-1.6,3.85,3.85,0,0,1,.48,0Z"/>
    <path d="M30.77,14.75H25.88a1,1,0,0,1-1.13-1.33,1,1,0,0,1,.81-.74,1.73,1.73,0,0,1,.32,0h9.87a1,1,0,0,1,1.14,1,1,1,0,0,1-.9,1.09c-.39,0-.78,0-1.17,0Z"/>
</svg>
