<svg xmlns="http://www.w3.org/2000/svg" viewBox="0 0 56.85 56.82"><defs><style>.cls-1{fill:#17a5e9;}</style></defs><g id="katman_2" data-name="katman 2"><g id="katman_1-2" data-name="katman 1"><path class="cls-1" d="M56.22,22.67A28.22,28.22,0,0,0,31.74.19,2.53,2.53,0,0,1,30.53,0h-.22c-.07.08-.17.05-.26.06h-.21c-.14,0-.29.05-.42-.06h-2c-.12.11-.27,0-.41.06H26.8c-.09,0-.19,0-.26-.06H26.2c-.8.12-1.61.09-2.41.23A28.73,28.73,0,0,0,.24,23.74c-.13.78-.11,1.57-.24,2.35v.45c.08.07.05.17.06.26V27c0,.14.05.29-.06.41v2c.11.13,0,.28.06.42v.21c0,.09,0,.19-.06.26v.44c.15.05.11.18.12.28A27.52,27.52,0,0,0,7,47a27.75,27.75,0,0,0,24.26,9.65,26.46,26.46,0,0,0,15.79-6.86C55.15,42.51,58.32,33.36,56.22,22.67ZM28.44,53.76A25.34,25.34,0,1,1,53.76,28.44,25.34,25.34,0,0,1,28.44,53.76Z"/><path class="cls-1" d="M27.9,44.18a17.52,17.52,0,0,1-12.38-5.65,18.49,18.49,0,0,1-1.72-2.1c-.2-.29-.16-.41.13-.58.63-.38,1.25-.78,1.86-1.21.29-.2.43-.16.63.13a13.83,13.83,0,0,0,5.22,4.62,14.23,14.23,0,0,0,14.93-.82,12.88,12.88,0,0,0,3.85-3.79c.22-.32.37-.33.67-.12.59.42,1.19.82,1.82,1.18.34.19.31.33.11.62a17.76,17.76,0,0,1-9.91,7A18.84,18.84,0,0,1,27.9,44.18Z"/><path class="cls-1" d="M16.08,22.07a3.07,3.07,0,1,1,3.05,3.09A3.09,3.09,0,0,1,16.08,22.07Z"/><path class="cls-1" d="M41.21,22.06a3.06,3.06,0,1,1-3.08-3A3.06,3.06,0,0,1,41.21,22.06Z"/></g></g></svg>