<svg xmlns="http://www.w3.org/2000/svg" viewBox="0 0 194.32 189.86"><defs><style>.cls-1{fill:#c1c5c9;}.cls-2{fill:#bdc2c6;}.cls-3{fill:#95a5a5;}.cls-4{fill:#96a5a5;}.cls-5{fill:#94a4a4;}</style></defs><g id="katman_2" data-name="katman 2"><g id="katman_1-2" data-name="katman 1"><path class="cls-1" d="M178.12,0c-1.73,1.45-3.81,1-5.76,1Q97.17,1,22,1C20,1,18,1.45,16.22,0Z"/><path class="cls-1" d="M50.2,189.86a3.23,3.23,0,0,0-.05-1h94a3.59,3.59,0,0,0-.05,1Z"/><path class="cls-2" d="M194.25,19c0-11.77-3.82-16.38-15.13-19h-1c-1.39.86-2.92.48-4.39.48Q97.17.51,20.61.48c-1.47,0-3,.38-4.39-.48h-2C7.9,1.15,3.24,4.22,1.14,10.69A29.5,29.5,0,0,0,.08,20.05Q0,55.74.06,91.42c0,12.31-.19,24.63.1,36.94C.39,137.77,6,144.51,15,146.61a35.35,35.35,0,0,0,8,.45c13,.07,26-.07,38.93.08,2.25,0,4.45.36,4.88,3.18.38,2.51-.26,4.62-2.68,5.9-1,.54-2.11,1-3.13,1.53-9.55,5.38-15,13.43-15.72,24.43-.28,4,1.21,6.85,5.7,7.18h92.68c5.18-1.56,6.65-4.12,5.4-10.29-2.05-10.06-7.57-17.63-17-22-3.08-1.43-5.07-3.27-4.33-6.84s3.89-3.08,6.44-3.1c13-.11,25.94,0,38.91-.08,14.05-.13,21.19-7.2,21.23-21.24Q194.4,72.41,194.25,19Zm-61.5,155.33c.78,1,1.94,2.22,1.43,3.55-.61,1.59-2.33.86-3.55.86-11.32.06-22.64,0-34,0-11,0-22,0-33,0-1.22,0-2.94.73-3.55-.87-.51-1.33.65-2.53,1.44-3.54,3.12-4,7.18-6.5,12.35-6.53q23.22-.1,46.45,0C125.57,167.87,129.63,170.35,132.75,174.37ZM80.34,149.43c-.38-2.54.07-4.64,3.53-4.52,4.49.15,9,0,13.49,0,4.32,0,8.66.13,13,0,3.34-.13,4.11,1.74,3.66,4.4s2,7.16-3.28,7.32c-9,.29-18,.24-27,0C78.42,156.53,80.74,152.14,80.34,149.43Zm95.22-15.67a22.5,22.5,0,0,1-3.49.12q-74.91,0-149.82,0c-6.29,0-8.43-1.62-9-6.21-.44-3.75,1-5,4.75-4.88,11,.19,22,.07,33,.07H97.43q39,0,77.9,0c2.36,0,5.72-1.26,5.74,3.28C181.09,130.14,179.87,133.06,175.56,133.76Zm-.21-21.85c-26.14-.21-52.28-.1-78.42-.1-26,0-52-.11-77.92.1-4.67,0-5.85-1.42-5.82-5.94.19-28.64.08-57.28.1-85.91,0-7.34,1.7-9,9.2-9q74.67,0,149.35,0c7.64,0,9.21,1.64,9.22,9.49,0,28.47-.09,56.94.09,85.41C181.18,110.44,180.06,112,175.35,111.91Z"/><path class="cls-3" d="M52.91,66.81c-3.64,0-7.29.06-10.93,0s-5.74-1.82-5.8-5.43c-.06-3.45,2-6,5.29-6.16,7.94-.35,15.91-.28,23.85,0a4.88,4.88,0,0,1,4.87,5.29c0,3.71-2.33,5.91-5.85,6.22-3.78.34-7.62.08-11.43.08Z"/><path class="cls-4" d="M52.75,89c-3.65,0-7.29,0-10.94,0-3,0-5.2-1.24-5.6-4.46s.88-6.08,4-6.61c8.67-1.47,17.47-1.15,26.19-.17,2.69.3,4.17,2.73,3.83,5.59a5.79,5.79,0,0,1-5.51,5.49c-4,.31-8,.08-11.93.08Z"/><path class="cls-3" d="M53.76,32.85c3.5,0,7,0,10.49,0,3.25,0,5.52,1.53,5.92,4.87s-1.52,5.88-4.49,6.3a98.9,98.9,0,0,1-25.84.06c-2.72-.33-4-2.88-3.66-5.73.44-3.16,2.38-5.22,5.6-5.4,4-.23,8-.06,12-.06Z"/><path class="cls-5" d="M159.34,73.77c-.33-4.29-.07-8.64-.07-13,0-4.82-.21-9.66.06-14.47.23-4.13-1.2-6.87-4.82-9q-12.09-7-23.89-14.48c-3.25-2.06-6.06-1.92-9.24.05q-12.28,7.62-24.76,15A8.57,8.57,0,0,0,92,46Q92.17,61,92,76a7.9,7.9,0,0,0,4.31,7.71q12,7.05,23.87,14.5c3.53,2.21,6.68,2.15,10.2-.06,7.74-4.86,15.54-9.65,23.47-14.19C158,81.59,159.69,78.5,159.34,73.77Zm-40.46,8.4c-2.28,1.19-5.17-2.17-7.63-3.73s-6.7-2.26-7.12-5.65c-.64-5.24-.3-10.62-.07-15.94.09-1.91,1.69-1.09,2.64-.52,3.85,2.32,7.83,4.47,11.42,7.14s.79,6.93,1.93,10C119.4,76.68,121.38,80.88,118.88,82.17Zm10.59-30.39c-2.57,1.75-4.61,1.61-7.14-.1-4.06-2.75-8.36-5.15-12.64-7.75.59-.65.76-1,1-1.12,4.68-2.81,9.13-7.21,14.12-8C130,34.1,134,40,139.07,42.05c.86.77,2.64.93,1.87,2.8C137.1,47.14,133.16,49.27,129.47,51.78Zm17.94,20.61a3.5,3.5,0,0,1-1.91,3.23l-14.09,8.44c0-6.55,0-12,0-17.45a4.18,4.18,0,0,1,2.2-4.09c3.59-2.07,7.12-4.26,10.66-6.42,1.72-1.05,3.16-1.5,3.17,1.36C147.43,62.44,147.4,67.41,147.41,72.39Z"/></g></g></svg>