<svg xmlns="http://www.w3.org/2000/svg" viewBox="0 0 255.02 184.93"><defs><style>.cls-1{fill:#bdc2c6;}.cls-2{fill:#29567f;}.cls-3{fill:#94a4a4;}.cls-4{fill:#96a4a5;}.cls-5{fill:#98a2a4;}.cls-6{fill:#285581;}.cls-7{fill:#96a3a3;}.cls-8{fill:#285681;}.cls-9{fill:#275682;}.cls-10{fill:#2b5680;}.cls-11{fill:#94a5a5;}.cls-12{fill:#bec8ca;}.cls-13{fill:#265683;}.cls-14{fill:#30577f;}.cls-15{fill:#2d5479;}.cls-16{fill:#c2c9cd;}.cls-17{fill:#396086;}.cls-18{fill:#29557e;}.cls-19{fill:#305475;}.cls-20{fill:#305273;}.cls-21{fill:#2a5882;}.cls-22{fill:#2d5789;}.cls-23{fill:#36526d;}.cls-24{fill:#2c4e75;}.cls-25{fill:#355571;}.cls-26{fill:#33597f;}.cls-27{fill:#bbc3c6;}.cls-28{fill:#eaeeef;}.cls-29{fill:#edeef0;}.cls-30{fill:#96a3a4;}.cls-31{fill:#e7edef;}.cls-32{fill:#93a4a4;}.cls-33{fill:#4581c1;}.cls-34{fill:#4580be;}.cls-35{fill:#4482c2;}.cls-36{fill:#4581c3;}.cls-37{fill:#93a5a2;}.cls-38{fill:#255787;}.cls-39{fill:#457fba;}.cls-40{fill:#26577f;}.cls-41{fill:#4680bb;}.cls-42{fill:#2b5481;}.cls-43{fill:#2a5580;}.cls-44{fill:#95a3a6;}.cls-45{fill:#275787;}.cls-46{fill:#24598a;}.cls-47{fill:#4880c3;}.cls-48{fill:#447fbf;}.cls-49{fill:#265684;}.cls-50{fill:#295886;}.cls-51{fill:#4781bc;}.cls-52{fill:#275684;}.cls-53{fill:#295580;}.cls-54{fill:#2b547e;}.cls-55{fill:#4880c5;}.cls-56{fill:#245683;}.cls-57{fill:#28567b;}.cls-58{fill:#2a5a8b;}.cls-59{fill:#2a5784;}.cls-60{fill:#2a557b;}.cls-61{fill:#b4bfc5;}.cls-62{fill:#275789;}.cls-63{fill:#29567c;}.cls-64{fill:#4581c0;}.cls-65{fill:#255583;}.cls-66{fill:#295485;}.cls-67{fill:#285683;}.cls-68{fill:#275583;}.cls-69{fill:#255686;}.cls-70{fill:#2d547c;}.cls-71{fill:#22597b;}.cls-72{fill:#2c547b;}.cls-73{fill:#28577a;}.cls-74{fill:#285585;}.cls-75{fill:#365a7e;}.cls-76{fill:#245787;}.cls-77{fill:#2b5685;}.cls-78{fill:#2e577d;}.cls-79{fill:#2a557a;}.cls-80{fill:#265685;}.cls-81{fill:#275685;}.cls-82{fill:#25567a;}.cls-83{fill:#28598b;}.cls-84{fill:#255688;}.cls-85{fill:#245684;}.cls-86{fill:#1e5785;}.cls-87{fill:#2e527f;}.cls-88{fill:#27598a;}.cls-89{fill:#385774;}.cls-90{fill:#225786;}.cls-91{fill:#2c547a;}.cls-92{fill:#2b506d;}.cls-93{fill:#2b5883;}.cls-94{fill:#2c5377;}.cls-95{fill:#2f548b;}.cls-96{fill:#8a9ca0;}.cls-97{fill:#96a3a5;}.cls-98{fill:#91a6a4;}.cls-99{fill:#66dbb8;}.cls-100{fill:#99a2a4;}.cls-101{fill:#96a4a1;}.cls-102{fill:#87b2a9;}.cls-103{fill:#91a5a4;}.cls-104{fill:#97a3a4;}.cls-105{fill:#9aa1a4;}.cls-106{fill:#8aaba5;}.cls-107{fill:#8ba8a3;}.cls-108{fill:#8ea7a4;}.cls-109{fill:#8da7a4;}.cls-110{fill:#bbc6c2;}.cls-111{fill:#90a6a4;}.cls-112{fill:#85aba4;}.cls-113{fill:#8fb5ae;}.cls-114{fill:#94a3ab;}.cls-115{fill:#9ca1a5;}.cls-116{fill:#c0c1c9;}.cls-117{fill:#bfc3c0;}.cls-118{fill:#bfc3ce;}.cls-119{fill:#bbc2cd;}.cls-120{fill:#295682;}.cls-121{fill:#2b557b;}.cls-122{fill:#245783;}.cls-123{fill:#38546b;}.cls-124{fill:#95a4a4;}.cls-125{fill:#67dab8;}.cls-126{fill:#90a7a5;}.cls-127{fill:#99a1a4;}.cls-128{fill:#8fa6a4;}.cls-129{fill:#80aca3;}.cls-130{fill:#97a2a4;}.cls-131{fill:#68d8b8;}.cls-132{fill:#71ceb3;}.cls-133{fill:#7cc5b2;}.cls-134{fill:#8ea8a5;}.cls-135{fill:#8aa9a4;}.cls-136{fill:#80cdb8;}.cls-137{fill:#9ca0a5;}.cls-138{fill:#6ebfa9;}.cls-139{fill:#6cd3b5;}.cls-140{fill:#4781c0;}.cls-141{fill:#4081c8;}.cls-142{fill:#4382c5;}.cls-143{fill:#4381c9;}.cls-144{fill:#4182c9;}.cls-145{fill:#4580b8;}.cls-146{fill:#92a5a7;}.cls-147{fill:#94a2ac;}.cls-148{fill:#97a3a0;}.cls-149{fill:#98a0b2;}.cls-150{fill:#215786;}.cls-151{fill:#4382c3;}.cls-152{fill:#27567d;}.cls-153{fill:#9ba0a4;}.cls-154{fill:#8fa7a4;}.cls-155{fill:#65dcba;}.cls-156{fill:#8da8a4;}.cls-157{fill:#9d9fa4;}.cls-158{fill:#68dbb9;}.cls-159{fill:#5ce1ba;}.cls-160{fill:#98a2a5;}.cls-161{fill:#64dcb9;}.cls-162{fill:#6ed7b9;}.cls-163{fill:#91a9a6;}.cls-164{fill:#9ca0a4;}.cls-165{fill:#6dd8b8;}.cls-166{fill:#8fbbb2;}.cls-167{fill:#9f9fa4;}.cls-168{fill:#69dbba;}.cls-169{fill:#4380c8;}.cls-170{fill:#8bd7c2;}</style></defs><g id="katman_2" data-name="katman 2"><g id="katman_1-2" data-name="katman 1"><path class="cls-1" d="M3.05,45.78C17,30.93,31.62,16.83,46.17,2.62,48.16.68,51,0,54,0q47.22.11,94.44,0A11.78,11.78,0,0,1,157,3.35q22.4,22.2,44.62,44.57c.21.21.24.6.36.9a3,3,0,0,1-2.59.68c-2.28-.33-4.56-1.61-6.86,0a7.16,7.16,0,0,1-3.59.12c-2.72-.65-5.5-.48-8.26-.53-2.36.08-4.77-.4-7.09.44a5.79,5.79,0,0,1-1.26.59A2.9,2.9,0,0,1,171,50c-2.21-.73-4.61-2.65-6.11,1-.44,5.48.49,11-.56,16.42a3.25,3.25,0,0,1-1,1.37c-2.54-.47-2.19-2.58-2.3-4.28a54.1,54.1,0,0,1,0-8.91c.37-3.71-1.26-5.56-4.68-6.27a6.53,6.53,0,0,1-1.41-1.1c-1.74-1.34-3.8-1-5.76-1q-64.92,0-129.85,0c-2.13,0-4.36-.35-6.16,1.28a3.75,3.75,0,0,1-2.32,1,37.83,37.83,0,0,1-6.26-1C3.29,48.1,1.88,47.62,3.05,45.78Z"/><path class="cls-2" d="M254.06,131.66c-.31,10-4.28,18.53-10,26.44-1.95,1.08-4.76-.16-6.14,2.9-.63,1.41-2.25,0-3-1.15-7.07-1.09-10.93,3.15-10.39,10.67a7.2,7.2,0,0,1,.94,2.41c-1.27,1.28,1.3,1.8.61,3a12,12,0,0,1-5.92,3.05,4.22,4.22,0,0,1-3,.48c-2.41-2.6-7.18-1.89-8.51-6,.07-.43.64-.71.51-1.2-.06-.21-.44-.14-.8,0-.91.33-1.6,1.07-2.55,1.32a4,4,0,0,1-2.1-.15,15,15,0,0,0-4.78-1.11c-1.86-.16-4.69.4-4.88-2.11-.2-2.71,2.69-2.15,4.51-2.49,1.24-.24,2.69.05,3.61-1.81-2-.92-3.36.43-4.77,1.09a12.06,12.06,0,0,1-9.57.45c-6-2.09-7.23-1.6-11.11,3.71a6,6,0,0,1-3.35,1.1,4.74,4.74,0,0,0-3.53,1.53c-.58.38-1.17.65-1.76,0s-1.16-1.59-2.41-1.68a7.67,7.67,0,0,1,3,2.34,1.39,1.39,0,0,1-.84,1.15c-1.35.54-2.54,0-3.76-.49-4.79-2.31-8.54-5.9-12.05-9.79-1-1.06-1.72-2.48-3.46-2.48a1.65,1.65,0,0,1-1.44-2,2.73,2.73,0,0,1,2.37-2.21c1.61-.18,2.76,3.14,4.68.61a4.66,4.66,0,0,1,.76-.56,2.57,2.57,0,0,0-.74.53c-1,.09-1.35-.65-1.74-1.34-.38-1.28-1.56-1.81-2.47-2.6a20.09,20.09,0,0,1-2.8-5.71c-.64-1.66-1.47-1.48-2.4-.22a5.34,5.34,0,0,1-2.7,2.07c-2.3-1-2.36-3.53-3.47-5.35-1.08-3.13-1.82-6.37-3.1-9.43a44.54,44.54,0,0,1-.45-8.16c.09-1.64.08-3.28,0-4.93,0-1.34,0-2.69.06-4,.11-4.82,2.46-9.14,3-13.85a6.57,6.57,0,0,1,1.65-3.43c1.63-.87,2.45-3.13,4.78-2.81,1.26,1.59,1.82,3.58,3,5.21,3.49-1,6.14-4.62,6.39-9,0-.66-.48,0-.72,0a1.74,1.74,0,0,1-1,0,3.41,3.41,0,0,1-.81-3c.16-1.23-.59-.95-1.3-.75a2.41,2.41,0,0,1-1.74-.74,1.94,1.94,0,0,1-.4-1.26c2.54-5,7.21-8.08,10.95-12a31.71,31.71,0,0,1,9-5.09c1.62-.3,3.42-.09,4.58-1.67a4.78,4.78,0,0,1,1.27-.49c2.53-.29,5.14-.14,7.44-1.55a3.17,3.17,0,0,1,2.12.23c1.53,1.87,3.13,3.59,5.92,2.94,4.5-.06,9-.08,13.46,0,1.4.07,2.79.11,3.88-1a11.47,11.47,0,0,1,2.78-2,2.82,2.82,0,0,1,2,.42c1.9,1.84,4.61.93,6.74,2,3.21,2.12,7.69,2.09,9.93,5.85a1.93,1.93,0,0,1,.3,2c-1.89,2.11-3.92.14-5.72-.12-.92,1.46-.19,2.19.74,2.58,2.87,1.21,5.51,3.16,8.51,3.82a8.74,8.74,0,0,1,6.69,5.79,4.86,4.86,0,0,1,.12,3.44c-.19,1.36-2.77,2.61-.19,4.09,2.09,1,2.5-1.6,4-1.81,2.08,1.6,2.36,3.72,1.75,6.1a3.4,3.4,0,0,1-1.91,1.11c-1.14.23-2.31.17-3.44.29-.41.09-.95.14-1,.64s.51.59.93.68a25,25,0,0,0,3.12.06,21.57,21.57,0,0,0,3.21-.15c2.24-.72,1.15-3.2,2.36-4.45a.93.93,0,0,1,1.2-.1,32.74,32.74,0,0,1,5.15,17.81A40.48,40.48,0,0,1,254.06,131.66Z"/><path class="cls-3" d="M139.61,146.09c.94,1.65,1.89,3.29,2.83,4.93a3,3,0,0,1,1.83,2c.43,2.54,2.3,4.36,3.27,6.63a2.1,2.1,0,0,1,.14,1.33c.27.62.55,1.24.83,1.87q-34.84.09-69.68.17-33.11,0-66.2,0c-1.93,0-4,.62-5.74-.86,3.7-1.42,7.51-.49,11.27-.5q56.24-.08,112.48,0a28.13,28.13,0,0,1,5.21.14c.75,0-.08-1.12.14-.5,0,.08-.08.08-.28.14a15.17,15.17,0,0,1-4.41.16c-37.5,0-75,0-112.49.1-3.57,0-7-1-10.74-.37-3.35.54-6.7-3.33-6.85-7.26-.4-10.43-.21-20.87-.1-31.3A4.81,4.81,0,0,1,3,118.8a7.87,7.87,0,0,1,4.33-.87c39.29,0,78.58-.21,117.86.11a5.66,5.66,0,0,1,1.76.56c1.85,1.48.91,3.1.24,4.71-1.5,1.76-1.41,3.91-1.41,6,0,4.41,0,8.82,0,13.23,0,1.55-.52,3.4,1.63,4.14,3.19,2.37,6.13,4.12,8.57-1.08C137,143.66,138.51,145,139.61,146.09Z"/><path class="cls-1" d="M140.69,102.42l-1.44,3c-.74,1.53-.6,3.6-2.66,4.32-1.57-.83-2.72.44-4.05.83-.74-.37-1.12-1.22-1.92-1.46-1,.63-.17,1.15.12,1.68a3.7,3.7,0,0,0,2.61,1.1,3.6,3.6,0,0,1,2.68,1.84c.25,1.66-.29,3.3-.13,5a1.25,1.25,0,0,1-.78,1c-2.13.4-3-2.34-5.14-2-2.15-.9-3.6,1.68-5.7,1.13q-57.16,0-114.3,0c-2.42,0-5,.61-7-1.48,4.11-6.57,10.56-11,15.63-16.62C21,97.94,24.39,96,25.92,92.48,27.64,90.71,29.88,91,32,91q53.73,0,107.45,0c2.15,0,4.34-.13,6.25,1.15a2.62,2.62,0,0,1,1,3C145,97.78,142.39,99.73,140.69,102.42Z"/><path class="cls-4" d="M146.2,93.52c-1.89-1.45-4.1-1-6.22-1q-57,0-114.06,0c-6.5-.39-13,.39-19.53-.58a2.92,2.92,0,0,1-2.3-1.43c1.28-1.38,3-1.24,4.6-1.24,7.26-.15,14.61,1.41,21.77-1.11,19.37-.51,38.75-.15,58.12-.22q25.58-.11,51.16,0c2.61,0,5.35-.41,7.62,1.47C148.32,91.14,147.82,92.48,146.2,93.52Z"/><path class="cls-5" d="M9,90.48H4.09C.68,88.62.12,85.34.1,82,0,71,.14,59.9.18,48.84c3.24-1.57,6.51-.55,9.78-.16h2a6.36,6.36,0,0,1,1.71-1,23.58,23.58,0,0,1,5.93-.36q64.53,0,129.06,0c2.6,0,5.35-.57,7.64,1.31,5.29-.92,6.19,1.72,6.09,6.41-.09,4.43-1.41,9.1,1,13.39,2.28.14,4.94-.21,4.56,3.45-5.77,2.22-7.79,1.08-8.16-4.75-.24-3.63-.16-7.28-.08-10.91s-1.59-5.13-5.1-4.95c-1.16,0-2.32,0-3.48,0H12.07c-1.49,0-3,0-4.47.09-2.66.09-3.92,1.49-3.92,4.06,0,8.27-.19,16.52.18,24.79C4.06,84.61,7.25,87.1,9,90.48Z"/><path class="cls-6" d="M176.26,171c1.89-5.75,5.66-8.31,10.56-5.56,5.22,2.93,9,.88,13.15-1.32,1.25-.66,2.31-1.46,3.52-.42,1,.84.63,2.15.56,3.28-.1,1.78-1.39,1.93-2.8,2-2.15.17-4.44-.52-6.86.75,3,3,7.77-1.25,9.74,3.22a1.67,1.67,0,0,1,0,2.31c-2.55,1.62-5.41.83-8.14,1-2.42.17-4.95-.46-7.19,1-1.9.89-4.09,1.06-5.83,2.38a12.4,12.4,0,0,1-4.91.57c-2.21-.45-4.56-.17-6.62-1.31a1.93,1.93,0,0,1-.21-.88c.07-.24.13-.48.19-.71a3.32,3.32,0,0,1,1-1c4.78-.79,8.75-3.52,13.09-5.38-3-.48-5.08,2.09-7.87,2.29A2,2,0,0,1,176.26,171Z"/><path class="cls-7" d="M3,119.39C1.15,131.22,2,143.09,2.5,155c.16,3.79,3.86,4.39,6.33,6,1-1.73,2.25-2.71,4-1.08,2,1.88,4.42,1.1,6.63,1.1q57.23.08,114.43,0h5.36v1H6.89c-4.83-.77-6.64-4.32-6.74-8.47C-.12,143.05.07,132.46,0,121.88c0-1.63.38-2.92,2-3.59A1.19,1.19,0,0,1,3,119.39Z"/><path class="cls-8" d="M224,171c-.82-.14-2-.51-1.74-1.28,1.31-3.3,1.19-7.37,4.42-9.69,2-1.46,4.87-1.19,7.06-2.74,1-.72,2.08.4,2.21,1.78-.86.87-1.41,1.84-.29,2.84a1.6,1.6,0,0,0,2.48-.28c1.06-1.19,2.2-1.87,3.65-.57-2.5,5.33-6.7,9-11.64,12a1.62,1.62,0,0,1-1.29.3C227.41,172.28,225.4,172.32,224,171Z"/><path class="cls-9" d="M247.94,101.41c-.68,2,1.61,5-2,6-1.15-1.09-2.15-2.24-2-4-.69-2-.5-4.25-2-6-2.22-1.39-2.29-4.22-4-6-3.87-4.78-9.8-5.75-15-7.92a4.23,4.23,0,0,1-2.7-3.17c-.25-1-.29-2.16.89-2.52,1.35-.41,2.76-.93,3.68,1.13.48,1.08,2.12.42,3.23.55a1.29,1.29,0,0,1,1.27-.31c2.16,1.65,4.22,3.46,6.93,4.2a2.21,2.21,0,0,1,1.82,1.85,8.26,8.26,0,0,0,3.87,4.22l2.88,4c-.2,1.84,1.19,2.76,2.22,3.89h0C246.51,98.9,248.47,99.88,247.94,101.41Z"/><path class="cls-10" d="M217.07,178.93l3,0c-14.33,6.95-28.93,8.12-43.87,2,.43-2.68,2.41-.19,3.39-1a30,30,0,0,1,4.92.18c1.55,1.23,3.07.84,4.58-.12,4.4-1.24,9.13.79,13.43-1.36a9.25,9.25,0,0,1,1.25-1.85,3.7,3.7,0,0,1,1.35-.73C209.37,176,213.19,177.59,217.07,178.93Z"/><path class="cls-11" d="M199.12,48.69l2.86.13q.08,8.93.17,17.85l-.68.6c-2.68.9-5.31,1.22-7.74-.71-1.86-4.71-1-9.58-.75-14.4.12-2.63,2-3.47,4.39-3.53A2.36,2.36,0,0,1,199.12,48.69Z"/><path class="cls-12" d="M3,119.39l-1-1.1.9-1a27.66,27.66,0,0,0,8.3,1q57.63-.06,115.24,0,.36.31.24.63c-.08.21-.17.31-.25.31Z"/><path class="cls-13" d="M241.83,161.05a3,3,0,0,0-3.2,1.63c-.44.82-.71,2.57-2.32,1.54-1-.67-2.31-1.62-2.59-2.68-.35-1.28.66-2.41,2.27-2.48.22.89,1.17,2.39,1.53,1.17,1.29-4.28,3.87-3,6.52-2.13Z"/><path class="cls-14" d="M211.09,69.62h-2c-1.44,1.14-3.17,1.23-4.89,1.35-2.4-.24-5.32.82-6.51-2.52.85-2.35,2.76-1,4.21-1.2a.56.56,0,0,0,.24-.58c3.19,1.7,7.18.56,10.23,2.8A.82.82,0,0,1,211.09,69.62Z"/><path class="cls-15" d="M236.23,83.44c-3.46.66-5.6-1.12-7.21-3.89a1.94,1.94,0,0,1,2.7,0C233.08,81,235.44,81.32,236.23,83.44Z"/><path class="cls-16" d="M10,48.68l-9.78.16a4.92,4.92,0,0,1,2.87-3.06C4.25,49.36,8.24,46.33,10,48.68Z"/><path class="cls-17" d="M254.06,131.66l-.12-12.43A19.45,19.45,0,0,1,254.06,131.66Z"/><path class="cls-18" d="M179.25,180.92c-1,.34-2-1.16-3,0-1.91,0-3.71-.19-4.84-2h6.85C178.78,179.5,179.86,179.78,179.25,180.92Z"/><path class="cls-19" d="M211.09,69.62l1.29-.15a10.42,10.42,0,0,1,5.77,2.1C215.78,71,212.63,73.23,211.09,69.62Z"/><path class="cls-20" d="M241.92,89.51c-3,.16-3.69-1.8-3.87-4.22A11.46,11.46,0,0,1,241.92,89.51Z"/><path class="cls-21" d="M247,97.38c-2.28-.41-3.42-1.48-2.22-3.89C245.73,94.68,246.87,95.75,247,97.38Z"/><path class="cls-22" d="M226,175.91c-.25-1-3.64-.95-1-2.93a1.73,1.73,0,0,1,2.2-.07,1.91,1.91,0,0,1-.16,2.23Z"/><path class="cls-21" d="M247.94,101.41c-.58-1.28-2.3-2.31-.92-4a4.7,4.7,0,0,1,1.77,4Z"/><path class="cls-23" d="M231.72,79.56H228c0-.71,0-1.42.05-2.13C229.59,77.62,231,78,231.72,79.56Z"/><path class="cls-24" d="M171.19,178.06c-1.69-.15-3.52.2-4.82-1.36-.05-1.6,1.11-1.1,2-1.14,1.34.32,3,.19,3,2.3Z"/><path class="cls-25" d="M227.08,175.14,227,173a1.39,1.39,0,0,1,2,0l1.18.08A3.87,3.87,0,0,1,227.08,175.14Z"/><path class="cls-26" d="M168.29,176l-1.92.75a3.46,3.46,0,0,1-2.35-1.62l4.27-.11A.76.76,0,0,1,168.29,176Z"/><path class="cls-3" d="M9,90.48C2.21,88.84,2.36,83.09,2.14,78,1.78,70,2.13,61.85,2,53.75c-.05-2.94.84-4.24,4-4.06,3.63.2,7.28,0,10.92,0,46.2,0,92.4.08,138.6-.11,4.88,0,6.42,1.44,5.94,6.14a101.56,101.56,0,0,0-.07,10.9c0,6.11,1,6.61,6.9,3.72,1.85-4.53,1.75-9.28,1.73-14.06,0-2.23-.61-4.69,1.44-6.51.28,0,.55-.07.83-.09,2.62-1.45,5.31-1.25,8-.37,2.53,3.74,1.12,8,1.42,12a36.72,36.72,0,0,1,.1,6.38c-.36,1.59-1.86,1.83-3,2.52-1.9.52-3.94.46-5.77,1.28a1.07,1.07,0,0,0-.74.18c-1,1.31-2.8,1-4,1.9l-8.88,5a15.43,15.43,0,0,0-4.89,4.16c-3.32,4.12-7.62,4.41-12.4,4.39q-52-.16-104,0c-3.22,0-6.74-.69-9.22,2.38a9.46,9.46,0,0,1-8.34,1.31C16.72,89.55,12.82,91.93,9,90.48Z"/><path class="cls-27" d="M13,48.69H12c-.21-3.5,2.32-2.94,4.41-2.94H71c26.65,0,53.31,0,80,.06,1.85,0,4.53-1.34,5.34,1.92-1.72.92-3.58.46-5.37.46q-66.28,0-132.58,0C16.61,48.25,14.76,47.82,13,48.69Z"/><path class="cls-28" d="M181.35,68.42c-2.26-4.29-.64-8.9-1.09-13.35-.18-1.77-.13-3.56-.18-5.34a1.79,1.79,0,0,1-.41-1.06,1.28,1.28,0,0,1,.69-.86c2.94.4,6.07-1,8.85.94,2.72,5.26,1.14,10.83,1.18,16.28a5.43,5.43,0,0,1-.55,1.57c-1.6,2.28-4.07,2.25-6.47,2.43C182.64,69.05,181.83,69.27,181.35,68.42Z"/><path class="cls-1" d="M13,48.69c1.67-1.66,3.77-.91,5.67-.91q68.82-.08,137.65,0c0,.31,0,.62,0,.93Z"/><path class="cls-29" d="M163.5,67.61q-.09-9.44-.17-18.87c6.33-.68,6.91-.21,6.94,5.83a84.59,84.59,0,0,1-.08,8.87C169.83,67.08,166.83,68.84,163.5,67.61Z"/><path class="cls-30" d="M189.18,66.6l0-17.85,4-.07a5.43,5.43,0,0,1,5,.17c-3.37.85-4.35,3-4.06,6.37.33,3.74.08,7.52.08,11.28C192.54,68.1,190.87,68.07,189.18,66.6Z"/><path class="cls-31" d="M163.5,67.61c3.5.27,5.6-1.2,5.77-4.82.11-2.45-.29-5,.08-7.36.77-4.9-1.24-7-6-6.69,2.9-1.2,5.79-2.37,8.07,1.07,0,4.61-.13,9.23,0,13.84.08,2.86-.62,5.18-3.16,6.73a6.92,6.92,0,0,1-4.78-1.91A3.55,3.55,0,0,1,163.5,67.61Z"/><path class="cls-1" d="M180.36,47.81l-.18,1a14.28,14.28,0,0,1-7.91-.08C174.78,46.79,177.66,48.12,180.36,47.81Z"/><path class="cls-1" d="M198.16,48.85l-5-.17c2-2.56,4-.72,5.92,0Z"/><path class="cls-32" d="M28.92,89.49c-.63-4.09,2-4,4.89-4,36.09,0,72.19-.08,108.29.15,5.59,0,10.35-.59,13.94-5.24a3.91,3.91,0,0,1,3.36-1.81L148.28,90.37a.54.54,0,0,1-.87.18c-1.6-1.8-3.73-1-5.62-1Q85.36,89.46,28.92,89.49Z"/><path class="cls-33" d="M183.22,157.09c-8.22-3.73-15.07-8.83-18-17.89,2.91-1.73,3.6-4.17,2.93-7.46A32.37,32.37,0,0,1,168,122c.22-2.09.47-4.33,3.22-4.81,1.6,1.52,1.26,3.52,1.37,5.41,0,2.5-.26,5,.17,7.5a11.15,11.15,0,0,1,.38,1.37,25.88,25.88,0,0,0,2.48,7.73,7.68,7.68,0,0,1,.78,1.9c.78,4.95,4.95,6.5,8.63,8.5,1.86,1,4.1,1.06,6,2.11a1.6,1.6,0,0,1,.48,1.13c-1,1.73,1.28,1.69,1.54,2.77-.77,4.61-4.5,2-6.81,2.78A4.86,4.86,0,0,1,183.22,157.09Z"/><path class="cls-34" d="M212.1,107.36c-.91-2.26-3.69-2.16-5-4-.71-.56-1.56-1-1.44-2.14,1.18-2.17,3.12-1,4.68-.91,2.29.17,1-1.39,1.26-2.17a2.09,2.09,0,0,1,1.43-1.41c3.7-.47,4.44,3.44,7,4.7h0c4.42,3,6.39,7.5,7.66,12.34,1.64,6.23,2.77,12.57.68,18.95-.6,1.8-.73,4-3.12,4.67-2.06-1.28-2.22-3.23-1.48-5.18,3-7.93,1.79-15.39-2.29-22.57-.76-.69-1-2.05-2.51-1.81-.48,1.41.45,2.46.84,3.63,2.17,3.88,4.37,7.75.77,12-3.58-2.9-2.58-7.87-5.15-11.33C214.26,110.63,213.35,108.87,212.1,107.36Z"/><path class="cls-35" d="M184.15,99.59a10.1,10.1,0,0,1,3,8.53c-.57,5,1.12,10.12-.95,15-2.41-3.59.69-7.67-1-10.67,0,3.37,1,7.49-1.15,11.31-4,1.33-4.85-1.07-5.14-4.22-.35-3.65.68-7.46-1.21-10.93-.5-.42.13.12-.37-.32-6-5.27-6-5.27,1.22-8.12a2.12,2.12,0,0,0,.77-.6l-.11-.22C180.92,98.13,182.58,98,184.15,99.59Z"/><path class="cls-36" d="M171.28,117.32c-3.58,5.1-2.21,10.74-1.29,16.11.74,4.31,0,6.38-4.73,5.77l-.89,0c-2.78-6.94-2.61-14-.54-21-.19-2.36,3.61-1.84,3.18-4.4a1.56,1.56,0,0,1,.75-1,7.81,7.81,0,0,1,4.13-.65,2.66,2.66,0,0,1,1.31,1.78C173.18,115.35,173.77,117.18,171.28,117.32Z"/><path class="cls-35" d="M179.33,99.58c1.06,3.08-2,1.63-3,2.46-1.53,1.32-4.24,1.82-.34,3.44a2,2,0,0,1,1.22,1.9l-.42.47a12,12,0,0,1-2.32.93c-1.53.36-1.2,3.52-3.68,2.46-1.34-2.78-4.4-2.57-6.63-3.81-2.82.07-3.89-1.68-3.6-4.09a4.27,4.27,0,0,1,4.46-3.82C169.81,99.41,174.57,99.54,179.33,99.58Z"/><path class="cls-37" d="M134.41,119.25h1c.32-.44.63-.44.94,0l-.06,4a6.69,6.69,0,0,0,0,4.9l.15,8.88a1.49,1.49,0,0,1-.63,2.43c-3.31-.12-1.93-3.5-3.4-4.86-1.75,1.17-.24,3.9-2.36,4.86A1.9,1.9,0,0,1,128,139c-2-4.84,0-10-1.37-14.93l-.15-.78c.33-1.3.67-2.6,1-3.91a2.2,2.2,0,0,1,2.4-.71,2.51,2.51,0,0,1,1,.63c.92,1.37,1.19-.34,1.81-.41A2.21,2.21,0,0,1,134.41,119.25Z"/><path class="cls-38" d="M225,137.18c5.64-11.23,4.28-21.86-2.76-32-.84-1.2-2.19-2.07-2.27-3.72,5.44-1.38,6.77,3.63,7.39,6.39,1.3,5.81,2.53,11.7,3.49,17.6.3,1.83-.54,3.84-.87,5.77-.17,2.08.13,4.21-.78,6.23s-1.94,3-4.14,2A1.68,1.68,0,0,1,225,137.18Z"/><path class="cls-39" d="M213.16,97.41l-1.06,1c-3,.91-5.83.27-8.63-.81-1.7-.66-3.4-1.3-5.34-.4,3.06.8,6.27,1.11,8,4.2l1,2-12.86-3c-1.23-1.55-2.58-3-1.29-5.25A5.62,5.62,0,0,1,198.61,92c4.39.31,8.85.42,12.49,3.47a3.64,3.64,0,0,0,.87.05C212.66,96,213.62,96.24,213.16,97.41Z"/><path class="cls-40" d="M198.15,67.63c1,3.58,4,1.31,6,2a2.67,2.67,0,0,1,0,4H188.2a3.35,3.35,0,0,1-.93-2,4.07,4.07,0,0,1,.58-2.23A5.51,5.51,0,0,1,191,67.15C193.4,67.37,195.84,66.6,198.15,67.63Z"/><path class="cls-41" d="M229.08,145.07c3.4,2.78,1.81,5.78-1.1,6.28-7.25,1.26-14.71,1.74-22-.59-.43-.14-.6-1.07-.89-1.63a3.81,3.81,0,0,1,2.69-1.23c4.62-.13,9.26-.27,13.87,0a7.16,7.16,0,0,0,6.7-2.78Z"/><path class="cls-42" d="M147.41,90.55l.87-.18.15.17a12.08,12.08,0,0,0,3.93,4.91l2.88-3.63,1.2.53c-2.51,3.22-.6,7.83-4.29,10.63a6.68,6.68,0,0,0-1.91,2.67c-1.27,2.6-2.75,2.7-3.85-.26.76-.63.33-1.69.84-2.41.8-1.38,2.58-2.53,1-4.41-1.07-.64-3,.93-3.44-1.36a3,3,0,0,1,.63-1.83,1.77,1.77,0,0,0,.81-1.86C146.6,92.53,147,91.54,147.41,90.55Z"/><path class="cls-2" d="M180.24,128.25c2.41,4.64-3.43,2.7-4,5-2.39,1.49-2.78-1.12-4-2h0c-1.94-3.76,1.89-7.45.14-11.22a2.37,2.37,0,0,1,1.73-2.23C180,119,179.08,124.25,180.24,128.25Z"/><path class="cls-43" d="M224.92,139.13c1.92.22,2.81-.49,3.29-2.53.42-1.8.29-3.9,1.8-5.37a10.25,10.25,0,0,0,4,4c1.46,2.28,1.5,4.33-1,6-1,.61-1.61,2.58-3.43.64-1.23-1.31-2.3-.34-2.54,1.32-1.57,1.45-3.41,1.61-4.82.14s-.24-3,1.09-4.08A1.62,1.62,0,0,1,224.92,139.13Z"/><path class="cls-44" d="M135.44,139.18a2.22,2.22,0,0,0,1-2.08c2.38,2.54,2.26,5.94,3.14,9-1.1-.13-2.07-1.36-3.18.59-3.24,5.68-4.83,5.67-9,.44a.82.82,0,0,1-.26-.74c0-.27.11-.4.17-.4a8.2,8.2,0,0,0,3.83-3,3,3,0,0,1,1.2-.3C134.62,142.55,134.05,140,135.44,139.18Z"/><path class="cls-45" d="M212.1,107.36c5.66,3.81,6.89,9.83,8,15.92,1.44,1.66.58,3.25-.13,4.85a15.54,15.54,0,0,0-2.22,5.19,3.46,3.46,0,0,1-2,2.13c-3.09-1.76-3.16-3.85-.67-6.21,6.35-5,.71-10.15-.12-15C214.6,112.12,213.19,109.61,212.1,107.36Z"/><path class="cls-46" d="M165.22,117.3c-3.51,7.16-1.95,14.52-.85,21.86-3.9-3.88-3.05-9.1-2.75-13.54a41.88,41.88,0,0,1,3.17-14.35,12.32,12.32,0,0,0,.53-2.89c1.39-.62,3.16-1.16,3.93.33,1,1.92-.65,3.34-2,4.59h0C166.41,114.56,165.94,116,165.22,117.3Z"/><path class="cls-47" d="M177.25,107.38c2.43-.2,3.09,1.11,3,3.3-.1,2.93.14,5.88-.07,8.8-.22,3.11,1.16,4.15,4,3.8a.69.69,0,0,1,1.09,0l-.09,1c-3.61,2.91-6.65,1.87-7.4-2.66-.43-2.55-.7-5.1-2.17-7.32-2.15-2.93-.34-5,1.6-6.93Z"/><path class="cls-48" d="M208.11,149.12h-3a43.51,43.51,0,0,1-.07-19.95l.56.48a81.65,81.65,0,0,1,3.59,12.52C209.72,144.45,209.94,147,208.11,149.12Z"/><path class="cls-39" d="M191.19,152.1c-8.17-.54-14.68-5-15.91-11,1.95-.62,2.13,1.17,2.92,2.13l2,1.91c1.24.85,3,.6,4,2h0c1.88,1,4.12.94,6,2h0c1.5,1.18,3.49-.17,5,1l1.89,1a1.66,1.66,0,0,1,.43,1.89C195.12,154.53,193.37,151.91,191.19,152.1Z"/><path class="cls-38" d="M211.1,95.46c-3.31-.82-6.59-1.71-9.92-2.45-6-1.33-8.59,1.43-6.92,7.39-1.38-1.07-5-.76-3.72-3.35,1.1-2.2,1.34-6.22,5.86-5.64s9.48-1,13.71,2a1.37,1.37,0,0,1,2,0Z"/><path class="cls-49" d="M217.07,178.93c-4.61,1.26-8.48-2.24-12.94-2a1.37,1.37,0,0,1,0-2v-2h2a2.09,2.09,0,0,1,3,0c.62,3.34,4.59,1.25,6,3.66C215.53,177.38,217.06,177.55,217.07,178.93Z"/><path class="cls-50" d="M176.36,113.42c3.52,1.27,1.56,4.23,1.77,6.36.49,5,2,6.18,7.09,4.51.12,3.56-2.38,3.82-5,4-3.1-2.7-1.5-8.26-6.15-10a1.94,1.94,0,0,1-.34-1.88A6.13,6.13,0,0,1,176.36,113.42Z"/><path class="cls-51" d="M205.06,129.18c.86-4.4,4.32-2.57,6.89-2.87,3,3.68,1.94,8,2,12.14-1.51,2-2.7,1.35-3.58-.54a8.1,8.1,0,0,1-.58-3.83c.15-3.28-1.55-4.64-4.59-4.81Z"/><path class="cls-52" d="M144.39,149.13c.14-1.22-.35-3,1.4-3.11.75-.05,1.93,1.25,2.33,2.19.94,2.21,1.52,4.57,2.25,6.88a3,3,0,0,1-2.09,1c-4.49,0-3.9-3.36-4-6.22C144.3,149.65,144.35,149.39,144.39,149.13Z"/><path class="cls-53" d="M184.15,99.59l-4.93-.23c0-.64,0-1.28,0-1.92-.54-1.33-1.37-2.65,0-4h0c2.08-1.47,4.31-1.09,6.56-.57,2.28,2.48-.33,3.28-1.58,4.55Z"/><path class="cls-54" d="M238,91.48c3.07.82,3.2,3.61,4,6-.17,1.23.54,2.78-.84,3.58-1.67,1-2.06-1.09-3.14-1.59-1.21-1.33-1-2.65,0-4Z"/><path class="cls-55" d="M185.31,123.32l-1.09,0c.94-5.28-.68-10.77.55-16l1.44,0v15.85A3.06,3.06,0,0,1,185.31,123.32Z"/><path class="cls-56" d="M139.65,130.51c-1.71-4.14-1.14-8.31-.48-12.49C141.12,122.11,140.11,126.33,139.65,130.51Z"/><path class="cls-57" d="M188.2,161.05c-1.21,3.57-4.37,2.36-6,1.5-2.77-1.44-.64-2.68,1.06-3.49C185.74,157.6,187.57,157.84,188.2,161.05Z"/><path class="cls-58" d="M188.2,161.05a4.92,4.92,0,0,0-5-2c0-.66,0-1.31,0-2h2.94c3.09,1.33,6.31-.2,9.44.44l.59.55C194.3,161.16,190.29,158.52,188.2,161.05Z"/><path class="cls-59" d="M145.39,97.44c1,1.76,2-1.76,3,0,1.12,2.23,1.31,4.3-1,6a2.06,2.06,0,0,1-1,2c-.53-2-2.75-3.5-2-6C143.77,98.28,143.58,97.36,145.39,97.44Z"/><path class="cls-60" d="M184.22,97.44l2-4c.35-1,1.42-1.24,2-2,1,.27,3.29-.44,2,1.73-.88,1.56-1.5,3.14-2.24,4.72C186.68,100.74,185.67,96.48,184.22,97.44Z"/><path class="cls-61" d="M136.37,119.27l-.47,0-.47,0c0-2,0-3.94,0-5.92-1.17-1.7-.9-3,1-4l2.82-3.93C139.43,110.28,136.32,114.45,136.37,119.27Z"/><path class="cls-45" d="M172.23,131.26l4,2v6a.72.72,0,0,1-1.12.06C172.59,137.15,172.38,134.22,172.23,131.26Z"/><path class="cls-41" d="M224,139.17c-3.49,4.76.28,4,3,4l2.05,1.94-.09.1a7.9,7.9,0,0,1-4.37.84c-2.87-.69-5.32-1.79-5.26-5.35a2.36,2.36,0,0,1,1-2A3,3,0,0,1,224,139.17Z"/><path class="cls-62" d="M213.23,139.12c-.46-4.27.6-8.68-1.28-12.81a5.44,5.44,0,0,1,3.13,2.93c-.48,2.11-1.39,4.29.93,6,.73,1.82-.65,2.81-1.58,4A1,1,0,0,1,213.23,139.12Z"/><path class="cls-63" d="M179.24,93.46c-.47,1.33,1,2.65,0,4l-2.42,0c-1.47,0-2.57-.45-2.43-2.21.12-1.52,1.24-1.69,2.43-1.73C177.63,93.46,178.44,93.47,179.24,93.46Z"/><path class="cls-64" d="M167.25,113.3c-.58-1.67,4.5-5.54-1.93-4.92l-1.12-.95c2.9.34,7.1-1.67,7.08,3.92a1.56,1.56,0,0,0,0,1C170.2,113.81,168.64,113.22,167.25,113.3Z"/><path class="cls-65" d="M154.35,159.06c-.17,1.1-.21,3.09-.55,3.15-2.32.37-2.83-2.2-4.42-3.15-.35-4,1.86-2.91,4-2a2.05,2.05,0,0,0,1,2Z"/><path class="cls-38" d="M213.16,97.41c-.39-.64-.79-1.27-1.18-1.9,4.93-1,6.37,2.61,8,6C217,101.27,216.17,97.55,213.16,97.41Z"/><path class="cls-66" d="M188.2,91.48a1.82,1.82,0,0,1-2,2h-7C181.5,89.52,185.27,92.36,188.2,91.48Z"/><path class="cls-67" d="M233,141.17c1.19-1.84,1-3.92,1-6,.23-.68.41-2.07,1.31-1.25C237.35,135.77,235.82,140.22,233,141.17Z"/><path class="cls-68" d="M152.36,95.45c-4.14.62-4.21-2-3.93-4.91l1.94.94a1.33,1.33,0,0,1,2,0Z"/><path class="cls-69" d="M242,107.38h-4a2.89,2.89,0,0,1,0-4h4A2.89,2.89,0,0,1,242,107.38Z"/><path class="cls-70" d="M241.42,149.31c.52,2.22,1.26,4-.45,5.4a1.09,1.09,0,0,1-1.65-.51C238.69,152.33,239.16,150.75,241.42,149.31Z"/><path class="cls-71" d="M153.36,157.07c-1.56.19-3.66-.67-4,2-.57.63-1.14,1.25-1.7,1.88a1.67,1.67,0,0,1-.32-.86c-1.2-2-.24-3.52,1-5h2C151.82,155.07,153.27,155.05,153.36,157.07Z"/><path class="cls-72" d="M242,107.38v-4h2a5.43,5.43,0,0,1,2,4Z"/><path class="cls-73" d="M212.09,93.47h-2c1.54-3.75,4.08-1.59,7.15-1.44C215.3,94,213.58,93.27,212.09,93.47Z"/><path class="cls-72" d="M209.11,173h-3c1.54-3.75,4.08-1.58,6.62-1.48C211.77,173.6,210.26,172.71,209.11,173Z"/><path class="cls-74" d="M148.85,140.14c1.6-1,3.11-1.6,4,.08a2.3,2.3,0,0,1-.87,2.07C150,143.26,150,140.81,148.85,140.14Z"/><path class="cls-75" d="M145.39,97.44a2,2,0,0,0-1,2c-1.33.89-1.61,3.07-3.71,3a15.91,15.91,0,0,1,4.7-7Z"/><path class="cls-76" d="M168.33,174.07l-5.16-1.47C166.44,170.06,167,170.22,168.33,174.07Z"/><path class="cls-77" d="M168.29,176v-2l1-1a1.62,1.62,0,0,1,1.85-.33c0,1.53,2.41,2.44,1.13,4.31l-1,.91Z"/><path class="cls-78" d="M173,71.5a8,8,0,0,1,5.1-1.93,2.73,2.73,0,0,1,3.1.05C179.14,73,175.83,71.14,173,71.5Z"/><path class="cls-79" d="M234.82,149.08a8.71,8.71,0,0,1-.83-5.49c0-.08,1.06-.2,1.25,0C236.47,145,236.13,146.57,234.82,149.08Z"/><path class="cls-80" d="M238,95.45v4c-.28.79-.75,2.46-1.53,1S234.84,96.26,238,95.45Z"/><path class="cls-81" d="M215.1,75a11.08,11.08,0,0,1-6.83.09C210.6,73.13,212.35,73.29,215.1,75Z"/><path class="cls-82" d="M188.2,71.6v2c-3,.4-4.71-.92-5-4l.52-.39.65,0A11.16,11.16,0,0,1,188.2,71.6Z"/><path class="cls-83" d="M175.14,139.24l1.12-.06c4.09-.28,1.39,2.66,1.94,4.07l-2.92-2.13C175.24,140.5,175.19,139.87,175.14,139.24Z"/><path class="cls-84" d="M176.26,171a2.05,2.05,0,0,1,1,2c-1.53,1.41-3.18,1.32-4.89.38a1.69,1.69,0,0,1-.09-2.37Z"/><path class="cls-58" d="M197.16,153.1c0-.65-.07-1.3-.1-2,3,2.73,2.18,5-.87,7l-.08-.1A4.58,4.58,0,0,1,197.16,153.1Z"/><path class="cls-85" d="M204.13,71.6v-2h5a1.81,1.81,0,0,1-2,2A2.14,2.14,0,0,1,204.13,71.6Z"/><path class="cls-86" d="M229,173l-2,0h-2a2.06,2.06,0,0,1-1-2C225.79,171.42,228.36,169.78,229,173Z"/><path class="cls-87" d="M154.35,159.06c.25-1.13-.59-2.57.89-3.32.15-.08.82.41.9.72.39,1.49-.16,2.44-1.79,2.6Z"/><path class="cls-70" d="M238,103.4v4a1.85,1.85,0,0,1-1.92-2.23C236.14,103.94,236.92,103.53,238,103.4Z"/><path class="cls-88" d="M190.19,149.15c-2.25.09-4.4-.13-6-2C186.45,147,188.62,147.17,190.19,149.15Z"/><path class="cls-78" d="M168.28,73.58a5.8,5.8,0,0,1,4-1.9C172.42,75.39,169.52,72.74,168.28,73.58Z"/><path class="cls-88" d="M184.19,147.18a5.77,5.77,0,0,1-4-2C181.79,145.35,183.92,144.43,184.19,147.18Z"/><path class="cls-89" d="M184.21,69.59l-1,0h-2l-3.1-.05c.82-1.08,2.13-.79,3.21-1.14l1.54,0C184.09,68,184.36,68.52,184.21,69.59Z"/><path class="cls-90" d="M218.25,171c.53.26,1.15.37,1.26.67.28.73-.27,1.16-.94,1.12a1.33,1.33,0,0,1-1-.71C217.52,171.84,218,171.42,218.25,171Z"/><path class="cls-91" d="M204.13,71.6h3c-.09,2-1.54,2-3,2Z"/><path class="cls-92" d="M143.45,153.08c-.34-.69-.68-1.37-1-2.06a1.73,1.73,0,0,1,1.95-1.89h0C144,150.43,146.44,152.4,143.45,153.08Z"/><path class="cls-93" d="M244.88,147.41c-.18-.41-.54-.82-.52-1.22a.59.59,0,0,1,1-.45,2.16,2.16,0,0,1,.39,1.3C245.76,147.12,245.26,147.26,244.88,147.41Z"/><path class="cls-58" d="M195.17,150.11c-1.69-.21-3.57.59-5-1C191.86,149.34,193.76,148.46,195.17,150.11Z"/><path class="cls-94" d="M172.27,171v2a.64.64,0,0,1-1,0h-2A3,3,0,0,1,172.27,171Z"/><path class="cls-95" d="M152.36,91.48h-2c.1-.81.18-1.79,1.28-1.63C152.42,90,153.34,90.41,152.36,91.48Z"/><path class="cls-96" d="M136.32,128.22a3.58,3.58,0,0,1,0-4.9C136.31,125,136.31,126.59,136.32,128.22Z"/><path class="cls-44" d="M126.48,151.11c2.63,4.65,6.62,4.84,11.13,3.43,1.1-.34,2.14,0,2.26,1.19.15,1.47-1.19,1.24-2.11,1.32-.66.06-1.32,0-2,0q-60.54,0-121.08,0c-.93,0-1.86-.12-3.2-.22,1.2-2.28,3-1.6,4.48-1.76a4.46,4.46,0,0,1,2.76-1.21,12.56,12.56,0,0,1,1.5-.08c1.47,0,2.94,0,4.41-.05,3.5-1.65,7,0,10.48,0h7.54c1,0,2.06,0,3.1,0,.78,0,1.57,0,2.36,0a5.21,5.21,0,0,1,3.68,1.29l2-1a4,4,0,0,1,4,1h66.7C125.86,154.12,125.14,152.1,126.48,151.11Z"/><path class="cls-97" d="M45.84,155.09h-3a7,7,0,0,1-1.14-1.46c-.54-1.54-2.45-1.41-3.24-2.65a2.25,2.25,0,0,1,.07-1.88,7.27,7.27,0,0,0,3.39-4.29,2.89,2.89,0,0,1,2.56-.22c2.51,2.24,3.23-2.17,5.33-1.43a13.84,13.84,0,0,0,1-2.13c.24-.83.44-1.65,1.48-1.6,1.32.07,1.43,1.13,1.46,2.13.1,3.34-1.41,6.35-2,9.55a4.45,4.45,0,0,1-2.36,1.22C47.79,152.64,47,154.11,45.84,155.09Z"/><path class="cls-98" d="M46.84,129.24c.35-1.8,1.06-4.1,3.19-3,2.85,1.47,7.38,1.07,7.79,5.94.19,2.34-.94,4.89,1,7a4.82,4.82,0,0,1,0,6c-1,.46-1.3,2.15-2.73,1.73-1.74-.52-1.22-2.12-1.22-3.33a33,33,0,0,0-2-12.32l-.61-.15a11.48,11.48,0,0,0-3.69-.86A2.58,2.58,0,0,1,46.84,129.24Z"/><path class="cls-99" d="M14,143.2c-2.54-3.06.59-4.25,2-6a2.45,2.45,0,0,1,2.81-.44,2.76,2.76,0,0,1,1.11,1.74c.17.39-.21,1,.46,1.23.06-.27.13-.54.2-.83A3.84,3.84,0,0,1,22,136.81a1.69,1.69,0,0,1,1.91.38l1,1c3.28,2.4,2.12,4.87.12,7.35-1.8,1.07-3.78,1-5.75.91C16.79,146.6,15.38,144.9,14,143.2Z"/><path class="cls-100" d="M46.84,129.24h2c1,1.38,3,.65,4,2h0c-.64,2.17,1.84,5.9-3,6-3-.49-6-.37-8.86-1.59-1.54-3.84,2.63-4.22,3.89-6.37Z"/><path class="cls-101" d="M127.48,146.14v1c-1.08.5-2.79,3.62-2.92-.38-.23-7,0-14.1-.06-21.14a2.05,2.05,0,0,1,2-2.33h0c2.12,4.93.45,10.11,1,15.14C127.72,141,128.58,143.57,127.48,146.14Z"/><path class="cls-102" d="M40.87,135.2c3.05.39,6.54-1.21,9,2v6a24.44,24.44,0,0,1-2.15,3c-1.51,1.58-2.43.93-2.81-1l0-.63c.33-1.19,1-2.31.87-3.6-.57-2.28-2.45-2.36-4.27-2.56s-3.69.2-4.94-1.57a1.86,1.86,0,0,1,.52-2.09A3.2,3.2,0,0,1,40.87,135.2Z"/><path class="cls-103" d="M40.87,135.2l-4,0c-2.12-1.32-4.76,2.1-6.73-.74a3.47,3.47,0,0,1,.86-3.71c2-.73,4-.86,5.86.46,2.44-1.52,5-2.5,8-2C45.38,132.47,41.37,132.66,40.87,135.2Z"/><path class="cls-104" d="M19,155.09H16a7.45,7.45,0,0,0-2.14-4.23c-1.1-1.31.2-1.52,1.15-1.74,1.38-1.25,3.09-1.36,4.83-1.35a27.82,27.82,0,0,1,5.08.16,4.18,4.18,0,0,1,2.2,1c.85,2.64-1.09,3.14-2.86,3.28A6.25,6.25,0,0,0,19,155.09Z"/><path class="cls-105" d="M36.88,131.23h-6a1.34,1.34,0,0,1-2,0l-4.74-.31C28,128.36,34.46,128.69,36.88,131.23Z"/><path class="cls-2" d="M143.45,153.08c1.61-1-.28-2.85.94-4,2.35,1.31-.94,6.38,4,6-.34,1.66-.68,3.33-1,5C145.29,158.18,143.37,156.19,143.45,153.08Z"/><path class="cls-106" d="M20,149.12H15c.33-2.09-.65-4-1-5.92,1.91.08,2.84,2.56,5,2C20.05,146.35,21.23,147.43,20,149.12Z"/><path class="cls-5" d="M58.78,145.15v-6c.3-.83.92-2.51,1.6-.86a10.42,10.42,0,0,1,0,7.69C59.7,147.66,59.08,146,58.78,145.15Z"/><path class="cls-107" d="M24.9,145.13c.64-2.31,1.79-4.61.05-6.94l1-1a1,1,0,0,1,1.21-.08c.87,1.85,2.48,3,4.11,4.06a2.22,2.22,0,0,1,0,2c-1.21,1.22-2.95,1.48-4.32,2.42A2,2,0,0,1,24.9,145.13Z"/><path class="cls-108" d="M18,127.26a2.06,2.06,0,0,1-1,2,2.9,2.9,0,0,1-4,0c-.51-6.07,2.69-2.89,5-2Z"/><path class="cls-100" d="M13,129.24h4c-.23,1.44.67,3.62-1.75,3.8C12.33,133.26,13.2,130.84,13,129.24Z"/><path class="cls-109" d="M28.92,131.23h2v4a3.09,3.09,0,0,1-2.08,1,3.76,3.76,0,0,1-2.9-1c-1-.9-.84-1.65.46-1.88S28.86,132.89,28.92,131.23Z"/><path class="cls-5" d="M57.79,155.09c-1.38-.14-2.94.46-4-1,0-1.52.08-3.13,2.23-2.84C58.48,151.57,57.55,153.64,57.79,155.09Z"/><path class="cls-100" d="M18,127.26c1.55-3.65,4.05-1.7,7.77-1.32-3.35,1.83-5.64,1.09-7.77,1.32Z"/><path class="cls-108" d="M36.62,126.11c-3.26,1.46-5.16,1.39-7.67.4C31.29,124.71,33.25,125.2,36.62,126.11Z"/><path class="cls-110" d="M130.48,119.26l-3,.11-1-.12c0-.31,0-.63,0-.94.1-1.09-.26-2.46,1.28-2.79s1.71,1.32,2.7,1.8A1.41,1.41,0,0,1,130.48,119.26Z"/><path class="cls-111" d="M48.83,151.11h3v4h-4C46.57,153.36,48,152.31,48.83,151.11Z"/><path class="cls-112" d="M16,136.2a7.42,7.42,0,0,1,8,0C21.28,137.48,18.63,137.05,16,136.2Z"/><path class="cls-113" d="M16,136.2h8c0,.32,0,.65,0,1l-2,.06a2.22,2.22,0,0,1-3,0l-3-.06C16,136.86,16,136.53,16,136.2Z"/><path class="cls-114" d="M126.48,151.11c-.19,1.56.68,3.65-2,4C124.68,153.52,123.81,151.44,126.48,151.11Z"/><path class="cls-115" d="M25.93,135.21h3c.76,2.08.09,2.74-2,2h-1Z"/><path class="cls-116" d="M136.43,109.36a6.82,6.82,0,0,0-1,4l-3-1a1.46,1.46,0,0,1,0-2C133.53,109,134.28,106.42,136.43,109.36Z"/><path class="cls-117" d="M132.45,110.36v2c-1.58,1.51-1.79.26-2-1a2.88,2.88,0,0,1,0-4C132.48,107.47,132.47,108.92,132.45,110.36Z"/><path class="cls-118" d="M130.48,119.26l0-1.94c.24-1.31.57-2.39,1.91-.71.69.87,1.36,1.76,2,2.64l-1.94.14a1.53,1.53,0,0,1-2,0Z"/><path class="cls-119" d="M130.46,107.38v4a1.84,1.84,0,0,1-1.92-2.23C128.62,107.91,129.4,107.5,130.46,107.38Z"/><path class="cls-18" d="M171.28,173h6c2.5-2,5.17-3.74,8.51-3.93,1-.06,2,.2,2.24,1.41.19.85,0,2.08-.72,2.09-5.44.07-9.26,5.52-15,4.4C172.61,175.46,170,174.72,171.28,173Z"/><path class="cls-120" d="M179.25,180.92l-1-2h5c1.55-1.37,3.54-.78,5.31-1.17,5.22.14,10.57-1.49,15.59,1.17-.33,2.39-2.19,2-3.75,2-4.06,0-8.12,0-12.18,0-1,.35-2,1-3,0Z"/><path class="cls-121" d="M204.13,175v2h0c-5,1.89-10.13.94-15.23.59l-.7-.59c.33-2.39,2.19-2,3.75-2C196,174.94,200.07,175,204.13,175Z"/><path class="cls-10" d="M188.2,178.94h-5c.64-3.19,3.22-1.56,5-2h0A1.34,1.34,0,0,1,188.2,178.94Z"/><path class="cls-122" d="M188.2,178.94v-2h15.93v2Z"/><path class="cls-56" d="M185.22,180.93c1,.33,2-1.15,3,0-.14,1-.39,2-1.73,1.79C185.44,182.59,185.35,181.73,185.22,180.93Z"/><path class="cls-123" d="M198.15,67.63h-7.94c-.84.36-1-.06-.91-.78l-.12-.26,5-.1c2.56.46,5.24-.44,7.73.75Z"/><path class="cls-124" d="M56.79,68.62c1.35-.49.82-3.62,2.88-2.58s.68,2.58-.22,4c-1.38,2.23-.7,4.85-.61,7.27.16,4.23-1.49,5.07-5,3.19-.67-2.46,0-5.5-3-7,0-1.47.13-3-.68-4.3-2.06-3.37-.21-3.89,2.67-3.66C53.94,66.89,54.89,68.39,56.79,68.62Z"/><path class="cls-125" d="M15.92,73.63c-2.23-.43-2.7-2.1-2.87-4A8.83,8.83,0,0,0,17,65.69h3a2.12,2.12,0,0,1,.64,1c.55,2,1.69.62,2.63.43a1.89,1.89,0,0,1,1.77.48h0c1.21,1.19,2,2.5,1.46,4.3a4.36,4.36,0,0,1-3,2.74C20.83,75,18.23,75.35,15.92,73.63Z"/><path class="cls-126" d="M24,73.59l2-2a2.94,2.94,0,0,1,1.17-.65,2.11,2.11,0,0,1,1.83.7l2,2a1.34,1.34,0,0,1,2,0c2.11-1.5-.14-4.47,2-6,1.41,1.3.83,3.32,1.76,4.8a7,7,0,0,1,.66,1.12,3.46,3.46,0,0,1,.15,1.28A2.37,2.37,0,0,1,36.86,76a7.07,7.07,0,0,1-1.77.8,10.45,10.45,0,0,0-1.18.54c-1.93,1.26-3.77,1.54-5.4-.49a3.31,3.31,0,0,1-.42-1.3c-.74.27-.15.75-.12,1.09a2.77,2.77,0,0,0,1.17,1.9,3,3,0,0,1,.77,1.06c-2.51,3.91-3.73,1.42-5-1a9.87,9.87,0,0,1-2.07-2.44,2.33,2.33,0,0,1-.28-1.24C22.82,74.22,23.49,74,24,73.59Z"/><path class="cls-127" d="M44.85,79.55c-1.08.54-1.58,2.67-3.14,1.61s.43-2.35.15-3.59a2.55,2.55,0,0,1,.94-.79,18.63,18.63,0,0,0,3.29-1.7,1.68,1.68,0,0,1,1.73.49h2c2.82.79,2,2.52,1.1,4.26A5.75,5.75,0,0,1,44.85,79.55Z"/><path class="cls-111" d="M50.82,79.55c-.14-1.38.46-2.93-1-4l1-2c6.53,0,3.73,3.89,3,7-.72,1.17-1.9,1-3,1A1.34,1.34,0,0,1,50.82,79.55Z"/><path class="cls-5" d="M33.9,75.57h1c1.2,1.41,2.18.6,3.15-.32a1.41,1.41,0,0,1,1.17.46,1.53,1.53,0,0,1-.34,1.84v2c-1,1.34-3,.61-4,2-1.56-.19-3.65.68-4-2A6.53,6.53,0,0,0,33.9,75.57Z"/><path class="cls-128" d="M56.79,68.62c-3.92,2.46-4-.19-4-3C54.94,65.56,57.1,65.45,56.79,68.62Z"/><path class="cls-129" d="M38.86,75.61l-1,0a.59.59,0,0,1-1,0v-1c2.55-2.18,5.79-.84,8.61-1.69a3.18,3.18,0,0,1,2.3.65c0,.68,0,1.36,0,2l-2,0c-.85.94-2.09,1-3.16,1.37A4.52,4.52,0,0,1,38.86,75.61Z"/><path class="cls-4" d="M22.93,75.57c2,.09,2,1.53,2,3a3.27,3.27,0,0,1-4,0,2.4,2.4,0,0,1-.26-3A1.7,1.7,0,0,1,22.93,75.57Z"/><path class="cls-130" d="M28.92,71.6l-2.06,0c-.57-1.29-.92-2.57,0-3.85.18-1,.38-2.06,1.73-1.87,1.15.16.94,1,.78,1.87C29.14,69,29.06,70.31,28.92,71.6Z"/><path class="cls-131" d="M37.85,66.6c3.14-1,6.36-2.58,9,1l-.54.52c-2.8.93-5.35-.19-7.95-1Z"/><path class="cls-32" d="M33.9,75.57c.07,2.13.18,4.29-3,4h-2a2.09,2.09,0,0,1,0-3C31,78.09,32.54,77.41,33.9,75.57Z"/><path class="cls-32" d="M50.82,79.55v2c-2-.68-5,1.61-6-2Z"/><path class="cls-130" d="M32.9,73.59h-2c.24-1.79-.55-3.77,1-5.82C33.45,69.82,32.66,71.8,32.9,73.59Z"/><path class="cls-132" d="M17,65.69c.4,3-.92,4.34-3.94,3.94A4.79,4.79,0,0,1,17,65.69Z"/><path class="cls-131" d="M36.84,67.58l1-1,0,.05a7.32,7.32,0,0,1,1.24,7,1.74,1.74,0,0,1-2.26,0l0,0C35,71.58,35.1,69.59,36.84,67.58Z"/><path class="cls-131" d="M47.8,73.53l-2,.12a1.88,1.88,0,0,1-2.17,0c.74-2.16,2.71-3.7,3.14-6l0,0C48.66,69.35,47.58,71.54,47.8,73.53Z"/><path class="cls-133" d="M36.84,67.58a9.18,9.18,0,0,0,.06,6c-3.65-1-1.33-3.94-2-5.92Z"/><path class="cls-134" d="M21,75.6v3H19a2.2,2.2,0,0,1-2-1v-2A2.69,2.69,0,0,1,21,75.6Z"/><path class="cls-135" d="M34.89,81.54c.33-2.67,2.42-1.8,4-2C38.55,82.21,36.46,81.35,34.89,81.54Z"/><path class="cls-136" d="M24,73.59l-1,1a11,11,0,0,1-7,0c0-.31,0-.63-.05-.94Z"/><path class="cls-137" d="M17,77.56a2,2,0,0,1,2,1c-1,1.21-2.42,1.51-3.33.34C14.92,78,16.2,77.73,17,77.56Z"/><path class="cls-132" d="M20,66.63c0-.31,0-.62,0-.93,1.8.3,4.29-1.24,5,1.88l-2,0A3,3,0,0,1,20,66.63Z"/><path class="cls-138" d="M16,74.57h7c0,.33,0,.66,0,1l-2,0H17Z"/><path class="cls-139" d="M26.87,67.73c0,1.28,0,2.56,0,3.85-.32,0-.63,0-.94,0l-1-4Z"/><path class="cls-32" d="M38.86,75.61l4,1c.26.22.34.44.26.66s-.17.33-.25.33h-4Z"/><path class="cls-14" d="M189.3,66.86l.91.78a1.83,1.83,0,0,1-2,2c-1.32,1.1-2.65.87-4,0l0,0-1.32-1.11C184.75,66.86,187.34,68.1,189.3,66.86Z"/><path class="cls-140" d="M197.16,153.1a7.06,7.06,0,0,1-1,4.9c-3.32-.21-6.78,1-10-.91,1.72,0,3.45,0,5.18,0s1.08-1.09.85-2-.84-1.24-1-2v-1C193.71,149.3,195.12,153.07,197.16,153.1Z"/><path class="cls-50" d="M173.25,120.25c.05,2.11,4.48,4.64-.71,6.41-.56.19-.22,3-.29,4.6-1.89-2.44-.51-5.26-.93-7.88C172.53,122.69,170.66,120.1,173.25,120.25Z"/><path class="cls-64" d="M173.25,120.25l-1.93,3.13c0-2,0-4,0-6.06,1.46-1,.85-2.61,1-4a1.67,1.67,0,0,1,2.24,0,2.75,2.75,0,0,1-.21,3.09c-.07.62-.14,1.23-.22,1.84Z"/><path class="cls-141" d="M191.19,153.1c1.26.2,2.51.4,1,2-1.17-.3-3.05.72-3.34-1C188.65,152.83,190.31,153.26,191.19,153.1Z"/><path class="cls-33" d="M213.94,139.12l2.07-3.91,1.06-2.07c1-1.48.81-3.45,2-4.88l1-5c2.43-4.49.76-8.3-2-11.93,2.61.71,2.18-2.61,4-3,4.73,7.77,6.67,15.87,2.61,24.54-.76,1.62.45,2.84.36,4.27,0,.65-.07,1.3-.11,1.95l-.93,0-3.93,0a1.74,1.74,0,0,0-2.6-.1C216.37,140,215.12,140.36,213.94,139.12Z"/><path class="cls-142" d="M206.12,101.42A23,23,0,0,0,197.58,99c-1.67-.21,0-1.54-.24-2.34-.63-2,1-1.09,1.66-1.12,4.61-.19,8.62,2.43,13.1,2.94l1.84,3Z"/><path class="cls-143" d="M222.06,108.37c-1.07,1.27-.55,2.72-.34,4.28l-3.65-1.3-.06-.49c-.18-1.69-2.1-3.76-.14-5S220.66,107.46,222.06,108.37Z"/><path class="cls-144" d="M174.26,113.34h-2l-1-1c-.68-.33-.68-.67,0-1,1.68-.81.18-4,3-4C175.82,109.37,175.07,111.35,174.26,113.34Z"/><path class="cls-64" d="M165.22,117.3c0-1.67.31-3.19,2-4C171.18,117,166,116,165.22,117.3Z"/><path class="cls-145" d="M174.26,113.34c0-2,0-4,0-6h3c.5,2.13-3,3.67-.89,6a3.62,3.62,0,0,1-2.05,3C174.29,115.38,174.28,114.36,174.26,113.34Z"/><path class="cls-146" d="M127.48,146.14c-1.38-2.17-.93-4.6-1-7a1.35,1.35,0,0,1,2,0h2l.57.37c.81,1.12,1.62,2.25.43,3.61C130.91,145.19,130.9,147.94,127.48,146.14Z"/><path class="cls-147" d="M128.47,139.18h-2v-15.9c2.4.33,2,2.19,2,3.74C128.49,131.08,128.47,135.13,128.47,139.18Z"/><path class="cls-148" d="M135.44,139.18c0,1.64.13,3.32-.94,4.71-1.35,1.75-1.75.6-2.05-.73a10.21,10.21,0,0,1-1-4.14c.2-2-.61-4.08,1-5.8C136.21,133.83,133.09,137.87,135.44,139.18Z"/><path class="cls-146" d="M132.45,133.22v6a1.34,1.34,0,0,1-2,0c0-2.14-.39-4.41.2-6.39C131.31,130.61,132.12,131.84,132.45,133.22Z"/><path class="cls-149" d="M130.44,119.38h2c-.26,1.13.56,2.59-1,3.38C129.89,122,130.71,120.5,130.44,119.38Z"/><path class="cls-150" d="M184.23,69.61h4v2C186.5,71.69,185,71.43,184.23,69.61Z"/><path class="cls-151" d="M213.94,139.12c3.05.9,3.28-2.51,5.09-3.48,1.58.93.8,2.38,1,3.55v2a10,10,0,0,1-1.92,1.51c-.72.55-1.11,1.25-.51,2.1a1.33,1.33,0,0,0,1.74.44,4.93,4.93,0,0,1,4.67-.07l5,0c-.38,5.52-4.47,3.91-7.66,3.94-4.41,0-8.81,0-13.22,0,.74-4.94-.57-9.61-2.3-14.1-.77-2-.46-3.84-.66-5.75,4.94-1.72,5.47-1.22,6,4.84.16,1.8-1.33,4.49,2.09,5Z"/><path class="cls-152" d="M147.39,103.4c1.77-1.75-.11-4.1,1-6C152.36,100.14,150.08,101.8,147.39,103.4Z"/><path class="cls-37" d="M130.46,139.18h2v4h-1Z"/><path class="cls-62" d="M219,128.26a5.43,5.43,0,0,1-2,4.88C217.08,131.25,216.78,129.25,219,128.26Z"/><path class="cls-33" d="M224,145.15c-1,.06-2.27-.24-2.87.27-1.29,1.09-2.09,3.08-4.13,1.08-.92-.9-2.08-1.62-1.46-3.28.83-2.25,2.66-2.08,4.48-2.05C220,143.84,222.73,143.81,224,145.15Z"/><path class="cls-3" d="M19,155.09c-.33-2.81.62-4.27,3.75-4,1.6.12,3.78.79,4.22-1.93a1.81,1.81,0,0,1,1.86-.43,14.89,14.89,0,0,1,2.61,2.06c1,1.21,2.88,1.14,3.86,2.45a1.66,1.66,0,0,1-.37,1.89c-3.32.11-6.64-2.1-10,0a3.42,3.42,0,0,0-5,0Z"/><path class="cls-108" d="M20,155.09q2.49-4.77,5,0Z"/><path class="cls-3" d="M48.83,151.11l-1,4h-2C46.19,153.27,46.47,151.41,48.83,151.11Z"/><path class="cls-153" d="M34.89,155.09v-2a3,3,0,0,1,3.94-.33,1.67,1.67,0,0,1,0,2.32Z"/><path class="cls-3" d="M38.87,155.09v-2c1.33-1.21,2.66-1,4,0v2Z"/><path class="cls-154" d="M42.85,153.1h-8c-1.56-.19-3.66.68-4-2,1.07-1.19,2.51-1.28,4-1.3a5.48,5.48,0,0,1,4,1.3C40.43,151.3,42.53,150.43,42.85,153.1Z"/><path class="cls-155" d="M44.86,145.21l-3,0c-1.24,1.14-2.6,1-4,.35-1.38-1.24-2.07-2.67-1.27-4.52a3.8,3.8,0,0,1,3.77-.67c1.39,1.63,6.46-.2,4.42,4.67Z"/><path class="cls-156" d="M37.9,145.06l4,.19c2.07,3.69-.19,4-3,3.87a1.18,1.18,0,0,1-1.35.14c-1.28-1.17-2.87-2.22-1.69-4.34A1.78,1.78,0,0,1,37.9,145.06Z"/><path class="cls-157" d="M37.88,149.12h1v2h-4C34.19,147.91,35.93,148.36,37.88,149.12Z"/><path class="cls-3" d="M52.81,131.23c-1.56-.19-3.66.68-4-2C50.39,129.43,52.48,128.57,52.81,131.23Z"/><path class="cls-3" d="M24.9,145.13l2,0A1.66,1.66,0,0,1,29,145c1.27,4-3.08,2.4-4.1,4.12H20c-.32-1.3-.65-2.59-1-3.88Z"/><path class="cls-158" d="M21,139.19c.6,1.33,1.54,3.23-.66,3.39s-.95-2.19-1.33-3.4A1.39,1.39,0,0,1,21,139.19Z"/><path class="cls-159" d="M21,139.19H19c0-.64,0-1.29,0-1.94h3A2,2,0,0,1,21,139.19Z"/><path class="cls-160" d="M26.93,137.19a1.81,1.81,0,0,0,2-2h2c2,.32,4-4.75,6,0,0,.66,0,1.33,0,2l-.39.48a12.08,12.08,0,0,1-1.59.94c-1.39.75-1.2,4-4,2.54Q26.28,141.83,26.93,137.19Z"/><path class="cls-161" d="M40.87,141.17h-4a1.35,1.35,0,0,1-1.17.45c-2.72-2.3,1.83-2.66,1.18-4.41h0a46.53,46.53,0,0,1,6.79.09c1.94.29,4,1.11,3.19,3.89A6.92,6.92,0,0,1,40.87,141.17Z"/><path class="cls-162" d="M40.87,141.17l6,0c0,1.67-.14,3.24-2.06,3.89-.08-1.41.27-3.16-2.21-2.35C41.24,143.18,41,142.17,40.87,141.17Z"/><path class="cls-156" d="M24.94,149.12c-.21-2.86,4.18-1.12,4-4a2.27,2.27,0,0,1,2.92-.31c1.28,4.28.83,4.95-2.92,4.28h-4Z"/><path class="cls-163" d="M30.91,141.17c2.86.21,1.12-4.18,4-4,1,2.05-.77,3.81-.57,5.78a2.21,2.21,0,0,1-1.27.86,2.33,2.33,0,0,1-2.15-.69Z"/><path class="cls-164" d="M30.91,143.15h2c.66,1.16.67,2-1,2h-5C27.24,142.47,29.35,143.36,30.91,143.15Z"/><path class="cls-165" d="M20,66.63c1.09,0,2.27-.17,3,1-.18,1.63-1,2.37-2.57,1.57C19.27,68.62,18.62,67.72,20,66.63Z"/><path class="cls-4" d="M28.92,76.57v3c-1.81-.08-1.87-1.41-2.11-2.75s-1.34-3.27,1-3.34C29.7,73.42,28.58,75.48,28.92,76.57Z"/><path class="cls-166" d="M43.85,73.57l2,.08c-2.82,1.89-6,.51-8.94.92,0-.33,0-.66,0-1h2A3.67,3.67,0,0,1,43.85,73.57Z"/><path class="cls-167" d="M36.89,75.56l1,0c-.13.8-.23,1.66-1.26,1.78-1.33.16-1.58-.78-1.72-1.79Z"/><path class="cls-11" d="M42.86,77.56v-1c.73-1.17,1.9-1,3-1C45.74,77.6,44.29,77.58,42.86,77.56Z"/><path class="cls-168" d="M43.85,73.57h-5c-.56-2.28-1.32-4.52-1-6.92,3.07-.57,5.87,1.23,8.9,1C48.09,70.76,44.86,71.61,43.85,73.57Z"/><path class="cls-169" d="M225.21,123c-1.47.2-2-.42-2.05-1.3s.09-2,1.38-2.12a1.27,1.27,0,0,1,1.34,1.15A2.09,2.09,0,0,1,225.21,123Z"/><path class="cls-104" d="M31.89,145.16a2.06,2.06,0,0,0,1-2h1a2.59,2.59,0,0,1,1.6.49c.44.39.81.8.43,1.43.65,1.35,1.31,2.69,2,4-1.44,0-2.9,0-3,2h-4a1.81,1.81,0,0,1-2-2C32.59,149.81,31,146.56,31.89,145.16Z"/><path class="cls-170" d="M35.92,145.08l-.91-1c-1.26-1.41-.13-2.14.84-2.92h1c.34,1.3.68,2.59,1,3.89Z"/><path class="cls-102" d="M35.85,141.16,35,144.08l-1.12-.92c-.34-2.1.66-4,1-6h2C38.9,139.16,34.37,139.36,35.85,141.16Z"/></g></g></svg>