<svg xmlns="http://www.w3.org/2000/svg" viewBox="0 0 256.04 172.08"><defs><style>.cls-1{fill:#bdc2c6;}.cls-2{fill:#95a4a4;}.cls-3{fill:#94a4a4;}.cls-4{fill:#4281c7;}</style></defs><g id="katman_2" data-name="katman 2"><g id="katman_1-2" data-name="katman 1"><path class="cls-1" d="M154.36.09c32.13,0,64.27.08,96.4-.09C255,0,256,1.21,256,5.32q-.21,73.16,0,146.3c0,4.54-1.36,5.48-5.64,5.46q-67.67-.22-135.35,0c-4,0-5.43-1.2-4.7-5a22.82,22.82,0,0,0,0-9.87c-1.1-4.51,1.41-5.25,5.29-5.23,29.13.09,58.27,0,87.4,0,9.66,0,19.32-.09,29,.05,3,.05,4-.94,4-4q-.12-54.43,0-108.85c0-3.32-1.1-4.23-4.31-4.22q-77.17.12-154.33,0c-3.2,0-4.68.86-4.31,4.21.18,1.64,0,3.33,0,5,.09,2.13-.9,3-3,2.94q-7-.1-14,0c-2.1,0-3-.84-3-3,.05-8.66.09-17.31,0-26C53.09-.68,55.78.11,58,.11q30.21,0,60.43,0Z"/><path class="cls-1" d="M45.09,59.15a79.07,79.07,0,0,0,.06,9C45.63,72.32,43.76,73.5,40,73a8.73,8.73,0,0,0-2.5,0c-4.3.68-5.94-.87-5.62-5.43a176.37,176.37,0,0,0,0-18c-.11-3.31.72-4.79,4.4-4.67,10.53.33,8.53-1.08,8.75,8.71C45.12,55.49,45.09,57.32,45.09,59.15Z"/><path class="cls-1" d="M56,58.78v-5.5c0-8,3.24-10.38,11.14-8.24,1.77.48,1.92,1.58,1.92,3,0,7.32,0,14.65,0,22,0,2.06-.79,2.84-2.91,3.06-9.79,1-10.18.76-10.18-8.76Z"/><path class="cls-1" d="M78,58.91c0-3.49.11-7,0-10.48-.11-2.65,1-3.34,3.54-3.46,9.57-.48,9.57-.56,9.57,8.87,0,5.16-.11,10.32,0,15.48.09,2.85-1,3.75-3.8,3.71-11.46-.18-9.06,1-9.32-8.63C78,62.57,78,60.74,78,58.91Z"/><path class="cls-2" d="M173.93,25.05h5.48c6.48,0,6.51,0,6.48,6.32,0,7.71.87,6.75-7,6.82-4.82,0-9.65-.1-14.47,0-2.53.07-3.41-.75-3.52-3.39-.44-9.8-.54-9.79,9-9.79Z"/><path class="cls-3" d="M212.12,38.19c-2,0-4,0-6,0-6.31,0-6.31,0-6.31-6.51s0-6.63,6.66-6.63c5,0,10,.08,14.94,0,2.42-.05,3.48.56,3.61,3.29.5,9.9.61,9.89-9.44,9.89Z"/><path class="cls-3" d="M100.13,125.64V85.19c0-6.32,0-6.32-6.56-6.32-19.49,0-39-.07-58.45,0-4.26,0-9.57-1.87-12.49,1-2.52,2.48-.81,7.62-.72,11.57.09,3.67-1.48,4.56-4.79,4.41-4.49-.2-9,0-13.48-.08C1.22,95.76,0,96.36,0,99.12q.14,25.22,0,50.44C0,152.23,1,153,3.52,153c4.82-.13,9.66.08,14.48-.07,2.83-.1,4,1,3.84,3.77-.18,3.82-.16,7.65-.4,11.46-.18,2.86.55,4,3.81,4q35.22-.24,70.44,0c3.49,0,4.56-1,4.52-4.47C100,153.61,100.13,139.63,100.13,125.64ZM17,139.77c-2.75.12-3.92-1-3.81-3.78.15-4,0-8,0-12s.14-8,0-12c-.16-3.54,2.2-3,4.32-3s4.47-.61,4.42,2.94c-.12,8-.14,15.94,0,23.92C22,139.68,19.59,139.65,17,139.77Z"/><path class="cls-4" d="M205,78c.07-2.35-.7-3.49-3.12-3.13-2.86.43-4.44-.69-5.74-3.38-1.49-3.08.06-4.58,2-6.3a19.28,19.28,0,0,0,1.75-2.06c-.68-.83-1.23-1.63-1.9-2.32-2.69-2.72-5.6-5.25-8.06-8.16s-4.76-3.68-7.29-.15c-1.22,1.71-2.7,1.54-4.34.56-1.46-.89-4.27-.82-3.76-3.22,1.3-6.2-2.47-5.94-6.57-5.75a58.39,58.39,0,0,1-8.47,0c-3.63-.38-5.08.69-4.84,4.59.2,3.18-5.59,6.67-7.25,4.55-4.54-5.8-7-1.56-10,1.39A59.83,59.83,0,0,1,132,59.78c-2.94,2.28-3.06,4.09-.09,6.59,2.56,2.16.75,8.66-2.29,8.31-6.18-.71-5.77,2.88-5.62,6.87.12,3.16.17,6.33,0,9.48-.16,2.8.88,4.11,3.7,3.74s4.12.66,5.22,3.29c1.16,2.78.26,4.37-1.74,5.9s-2.08,2.92-.07,4.7a109.1,109.1,0,0,1,7.77,7.74c2.46,2.67,4.5,4.73,7.68.54,1.82-2.41,8.29-.31,8,2.54-.73,6.16,2.88,5.76,6.88,5.61,3.32-.13,6.66-.11,10,0,2.2.08,3.7-.41,3.2-3-.56-2.88.29-4.51,3.19-5.74,2.74-1.16,4.36-.47,5.9,1.59s3,2.13,4.78.17c3.05-3.29,6.2-6.51,9.52-9.52,2-1.81,2-3.2,0-4.75s-3-3.07-1.76-5.85c1.15-2.54,2.57-3.63,5.29-3.26,2.41.34,3.69-.47,3.57-3.25C204.87,87,204.91,82.51,205,78ZM164.2,99.4c-8.53-.38-14.61-6.83-14.36-15.2a14.71,14.71,0,1,1,29.39,1.24A14.44,14.44,0,0,1,164.2,99.4Z"/></g></g></svg>