<svg xmlns="http://www.w3.org/2000/svg" viewBox="0 0 257.15 185.34"><defs><style>.cls-1{fill:#94a4a4;}.cls-2{fill:#4281c7;}.cls-3{fill:#bdc2c6;}.cls-4{fill:#c1c6c9;}.cls-5{fill:#c1c6ca;}.cls-6{fill:#c0c4c8;}.cls-7{fill:#bfc4c8;}</style></defs><g id="katman_2" data-name="katman 2"><g id="katman_1-2" data-name="katman 1"><path class="cls-1" d="M0,113.53c.46-15.76,8.78-33.24,22.56-48.4a12.54,12.54,0,0,1,1.38-1.44c3.16-2.49,4.92-6.86,9.24-7.59,1.29-.22.52,14.71-1.37,17.11a68.15,68.15,0,0,0-13.26,27.1c-6.34,27.28,9.43,55.82,35,62.19,16.89,4.21,31.7-3.88,42.36-15.47,1.24-1.35.8-2.31-.28-3.38-1.79-1.75-3.34-3.79-5.33-5.26-3.94-2.92-3.23-5.75-.64-9.12,1.56-2,2.68-2,4.28-.23,2.1,2.37,4.28,4.65,6.46,6.94,1.62,1.72,3,3.51,5.65.92s1.17-3.85-.64-5.58c-2.76-2.65-5.47-5.36-8.1-8.14-1.69-1.8.57-8.66,2.93-9.08,1.16-.2,1.7.86,2.37,1.53,3.3,3.29,6.65,6.54,9.84,9.93,1.56,1.65,2.75,2,4.5.2s2.32-2.92.22-4.87c-3.78-3.5-7.26-7.33-11-10.9-4.06-3.92.6-6,2-8.23,1.73-2.73,3,.47,4,1.44,3.89,3.63,7.69,7.37,11.3,11.28,2,2.13,3.15,1.38,4.86-.22,1.91-1.79,1.3-2.92-.25-4.47-4.35-4.34-8.38-9-12.92-13.18-4-3.62-.16-5.73,1.34-7.88,2.33-3.37,3.59.35,4.8,1.48,4.5,4.2,8.78,8.63,13.11,13,1.38,1.39,2.57,2.71,4.39.46,1.45-1.79,2.72-3.16.36-5.39C134,93.37,129.1,88.14,124,83.16c-1.72-1.67-2-2.89-.56-5,5.1-7.39,10-14.95,14.89-22.46,1.7-2.59,4.44-4,6.67-6,1.19-1.07,2-.52,2.95.41,6.57,6.62,13.11,13.26,19.74,19.8,2.12,2.09.92,3.4-.63,4.93-4.38,4.33-8.63,8.79-13.08,13.05-1.87,1.78-2,3,0,4.81q5.64,5.3,10.91,11c2,2.18,3.44,1.76,5.29-.19,4.14-4.33,8.53-8.43,12.62-12.8,1.86-2,3-2.3,5.09-.13q9.12,9.59,18.66,18.76c2,1.88,2.13,3.2.49,5.41a36,36,0,0,1-9.63,8.54c-5.42,3.56-11,7-16.12,10.9-3.3,2.5-5.3,1.88-7.84-1-4.17-4.74-8.74-9.13-13.1-13.71-1.63-1.71-2.89-2.89-5.28-.64-2.6,2.45-1.31,3.79.53,5.58,4.29,4.18,8.57,8.39,12.65,12.77,1,1.13,4.45,2.43,1.45,4.48-2.27,1.56-4.48,5.77-8.27,1.54s-8-8-11.93-12.07c-1.64-1.67-2.75-3.53-5.46-.78s-.55,3.93,1,5.5c3.36,3.47,6.87,6.8,10.08,10.4,1,1.09,4.56,2.32,1.21,4.37-2.23,1.36-4.19,5.62-7.83,1.63-3.37-3.68-7.09-7-10.5-10.68-1.67-1.78-2.84-2.3-4.79-.24-1.71,1.83-2,3,0,4.79,3.18,2.93,6.17,6.07,9.11,9.24,1,1.11,3.9,2.51.89,4.06-2.18,1.13-3.76,5.71-7.36,2.08-2.58-2.6-5.08-5.28-7.78-7.76-1.56-1.43-2.55-4.58-5.8-1.44-3.45,3.34-.1,4.45,1.42,6.17,1.76,2,3.81,3.73,5.56,5.73,1,1.13,3.95,2.45,1,4.06-2.21,1.2-3.94,5.51-7.49,2.17a88.35,88.35,0,0,1-6.65-6.76c-1.86-2.17-3.1-2-5.07,0a77,77,0,0,1-22.14,15.92c-25.65,12.41-55,3.83-72.56-17.08C4.83,149,0,134.76,0,113.53Z"/><path class="cls-2" d="M131.53,53.44c-1.86-6,2.81-9.85,2.21-15.06-.8-7-.73-7.59-7.91-7.6a38.66,38.66,0,0,0-5.49,0c-4.36.61-6.65-.9-6.27-5.54.25-3-1.51-3.86-4-3.43-3.85.67-5.21-1.09-5-4.65s-1.36-4.63-4.81-4.49c-6,.25-12,.18-18,0-3-.07-4.76.55-4.7,4,.06,3.63-1.2,5.94-5.61,5.16-3.71-.66-4,2.12-3.77,4.77.3,3.32-1.1,4.4-4.31,4.17s-6.32,0-9.48-.06c-3.71-.05-5,1.62-5.46,5.41-.83,6.59,3.68,12.45,2.17,18.86A63.65,63.65,0,0,0,49,72.42c.14,3.69,1.19,5.43,5.23,5.42,12.56,0,12.56.09,12.56-12.39V59c0-1.68-.21-3.51,2.39-3.38,2.29.11,2,1.82,2,3.27,0,5,0,10,0,15,0,1.74-.51,4,2.46,3.82,2.63-.11,2.09-2.11,2.1-3.67.05-5,0-10,0-15,0-1.63-.35-3.56,2.32-3.43,2.28.11,2,1.81,2,3.27q0,7.74,0,15.48c0,1.73-.07,3.48,2.48,3.32,2.25-.13,2-1.81,2-3.28,0-4.66-.12-9.32.08-14,.08-1.76-1.66-4.94,2.22-4.78,3.66.15,2,3.25,2.06,5,.24,4.48.06,9,.09,13.47,0,1.6-.39,3.54,2.23,3.54s2.28-1.89,2.29-3.52c0-5,0-10,0-15,0-1.58-.68-3.51,2-3.61s2.3,1.78,2.31,3.41c0,5.16,0,10.32,0,15.48,0,1.48-.21,3.12,2.08,3.19s2.23-1.52,2.23-3c0-5.15,0-10.31,0-15.47,0-1.64-.25-3.49,2.3-3.56s2.33,1.76,2.33,3.43c0,5.16,0,10.32,0,15.47,0,1.48-.2,3.15,2.1,3.17s2.09-1.66,2.1-3.13c0-5.15,0-10.31,0-15.47,0-1.66-.3-3.46,2.3-3.49s2.36,1.73,2.36,3.41c0,5.49.1,11,0,16.48a12.28,12.28,0,0,1-12,11.69q-26.71,0-53.43,0C42.7,87.09,40,84.45,40,76.92Q40,45.47,40,14c0-7.61,2.53-10.2,10.2-10.21q41.19-.08,82.39,0c7.27,0,9.61,2.46,9.61,9.6,0,8.32-.2,16.64,0,25,.1,3.5-.69,6.1-3.75,8C135.81,48,133.88,50.45,131.53,53.44Z"/><path class="cls-3" d="M202.32,33.72c.87.79,1.64,1.41,2.32,2.11,5.75,6,11.44,12.05,17.25,18,1.47,1.51,1.64,2.47.05,4-6.77,6.63-13.49,13.32-20.09,20.12-2.09,2.15-4,1.4-5.71,0-3.17-2.59-5.23-1.61-7.76,1.16C183.46,84.54,178,89.5,173,94.78c-2.07,2.16-3.42,2.85-6,.28-6.65-6.76-6.8-6.62-.08-13.34,4.12-4.12,8.07-8.41,12.39-12.3,2.65-2.4,3-4.66.81-7.24-2.69-3.14-1.65-5.22,1.1-7.79,6.3-5.91,12.27-12.18,18.38-18.29C200.45,35.29,201.35,34.58,202.32,33.72Z"/><path class="cls-3" d="M193.14,81.53a8.12,8.12,0,0,1,2.16,1.09C199.36,86.54,202,84.21,205,81c6.12-6.57,12.66-12.74,18.93-19.17,2.21-2.27,4-3.51,6.18,0,2,3.35,4.14,2.9,6.65.2,4.19-4.51,8.63-8.78,13-13.11,3.19-3.14,4.12.85,5.83,2s2.36,2.06.34,4.21c-14.81,15.75-30.51,30.61-45.49,46.18-3,3.09-4.66,3-7.39-.09-4.09-4.59-8.65-8.75-12.95-13.16-.81-.83-2.62-1.59-1.23-3.18C190,83.57,191.05,81.91,193.14,81.53Z"/><path class="cls-3" d="M210.09,6c-.87,1.07-1.52,2-2.31,2.84-3.95,4-7.8,8.18-12,12-2.56,2.33-2.92,4.1,0,6.15,3.36,2.34,2.76,4.32,0,7-6.87,6.51-13.31,13.47-20.18,20-2.54,2.4-3,4.34-1,7.19,1.23,1.8,2.82,3.71.19,6.05-2.18,1.93-3.23,2.39-5.43-.23a168.29,168.29,0,0,0-12.87-13.17c-2-2-2.6-3.13-.24-5.49C171.51,33,186.55,17.54,201.72,2.19c.88-.89,1.64-3.16,3.47-1.73A14.82,14.82,0,0,1,210.09,6Z"/><path class="cls-4" d="M241.82,37.34a20.49,20.49,0,0,1-1.58,2Q234.44,45.23,228.57,51c-1.13,1.12-2.34,2-3.85.58s-.77-2.67.4-3.85l12-12c.73-.73,1.55-1.46,2.58-.69A17.74,17.74,0,0,1,241.82,37.34Z"/><path class="cls-5" d="M247.69,44.31a6.92,6.92,0,0,1-.88,1.39c-4.09,4.15-8.22,8.26-12.3,12.42-1.14,1.16-2.15,1.34-3.38.09S229.8,56,231,54.82c4.14-4.09,8.24-8.23,12.37-12.34.89-.88,1.9-1.4,3.11-.56A2.5,2.5,0,0,1,247.69,44.31Z"/><path class="cls-6" d="M207.62,33.37a2.34,2.34,0,0,1-2.12-1,1.56,1.56,0,0,1,.19-2.22q6.44-6.88,12.92-13.73c1.08-1.13,2.07-.54,3,.38.74.74,1.49,1.68.62,2.57-4.5,4.62-9.09,9.16-13.67,13.71A2.65,2.65,0,0,1,207.62,33.37Z"/><path class="cls-6" d="M236,30.28c-1.06,1.34-1.5,2-2.06,2.58q-6,6-12,11.93c-.92.91-1.87,2.13-3.31.7-1.2-1.21-.86-2.41.2-3.48q6.1-6.19,12.25-12.37c.73-.74,1.5-1.32,2.59-.67Z"/><path class="cls-7" d="M216.23,10.93a3.74,3.74,0,0,1-1.6,3.22c-3.72,3.79-7.47,7.54-11.21,11.3-1,1.07-2,2.36-3.62.61s-.39-2.67.68-3.75Q206.09,16.66,211.7,11c.8-.79,1.55-1.88,2.94-1.09C215.36,10.34,216.05,10.81,216.23,10.93Z"/><path class="cls-7" d="M228.6,24.32c0,1.58-14,15.26-15.15,15-1.83-.36-2.08-1.62-1.09-2.92A111.41,111.41,0,0,1,224.92,23a1.91,1.91,0,0,1,2.71,0A6.1,6.1,0,0,1,228.6,24.32Z"/></g></g></svg>