<svg xmlns="http://www.w3.org/2000/svg" viewBox="0 0 92.1 58.96"><defs><style>.cls-1{fill:#17a5e9;}</style></defs><g id="katman_2" data-name="katman 2"><g id="katman_1-2" data-name="katman 1"><path class="cls-1" d="M92.1,58.25a1.84,1.84,0,0,1-1.63.71Q46,58.93,1.62,59C.32,59,0,58.61,0,57.28c0-1.67,0-1.67,1.69-1.67H36.94c.48,0,.91,0,1.2.52a1.29,1.29,0,0,0,1.25.56H52.7c.42,0,.92,0,1.13-.42.4-.72,1-.66,1.68-.66H91.12c.33,0,.65,0,1-.06Z"/><path class="cls-1" d="M86.1,3.54C86.1,1,85.1,0,82.56,0H9.64C7,0,6,1,6,3.61V49.92c0,2.6,1,3.57,3.58,3.57H82.51c2.62,0,3.59-1,3.59-3.56ZM83.68,49.89c0,1.19,0,1.19-1.16,1.19H9.58c-1.16,0-1.16,0-1.16-1.2V3.66c0-1.24,0-1.24,1.3-1.24H82.38c1.3,0,1.3,0,1.3,1.24Z"/><path class="cls-1" d="M65.61,15.3a2.64,2.64,0,0,1-.66.86L46.36,34.75a1.21,1.21,0,0,1-1.33.4,1.28,1.28,0,0,1-.49-.34C41.93,32.2,39.32,29.6,36.72,27a1.13,1.13,0,1,1,1.59-1.58l6.9,6.9c.18.18.26.16.43,0l17.9-17.9A1.18,1.18,0,0,1,65,14a1.39,1.39,0,0,1,.66.77Z"/></g></g></svg>