<svg xmlns="http://www.w3.org/2000/svg" viewBox="0 0 92.1 58.96"><defs><style>.cls-1{fill:#17a5e9;}</style></defs><g id="katman_2" data-name="katman 2"><g id="katman_1-2" data-name="katman 1"><path class="cls-1" d="M92.1,58.25a1.84,1.84,0,0,1-1.63.71Q46,58.93,1.62,59C.32,59,0,58.61,0,57.28c0-1.67,0-1.67,1.69-1.67H36.94c.48,0,.91,0,1.2.52a1.29,1.29,0,0,0,1.25.56H52.7c.42,0,.92,0,1.13-.42.4-.72,1-.66,1.68-.66H91.12c.33,0,.65,0,1-.06Z"/><path class="cls-1" d="M86.1,3.54C86.1,1,85.1,0,82.56,0H9.64C7,0,6,1,6,3.61V49.92c0,2.6,1,3.57,3.58,3.57H82.51c2.62,0,3.59-1,3.59-3.56ZM83.68,49.89c0,1.19,0,1.19-1.16,1.19H9.58c-1.16,0-1.16,0-1.16-1.2V3.66c0-1.24,0-1.24,1.3-1.24H82.38c1.3,0,1.3,0,1.3,1.24Z"/><path class="cls-1" d="M62.62,31.41,59.7,29.13a.42.42,0,0,1-.2-.43,11.55,11.55,0,0,0,0-2.2.43.43,0,0,1,.2-.44c1-.74,1.93-1.5,2.89-2.25a1.65,1.65,0,0,0,.48-2.37C62,19.57,60.9,17.7,59.82,15.82a1.63,1.63,0,0,0-2.25-.77l-3.46,1.39a.41.41,0,0,1-.45,0,12.26,12.26,0,0,0-1.89-1.1.43.43,0,0,1-.27-.36c-.17-1.23-.36-2.47-.53-3.7a1.61,1.61,0,0,0-1.75-1.56H42.64a1.63,1.63,0,0,0-1.76,1.56c-.17,1.24-.36,2.49-.53,3.73a.35.35,0,0,1-.23.31A13.17,13.17,0,0,0,38.2,16.4a.41.41,0,0,1-.45,0L34.26,15a1.6,1.6,0,0,0-2.2.75l-3.28,5.69a1.63,1.63,0,0,0,.47,2.33c1,.75,1.93,1.51,2.9,2.25a.49.49,0,0,1,.21.47,10.83,10.83,0,0,0,0,2.13.48.48,0,0,1-.22.49l-2.9,2.26a1.64,1.64,0,0,0-.46,2.34l3.27,5.65a1.63,1.63,0,0,0,2.23.76l3.46-1.39a.43.43,0,0,1,.47.05,12.85,12.85,0,0,0,1.9,1.1.37.37,0,0,1,.24.33c.15,1.09.31,2.17.47,3.26a7.08,7.08,0,0,0,.16.92,1.76,1.76,0,0,0,1.17,1.1h7.56a2,2,0,0,0,1.33-2c.12-1.11.31-2.21.46-3.32a.4.4,0,0,1,.24-.34,11.64,11.64,0,0,0,1.9-1.11.42.42,0,0,1,.47,0l3.46,1.39a1.61,1.61,0,0,0,2.23-.75c1.09-1.89,2.19-3.78,3.28-5.68A1.63,1.63,0,0,0,62.62,31.41ZM61.76,33q-1.66,2.78-3.3,5.56c-.12.21-.22.23-.43.14-1.26-.52-2.53-1-3.78-1.53a1,1,0,0,0-1.11.13,11,11,0,0,1-2.47,1.43.87.87,0,0,0-.57.73c-.22,1.39-.46,2.78-.67,4.17,0,.27-.12.38-.43.37-2.08,0-4.15-.06-6.23-.07-.28,0-.39-.05-.43-.37-.18-1.36-.39-2.72-.58-4.08a.87.87,0,0,0-.56-.74,11.72,11.72,0,0,1-2.56-1.49.94.94,0,0,0-1-.1l-4,1.51c-.21.08-.3,0-.4-.15-1.06-1.84-2.12-3.69-3.2-5.53-.12-.21-.08-.31.1-.45,1.11-.85,2.2-1.72,3.31-2.58a.84.84,0,0,0,.4-.9,11.73,11.73,0,0,1,0-3,.94.94,0,0,0-.4-.91c-1.09-.87-2.17-1.77-3.26-2.64-.21-.17-.22-.28-.09-.51q1.62-2.68,3.21-5.4c.13-.24.25-.29.51-.18,1.23.51,2.48,1,3.71,1.51a1.07,1.07,0,0,0,1.17-.15,10.23,10.23,0,0,1,2.38-1.37,1,1,0,0,0,.64-.83c.21-1.36.45-2.72.65-4.07,0-.32.15-.41.48-.41,2.07.05,4.15.06,6.22.08.25,0,.36,0,.4.33.17,1.38.39,2.75.58,4.12a.87.87,0,0,0,.58.75,10.94,10.94,0,0,1,2.5,1.45,1,1,0,0,0,1,.13l4-1.51c.21-.08.3-.05.41.14,1.05,1.85,2.12,3.69,3.19,5.53a.29.29,0,0,1-.09.45c-1.08.84-2.15,1.69-3.23,2.51A1,1,0,0,0,58,26.21,10.73,10.73,0,0,1,58,29a1,1,0,0,0,.42,1c1.1.84,2.19,1.71,3.29,2.56C61.87,32.71,61.89,32.82,61.76,33Z"/><path class="cls-1" d="M46,20.13A7.47,7.47,0,1,0,53.4,27.6,7.5,7.5,0,0,0,46,20.13Zm0,13.43a6,6,0,1,1,6-5.94A6,6,0,0,1,45.92,33.56Z"/></g></g></svg>