<svg xmlns="http://www.w3.org/2000/svg" viewBox="0 0 52.73 51.98"><defs><style>.cls-1{fill:#19a5e8;}.cls-2{fill:#1aa5e8;}.cls-3{fill:#18a5e8;}.cls-4{fill:#17a4e8;}</style></defs><g id="katman_2" data-name="katman 2"><g id="katman_1-2" data-name="katman 1"><path class="cls-1" d="M13.1,16.63a7.53,7.53,0,0,0-.95,0c-.94.14-1.27-.19-1.24-1.18,0-.84.26-1.1,1.08-1a15.15,15.15,0,0,0,2.52,0c1-.09.82.56.84,1.14s0,1.21-.89,1.09A10.29,10.29,0,0,0,13.1,16.63Z"/><path class="cls-1" d="M39.38,16.63a7.53,7.53,0,0,0-1,0c-1,.15-1.27-.22-1.22-1.2,0-.73.14-1.09,1-1a22.27,22.27,0,0,0,2.83,0c.77,0,.67.52.6.93s.44,1.23-.56,1.27C40.5,16.64,39.94,16.63,39.38,16.63Z"/><path class="cls-1" d="M6.6,16.63H5.86c-1.58,0-1.65-.09-1.48-1.64,0-.38.15-.57.55-.56,1.09,0,2.17,0,3.25,0,.77,0,.63.53.59.94s.36,1.22-.6,1.26c-.53,0-1,0-1.57,0Z"/><path class="cls-1" d="M32.9,14.43h.84c1.3,0,1.66.5,1.33,1.77-.1.37-.32.42-.61.42H31.31c-1,0-.57-.76-.62-1.22s-.19-1,.64-1C31.85,14.46,32.38,14.43,32.9,14.43Z"/><path class="cls-1" d="M46.06,16.63a9.2,9.2,0,0,0-1.05,0c-.94.13-1.3-.2-1.24-1.2,0-.73.14-1.09,1-1a14.33,14.33,0,0,0,2.62,0c1-.09.81.56.84,1.14s0,1.21-.89,1.09A8.82,8.82,0,0,0,46.06,16.63Z"/><path class="cls-1" d="M19.78,14.43a7.35,7.35,0,0,0,1,0c.9-.13,1.1.26,1.1,1.11s-.28,1.16-1.14,1.1a21.18,21.18,0,0,0-2.52,0c-1,0-.69-.72-.75-1.24s0-1.06.8-1A11.85,11.85,0,0,0,19.78,14.43Z"/><path class="cls-2" d="M6.62,45a8.83,8.83,0,0,0-1.15,0c-.88.12-1.11-.23-1.12-1.1s.3-1.16,1.15-1.08a18.82,18.82,0,0,0,2,0c1.21,0,1.68.69,1.28,1.82-.11.32-.33.32-.57.33Z"/><path class="cls-1" d="M13.17,42.81a5.9,5.9,0,0,0,.94,0c1-.17,1.34.26,1.26,1.27,0,.64-.16,1-.88.91a19.13,19.13,0,0,0-2.73,0c-1,.07-.78-.6-.82-1.17s0-1.11.86-1A12.5,12.5,0,0,0,13.17,42.81Z"/><path class="cls-1" d="M19.7,42.8a6,6,0,0,0,1,0c1-.17,1.21.34,1.19,1.24,0,.71-.2,1-.95,1-.94-.06-1.88,0-2.82,0s-.65-.57-.63-1-.32-1.14.6-1.15Z"/><path class="cls-2" d="M32.84,45a5.9,5.9,0,0,0-.94,0c-1,.17-1.32-.28-1.25-1.27,0-.67.19-.94.89-.9a20.73,20.73,0,0,0,2.73,0c.9-.06.83.5.81,1.07s.17,1.2-.77,1.11C33.83,44.93,33.33,45,32.84,45Z"/><path class="cls-1" d="M39.37,45a5.87,5.87,0,0,0-.94,0c-1,.15-1.27-.25-1.22-1.21,0-.69.16-1,.93-1,.94.06,1.89,0,2.84,0s.6.73.65,1.2.11,1-.69,1C40.42,44.93,39.89,45,39.37,45Z"/><path class="cls-2" d="M45.94,45a7.35,7.35,0,0,0-1,0c-.87.12-1.12-.22-1.12-1.09s.29-1.17,1.14-1.09a18.87,18.87,0,0,0,2,0c1.22,0,1.69.69,1.28,1.82-.11.32-.32.33-.56.33Z"/><path class="cls-1" d="M26.28,16.61h-.83c-1.29,0-1.67-.54-1.33-1.79.1-.38.33-.39.62-.39h3.13c.84,0,.6.61.59,1s.28,1.14-.61,1.15Z"/><path class="cls-1" d="M26.31,42.8a7.36,7.36,0,0,0,1.05,0c.85-.11,1.15.19,1.15,1.09s-.25,1.18-1.13,1.11a25.62,25.62,0,0,0-2.63,0c-.82,0-.65-.57-.63-1s-.3-1.15.61-1.15Z"/><path class="cls-3" d="M42.7,34.05a3.27,3.27,0,0,1-3.26-3.28,3.34,3.34,0,0,1,3.31-3.26A3.39,3.39,0,0,1,46,30.82,3.32,3.32,0,0,1,42.7,34.05Z"/><path class="cls-4" d="M52.68,16a7.33,7.33,0,0,0-1.55-5,7.08,7.08,0,0,0-3.36-2.61c-2.18-.54-2.83-1.88-3-4A4.89,4.89,0,0,0,40.43,0a13.16,13.16,0,0,0-4.19.32c-3.46.86-6.93,1.73-10.4,2.56C19.6,4.41,13.41,6.06,7.17,7.53c-4,1-6.74,3.15-7.17,7.53V44.3c.27,1,.15,2.11.72,3,1.77,2.81,4.2,4.61,7.64,4.62,11.91,0,23.82,0,35.74,0,3.74,0,8.71-3.26,8.63-8.59C52.59,34.25,52.7,25.1,52.68,16ZM24.28,6.08,38,2.68c2.56-.63,4,.38,4.26,3,.22,2.24.22,2.24-2.08,2.24H17.76l0-.17Zm25,40.34a6.51,6.51,0,0,1-5.64,2.91c-5.78,0-11.57,0-17.35,0h-17c-4.27,0-7-2.65-7.06-6.91Q2.13,29.71,2.2,17c0-4.22,2.73-6.89,7-6.91q17.14,0,34.28,0c4.22,0,6.87,2.69,7,6.92,0,1.05,0,2.1,0,3.15,0,.64-.18.85-.83.84-1.85,0-3.71,0-5.57,0a9.82,9.82,0,1,0-.07,19.64c1.86,0,3.71,0,5.57,0,.67,0,.92.17.91.89A8.27,8.27,0,0,1,49.28,46.42Zm.06-8c-2-.06-3.92,0-5.88-.05a7.6,7.6,0,0,1-.16-15.17c2.1-.11,4.21,0,6.31-.07.69,0,.81.3.8.89,0,2.27,0,4.55,0,6.83s0,4.35,0,6.52C50.44,38.25,50.16,38.47,49.34,38.45Z"/></g></g></svg>