<svg xmlns="http://www.w3.org/2000/svg" viewBox="0 0 34.12 52.2"><defs><style>.cls-1{fill:#17a4e8;}.cls-2{fill:#18a5e8;}</style></defs><g id="katman_2" data-name="katman 2"><g id="katman_1-2" data-name="katman 1"><path class="cls-1" d="M11,52.2c-1.24-1.9-2.37-3.59-3.44-5.31a.94.94,0,0,0-1.33-.5c-1.94.64-3.92,1.21-6,1.85,1-2.9,2-5.65,3-8.41.64-1.78,1.29-3.55,1.94-5.33.47-1.28.47-1.28,2.14-1.28L2.76,45.69a2.56,2.56,0,0,0,2.58-2c1-3,2.14-6,3.3-9.2.38.78.71,1.37,1,2s.47.57,1,.33c.94-.46,1.91-.85,2.86-1.31a.64.64,0,0,1,.91.17.46.46,0,0,0,.07.07c1.87,1.73,1.87,1.73,1,4.13Z"/><path class="cls-1" d="M23.23,52.2,18.12,38.11c-.35-1,.61-1.09,1-1.79l4.45,12.25c.83-.93,1.31-1.71.78-3-1.21-2.94-2.21-6-3.29-9-.11-.29-.21-.57-.39-1.08,1.11.5,2,.88,2.92,1.32.5.25.74.16,1-.35.4-.93.89-1.82,1.28-2.76a.81.81,0,0,1,1.06-.57c.65.18,1.53-.29,1.89.7q2.45,6.77,4.9,13.52c.28.76-.06.76-.64.58-1.6-.5-3.23-.92-4.81-1.49-.91-.34-1.33-.1-1.8.7C25.49,48.82,24.4,50.4,23.23,52.2Z"/><path class="cls-1" d="M33.84,19.64a5.43,5.43,0,0,1-1.42-2.29c-.1-.88.86-1.6,1.4-2.36.42-.6.38-.9-.24-1.29S31.76,12.76,31.5,12s.22-1.75.51-2.6,0-1.11-.74-1.19c-2-.2-3.11-1.11-2.84-3.28.11-.87-.26-1.16-1.22-1.08-2.58.22-2.61.18-3.68-2.18-.33-.72-.61-.9-1.38-.54-2.43,1.16-2.47,1.16-4.3-.72-.63-.64-1-.57-1.55,0-1.81,1.85-1.85,1.86-4.22.71C11.3.83,11,1,10.63,1.74,9.59,4.07,9.55,4.05,7,3.92c-.11,0-.21,0-.32,0-.67-.15-1,.12-.93.8C6,6.93,5,8.13,2.76,8.29c-.64.05-.91.39-.61,1,1,2.1.46,3.6-1.68,4.54-.56.25-.6.63-.16,1,1.79,1.67,1.59,3.3-.06,4.93-.42.42-.28.73.2.95,2.15,1,2.77,2.47,1.68,4.62-.23.45-.12.84.48.88C5,26.41,6,27.68,5.8,30c-.06.62.24.72.82.65a5.61,5.61,0,0,1,2.78-.07c.78.36.89,1.59,1.34,2.42a1.51,1.51,0,0,1,.09.18c.15.5.46.61.85.31,2-1.48,3.65-1.12,5,.92.25.37.49.37.82,0,.7-.73,1.36-1.78,2.22-2s1.82.69,2.75,1.07l.1,0c.34.21.58.16.73-.24a9.37,9.37,0,0,1,.4-.85c.95-2,.95-2,3.1-1.84,1.51.08,1.72.07,1.62-1.2-.18-2.19,1-2.84,2.82-3.09.66-.09,1.1-.29.78-1.15s-.81-1.91-.54-2.61,1.36-1.23,2.15-1.74C34.2,20.46,34.27,20.19,33.84,19.64ZM17,28.53a11.26,11.26,0,1,1,11.3-11.27A11.23,11.23,0,0,1,17,28.53Z"/><path class="cls-1" d="M16.11,15.89a6.24,6.24,0,0,1-2,.71.75.75,0,0,1-1-.79c-.07-1-.1-1.9,1.19-2.16a2.19,2.19,0,0,0,1.06-.83c.29-.33.35-.92.91-.94A18.84,18.84,0,0,1,19,12c.41,0,.51.52.51.94q0,5.14,0,10.29a.9.9,0,0,1-1,1l-.21,0c-2.11.14-2.19.07-2.19-2Z"/><path class="cls-2" d="M8.69,17.27A8.58,8.58,0,0,0,9.57,21c.2.43.61.95,0,1.26s-.79-.4-1-.8a9.53,9.53,0,0,1,14.9-11.34c.33.3.81.62.38,1.11s-.8,0-1.13-.26a8.4,8.4,0,0,0-13.8,4.5A15,15,0,0,0,8.69,17.27Z"/></g></g></svg>