<svg xmlns="http://www.w3.org/2000/svg" viewBox="0 0 45.54 51.61"><defs><style>.cls-1{fill:#1da7e9;}.cls-2{fill:#1ea7e9;}.cls-3{fill:#1ba6e9;}.cls-4{fill:#21a8e9;}.cls-5{fill:#1ca6e9;}.cls-6{fill:#1fa8e9;}.cls-7{fill:#1aa6e8;}.cls-8{fill:#19a5e8;}.cls-9{fill:#1fa7e9;}.cls-10{fill:#23a9e9;}.cls-11{fill:#2eadea;}.cls-12{fill:#17a4e8;}.cls-13{fill:#20a8e9;}</style></defs><g id="katman_2" data-name="katman 2"><g id="katman_1-2" data-name="katman 1"><path class="cls-1" d="M40.63,29c0,.42-.06.69-.39.73s-.5-.24-.52-.53a3.83,3.83,0,0,0-3.83-3.82c-.3,0-.61-.13-.55-.49s.45-.37.76-.37A5,5,0,0,1,40.63,29Z"/><path class="cls-1" d="M5.14,28.91a4.92,4.92,0,0,1,4.34-4.39c.33,0,.8-.1.88.34s-.37.47-.71.53C7.35,25.8,6.41,26.75,6,29c-.06.33-.11.65-.5.69S5.12,29.51,5.14,28.91Z"/><path class="cls-2" d="M12.62,10.25c.56.09,1.61-.3,1.58.83s-1,.73-1.72.79a5.9,5.9,0,0,1-.94,0c-.5,0-.9-.27-.88-.83s.4-.78.92-.79Z"/><path class="cls-3" d="M32.31,18.85a.78.78,0,0,1-1.24.58,10.34,10.34,0,0,1-1.64-1.6A.75.75,0,0,1,30,16.61C30.54,16.59,32.33,18.33,32.31,18.85Z"/><path class="cls-4" d="M23.67,1.84v.41c0,.61-.08,1.19-.83,1.18S22,2.82,22,2.22c0-.41,0-.83,0-1.25s.24-1,.83-1,.81.45.8,1Z"/><path class="cls-5" d="M15.54,6.42a4.7,4.7,0,0,1-2.2-2.2.72.72,0,0,1,.4-.68.75.75,0,0,1,.88.09c.53.5,1.05,1,1.56,1.54a.69.69,0,0,1,.06.87A.77.77,0,0,1,15.54,6.42Z"/><path class="cls-6" d="M33.2,10.24c.71.08,1.74-.26,1.77.79s-1,.86-1.69.83-1.79.35-1.82-.78S32.55,10.37,33.2,10.24Z"/><path class="cls-7" d="M30.18,6.42c-.77,0-1.16-.69-.76-1.19A13,13,0,0,1,31,3.62a.69.69,0,0,1,1,.09.65.65,0,0,1,0,1C31.44,5.34,30.94,6.13,30.18,6.42Z"/><path class="cls-8" d="M16.33,17.07c0,.81-1.72,2.55-2.26,2.52a.74.74,0,0,1-.65-.44.72.72,0,0,1,.14-.87c.48-.49,1-1,1.48-1.46a.72.72,0,0,1,.87-.12A.9.9,0,0,1,16.33,17.07Z"/><path class="cls-9" d="M30.23,25.36c-.45,0-.9,0-1.35,0a.43.43,0,0,1-.44-.37.41.41,0,0,1,.45-.46c1,0,2,0,3,0a.4.4,0,0,1,.4.41.39.39,0,0,1-.4.39c-.56,0-1.11,0-1.67,0Z"/><path class="cls-10" d="M13,24.51c.39,0,.77,0,.74.45s-.39.43-.72.42-.69-.07-.67-.47S12.8,24.54,13,24.51Z"/><path class="cls-11" d="M34.4,24.94a.52.52,0,0,1-.62.42c-.28,0-.47-.19-.42-.49s.28-.37.55-.35S34.37,24.65,34.4,24.94Z"/><path class="cls-12" d="M45.49,49.44A24.84,24.84,0,0,1,45,46.76,3.46,3.46,0,0,0,43.12,44a14.38,14.38,0,0,0-3.19-1.34c-.81-.26-.91-.75-.35-1.32a7,7,0,0,0,1.75-4.3c.33-2.88-.46-4.25-3-5.4a.69.69,0,0,1-.49-.58c-.53-2.92-1.83-4-4.78-4-2.48,0-5,0-7.61,0a5,5,0,0,0,.72-3.54,1.41,1.41,0,0,1,.7-1.48c.52-.28,1-1,.29-1.33-1.14-.55-.69-1.27-.46-2a24.91,24.91,0,0,1,2-3.57,6.19,6.19,0,0,0-.54-7.1,6.24,6.24,0,0,0-6.83-2.39,6.32,6.32,0,0,0-4.95,5.15,6.45,6.45,0,0,0,1,4.91,12.19,12.19,0,0,1,1.82,3.64c.08.36.33.77-.18,1.1-.89.59-.92,1,0,1.62a1.24,1.24,0,0,1,.6,1.21,5.77,5.77,0,0,0,.68,3.76H19c-2.32,0-4.63,0-6.94,0a4.05,4.05,0,0,0-4.35,3.8.88.88,0,0,1-.72.85A4,4,0,0,0,4.23,35a7.76,7.76,0,0,0,1.68,6.3c.64.74.55,1.11-.39,1.42a13,13,0,0,0-3.44,1.53A3,3,0,0,0,.71,46C.47,47.24.25,48.45,0,49.65a.74.74,0,0,0,.61.94A.71.71,0,0,0,1.5,50a6,6,0,0,0,.33-1.64c0-2.42,1.46-3.46,3.53-4l.4-.12a2.86,2.86,0,0,0,2-1.53.81.81,0,0,1,1.46,0,2.71,2.71,0,0,0,2,1.57,18.33,18.33,0,0,1,1.87.7c.28.11.41.24.32.63-.37,1.6-.67,3.21-1,4.82-.12.54-.07,1,.53,1.18s.87-.3,1-.84c.24-1.23.55-2.46.71-3.71a2.48,2.48,0,0,1,1.26-1.93,15.38,15.38,0,0,1,3.67-1.55,3,3,0,0,0,2.24-2c.27-.84,1-.12,1.53-.38.29-.15.5,0,.58.38a2.57,2.57,0,0,0,2.09,2,14.08,14.08,0,0,1,3.67,1.54A2.6,2.6,0,0,1,30.93,47c.17,1.24.5,2.46.78,3.69.13.56.39,1.07,1.06.87s.6-.65.45-1.21c-.28-1-.51-2.11-.7-3.17-.39-2.27-.37-2.28,1.88-3a2.49,2.49,0,0,0,1.87-1.38c.18-.5.49-.48.89-.51s.61.16.76.53a2.18,2.18,0,0,0,1.56,1.29,13.61,13.61,0,0,1,2.73,1.08A2.21,2.21,0,0,1,43.46,47c.11.94.32,1.86.51,2.79.11.48.36.89.94.76S45.61,50,45.49,49.44ZM21.41,11.72a2,2,0,0,1,2.92,0,1.87,1.87,0,0,1-.15,2.79,1.56,1.56,0,0,0-.7,1.59c0,.7,0,1.4,0,2.1v2.52c0,.4.05.76-.55.77s-.65-.36-.64-.82c0-1.44,0-2.87,0-4.31a1.85,1.85,0,0,0-.78-1.87A1.91,1.91,0,0,1,21.41,11.72Zm2.08,12.52c-.52,0-1,0-1.56,0s-.82-.16-.81-.78.41-.53.83-.5,1.05,0,1.57,0,1.08-.42,1.05.57S24,24.2,23.49,24.24Zm1,1.08c.1.42-.24.7-.6.89a2.38,2.38,0,0,1-1,.2,5.64,5.64,0,0,1-.93-.15c-.42-.14-.81-.43-.73-.9s.58-.23.89-.25a11.75,11.75,0,0,1,1.57,0C24,25.12,24.38,24.92,24.48,25.32ZM8.56,40.77a2.29,2.29,0,0,1-2.25-1.58,8.06,8.06,0,0,1-.62-3.49A2.68,2.68,0,0,1,8.57,33c1.68,0,2.73,1.24,2.7,3.38a8.3,8.3,0,0,1-.6,2.77A2.26,2.26,0,0,1,8.56,40.77Zm11,1.16a19.8,19.8,0,0,0-4.61,2,.49.49,0,0,1-.58,0,18.29,18.29,0,0,0-3.11-1.27c-.66-.22-.78-.73-.31-1.21A7.61,7.61,0,0,0,12.8,35.9,4.06,4.06,0,0,0,10,31.77c-.79-.27-.87-.66-.66-1.32a2.21,2.21,0,0,1,2.09-1.77c2.79-.05,5.58,0,8.59,0-2.72,2.07-3.07,4.41-1.87,8.72a5.91,5.91,0,0,0,1.67,2.75C20.55,40.81,20.44,41.61,19.54,41.93Zm3.24-2.25A2.94,2.94,0,0,1,20,37.82a9.86,9.86,0,0,1-.88-5.21,3.58,3.58,0,0,1,4.07-3.07,3.49,3.49,0,0,1,3.29,3.65,10.87,10.87,0,0,1-.91,4.61A2.93,2.93,0,0,1,22.78,39.68Zm11.49,3a15.83,15.83,0,0,0-3.11,1.26.56.56,0,0,1-.66-.09,17.26,17.26,0,0,0-4.14-1.78c-1.2-.38-1.34-1.14-.51-2.1,2.1-2.42,2.43-5.29,1.92-8.29a5,5,0,0,0-2.34-3h8.28a2.35,2.35,0,0,1,2.34,1.46c.35.78.41,1.35-.67,1.75-2.1.76-3,2.7-2.59,5.37a7,7,0,0,0,1.8,4.17C35.13,41.93,35,42.42,34.27,42.66Zm2.81-1.89a2.33,2.33,0,0,1-2.25-1.72,9.81,9.81,0,0,1-.58-2.91A2.84,2.84,0,0,1,37.08,33a2.77,2.77,0,0,1,2.78,3,8.36,8.36,0,0,1-.6,3.08A2.3,2.3,0,0,1,37.08,40.77Z"/><path class="cls-13" d="M23.7,13.05a.84.84,0,0,1-.81.82.73.73,0,0,1-.84-.74.75.75,0,0,1,.78-.82C23.33,12.28,23.58,12.61,23.7,13.05Z"/></g></g></svg>