<svg xmlns="http://www.w3.org/2000/svg" viewBox="0 0 58.31 58.64"><defs><style>.cls-1{fill:#17a5e9;}</style></defs><g id="katman_2" data-name="katman 2"><g id="katman_1-2" data-name="katman 1"><path class="cls-1" d="M58.29.63c0-.21,0-.42,0-.63h-.34s-.09.08-.14.08L43,2.29c-5.25.79-10.49,1.59-15.73,2.35-.54.08-.62.27-.62.75q0,11.25,0,22.51c0,.51.1.66.64.66q15.18,0,30.37,0c.55,0,.63-.17.63-.66C58.29,18.81,58.3,9.72,58.29.63Zm-2.54,26c-4.44,0-8.87,0-13.3,0s-8.82,0-13.23,0c-.46,0-.56-.13-.56-.57q0-9.54,0-19.08c0-.4.09-.56.5-.62q6-.86,12.06-1.75L54.13,2.69,56,2.41c.24,0,.36,0,.33.28a1.41,1.41,0,0,0,0,.29c0,7.68,0,15.36,0,23C56.34,26.5,56.22,26.6,55.75,26.6Z"/><path class="cls-1" d="M58.31,31.41c0-.47-.11-.59-.59-.59-5.08,0-10.16,0-15.24,0H27.23c-.31,0-.57-.06-.56.44q0,11.11,0,22.24c0,.37.13.46.48.51,3.08.44,6.15.91,9.23,1.37Q47,57,57.71,58.61c.49.07.6,0,.6-.49Q58.28,44.77,58.31,31.41Zm-2,24.53c0,.42-.09.48-.51.42-4.73-.73-9.46-1.43-14.2-2.14L29.17,52.36c-.39-.06-.51-.19-.51-.61q0-9.2,0-18.39c0-.5.15-.58.61-.57H55.8c.41,0,.54.07.54.52Q56.31,44.62,56.33,55.94Z"/><path class="cls-1" d="M24.71,5.37c0-.38-.09-.42-.45-.37-4,.61-8,1.19-12.06,1.78L.59,8.49c-.42.06-.59.18-.59.66q0,9.54,0,19.09c0,.47.06.64.6.64,3.9,0,7.8,0,11.69,0H24.17c.34,0,.54,0,.54-.47Q24.7,16.88,24.71,5.37ZM22.14,26.88q-9.8,0-19.59,0c-.42,0-.58-.07-.58-.54q0-7.77,0-15.53c0-.45.14-.56.56-.62,4.53-.65,9.06-1.33,13.59-2l6.61-1v.52q0,9.28,0,18.57C22.75,26.81,22.59,26.88,22.14,26.88Z"/><path class="cls-1" d="M24.16,30.82c-3.93,0-7.87,0-11.8,0s-7.87,0-11.8,0c-.46,0-.56.13-.55.57q0,9,0,18.1c0,.54.19.65.66.72q3.29.45,6.56.95,8.48,1.25,16.92,2.52c.55.08.57-.08.57-.52q0-10.89,0-21.77C24.71,31,24.62,30.82,24.16,30.82ZM22.75,51c0,.47-.13.49-.55.43Q14.62,50.27,7,49.17c-1.54-.23-3.09-.47-4.64-.68-.3,0-.41-.14-.41-.46Q2,40.6,2,33.19c0-.42.19-.4.48-.4H22.17c.41,0,.58.06.58.54Q22.72,42.15,22.75,51Z"/></g></g></svg>