<svg xmlns="http://www.w3.org/2000/svg" viewBox="0 0 242.76 177.79"><defs><style>.cls-1{fill:#bbe2f2;}.cls-2{fill:#1c31b5;}.cls-3{fill:#009cf8;}.cls-4{fill:#006bde;}.cls-5{fill:#18315b;}.cls-6{fill:#000b29;}.cls-7{fill:#f97853;}.cls-8{fill:#ea5143;}.cls-9{fill:#ffa681;}.cls-10{fill:#fff;}.cls-11{fill:#264cbe;}.cls-12{fill:#e3e3e3;}.cls-13{fill:#1d567e;}</style></defs><g id="katman_2" data-name="katman 2"><g id="katman_1-2" data-name="katman 1"><path class="cls-1" d="M105.34,38.13C97.15,8.43,60.26-1.14,39.11,21.06l-.91,1C7.89,55,22.21,136.18,85.47,156.77s129.07-17,132.77-50.6S192.75,62,147.45,71.41C121.86,76.72,110.44,56.62,105.34,38.13Z"/><path class="cls-1" d="M158,43.21c-8.47,1.38-10.81,8.88-4.28,14.2a20.17,20.17,0,0,0,9.64,3.94c16.74,2.78,25.63-4.62,18.92-14.23C178.1,41.19,166.35,41.84,158,43.21Z"/><path class="cls-1" d="M23,103.22c-5.27-6.77-13-5.24-14.52,3a20.33,20.33,0,0,0,1.15,10.36c5.58,16,16.34,20.28,21.55,9.79C34.42,119.94,28.22,109.93,23,103.22Z"/><path class="cls-1" d="M224.2,110.07c-.78,4.08,2.59,7,6.41,5.4a8.08,8.08,0,0,0,3.67-3.28c4.32-6.72,2.13-12.47-3.88-11.88C226.69,100.67,225,106,224.2,110.07Z"/><path class="cls-1" d="M202.8,67c4.07.85,7-2.48,5.51-6.32A8.09,8.09,0,0,0,205.09,57c-6.64-4.43-12.43-2.35-11.94,3.67C193.45,64.35,198.77,66.16,202.8,67Z"/><path class="cls-1" d="M103.93,23.32c3.22,2.62,7.36,1,7.79-3.08a8,8,0,0,0-1.14-4.79c-3.86-7-10-7.8-12.3-2.23C96.84,16.66,100.73,20.71,103.93,23.32Z"/><path class="cls-2" d="M234.29,130.49c6.46-6.49,11.38-13.83,6.48-15s-13.12,11.64-14.55,23.28l-1.44,3.84c1.19-8.46-1.71-18.77-5.95-19.2s-1.67,6.27,1.68,12A23.55,23.55,0,0,1,223.9,145l-6.77,18.15c1.85-13.41-2.75-29.68-9.46-30.35s-2.65,9.94,2.67,19c4,6.86,5.1,12.28,5.38,15.11l-1.35,3.62,1.77,1,8.06-21.59a26.24,26.24,0,0,1,7.28-3.71c6.28-2.12,12.59-5.5,9.13-7.94-3-2.13-10.07,2-14.94,7.73l2.79-7.47A37.53,37.53,0,0,1,234.29,130.49Z"/><path class="cls-2" d="M30.67,45.78c.84-7.85.19-15.43-3.71-13.56s-2.54,14.9,2.77,23.49l1.11,3.35c-3.76-6.33-11.27-11.69-14.35-9.68s2.26,5.1,7.59,7.14a20.35,20.35,0,0,1,7.44,4.59L36.75,77C30.76,67,18.91,58.5,14,61.67s3.59,8.1,12,11.33a32.45,32.45,0,0,1,11.76,7.25l1,3.16,1.73-.29L34.38,64.27a22.41,22.41,0,0,1,2.9-6.41c3.07-4.81,5.49-10.48,1.84-10.26-3.16.2-5.71,6.75-5.87,13.25L31.1,54.33A32.7,32.7,0,0,1,30.67,45.78Z"/><path class="cls-3" d="M190.69,152.06c.08.45.17.93.28,1.45h0c1.17,5.41,4,14.26,10.45,16,0,0-3.5-18.23,9-23s11.09-9.27,10.38-17.32-3.47-9.59,5.18-17.13,7-18.77,7-18.77-8.18,12.83-16.92,13.12-10.28,7.76-9.9,13.31-7.06,6.18-11.07,9.4-4.78,20.12-4.78,20.12S190.37,150.37,190.69,152.06Z"/><path class="cls-4" d="M190.69,152.06c.08.45.17.93.28,1.45a27.65,27.65,0,0,1,3.34-6.74c2.8-4.15,6.73-7.55,10.27-8.88,5.64-2.13,8.4-7.66,8.93-17.94.31-6,6.55-9.49,6.61-9.52a.38.38,0,1,0-.36-.66c-.27.15-6.67,3.75-7,10.14-.51,9.94-3.11,15.26-8.43,17.27-3.74,1.41-7.71,4.83-10.64,9.16A28.89,28.89,0,0,0,190.69,152.06Z"/><path class="cls-4" d="M52.72,169.41h8.76C56.75,168.63,45,163.59,44,153.49c-1.33-12.79-5.88-12.63-13.56-14s-9.79.85-14.66-9.09S0,119.25,0,119.25s9.91,10.81,8,19,4.68,11.5,9.94,12.54,4,8.1,6,12.64c.92,2.08,4.65,4.23,8.45,5.95Z"/><path class="cls-2" d="M33.75,156.82c.39,3.83,2.59,8.38,5.9,12.18.11.14.23.27.36.41h1l-.8-.88c-3.17-3.64-5.36-8.15-5.72-11.79C33.9,151,29.43,147,20,144c-5.48-1.77-7.21-8.46-7.23-8.53a.37.37,0,1,0-.71.17c.08.3,1.84,7.16,7.71,9C28.89,147.61,33.21,151.36,33.75,156.82Z"/><path class="cls-3" d="M57.45,145.67c-.19.62-.4,1.3-.64,2h0c-2.49,7.53-7.59,20.22-17,21.72,0,0,7.47-26-9.58-34.67s-14.39-14.93-12.14-26.3S24.48,95.3,13.3,83.21,6.21,55.36,6.21,55.36s9.7,19.55,22.13,21.32S41.8,89.33,40.42,97.19s9.11,9.9,14.34,15.11,3.72,29.44,3.72,29.44S58.15,143.3,57.45,145.67Z"/><path class="cls-4" d="M57.45,145.67c-.19.62-.4,1.3-.64,2a39.94,39.94,0,0,0-3.72-10.13c-3.35-6.33-8.45-11.79-13.29-14.24-7.72-3.9-10.8-12.21-10-27,.48-8.56-7.88-14.54-8-14.6a.55.55,0,0,1-.13-.76.54.54,0,0,1,.75-.13c.37.26,9,6.38,8.44,15.55-.8,14.25,2.1,22.25,9.38,25.93,5.11,2.58,10.26,8.08,13.76,14.71A41.39,41.39,0,0,1,57.45,145.67Z"/><path class="cls-5" d="M64.21,163.3c0,2,.06,4,.11,6.11H83.37c0-2.27.06-4.46.08-6.5.06-5.55.07-10.11.06-12.95,0-2,0-3.15,0-3.15l-19.42-.2s0,1.67,0,4.42C64.1,154.08,64.14,158.45,64.21,163.3Z"/><path class="cls-6" d="M64.09,151c0,3.05,0,7.42.12,12.27a95.48,95.48,0,0,0,19.24-.39c.06-5.55.07-10.11.06-12.95Z"/><path class="cls-5" d="M40.2,158.92c0,3.11.06,6.66.12,10.49h19c.05-2.24.09-4.45.12-6.57.07-4.54.1-8.63.12-11.56s0-4.67,0-4.67l-19.43.2s0,2.06,0,5.53C40.18,154.17,40.19,156.4,40.2,158.92Z"/><path class="cls-6" d="M40.18,152.34c0,1.83,0,4.06,0,6.58a118.78,118.78,0,0,0,19.29,3.92c.07-4.54.1-8.63.12-11.56Z"/><path class="cls-5" d="M72.11,44.4s3.06-2.94,3-5.86-2-2-3-4.76-4.21-4.37-6-4-5.38-6.41-10.34-5.22S51.3,32.06,49.17,33s-1.54,4.69-.42,5.55,1.6,4.32,2.24,4.24S72.11,44.4,72.11,44.4Z"/><path class="cls-7" d="M51.51,44.33s-1.92-2.56-3.36-.44.6,8.39,4.1,6.86Z"/><path class="cls-8" d="M51.49,48.81a.3.3,0,0,1-.29-.21,4.57,4.57,0,0,0-2.57-2.73.3.3,0,0,1-.17-.38.29.29,0,0,1,.38-.17,5.07,5.07,0,0,1,2.93,3.12.3.3,0,0,1-.2.36Z"/><path class="cls-8" d="M49.46,47.84a.33.33,0,0,1-.16-.05.29.29,0,0,1-.09-.41,2.78,2.78,0,0,1,1.11-.89.31.31,0,0,1,.4.14.31.31,0,0,1-.15.4,2.09,2.09,0,0,0-.86.67A.3.3,0,0,1,49.46,47.84Z"/><path class="cls-7" d="M71.34,44.33s1.93-2.56,3.36-.44-.59,8.39-4.1,6.86Z"/><path class="cls-8" d="M71.37,48.81a.28.28,0,0,0,.28-.21,4.6,4.6,0,0,1,2.57-2.73.3.3,0,0,0,.17-.38.28.28,0,0,0-.38-.17,5.1,5.1,0,0,0-2.93,3.12.3.3,0,0,0,.21.36Z"/><path class="cls-8" d="M73.39,47.84a.3.3,0,0,0,.16-.05.29.29,0,0,0,.09-.41,2.69,2.69,0,0,0-1.11-.89.3.3,0,0,0-.39.14.3.3,0,0,0,.15.4,2.1,2.1,0,0,1,.85.67A.31.31,0,0,0,73.39,47.84Z"/><path class="cls-9" d="M66.16,56.07V62.3s-1.85,3.17-4.37,3.39S57.05,63,57.05,63V56.5Z"/><path class="cls-7" d="M66.16,56.07v2.76c-1.68,1.87-4.68,2.34-9.11,1.69v-4Z"/><path class="cls-9" d="M72.74,40.06a61.75,61.75,0,0,1-.81,7.87q-.18.91-.39,1.68c-1.32,4.6-4.6,12.47-13.78,9.19-4.06-1.45-5.94-6-6.78-10.56a45.2,45.2,0,0,1-.61-8.53,6.51,6.51,0,0,1,3.3-5.53c5.42-3.08,11.15-1.93,14.91-.48A6.48,6.48,0,0,1,72.74,40.06Z"/><path class="cls-5" d="M51,48.24a48,48,0,0,0,1.73,7.24c.84,1.94,3.14,2.3,4,3.94,1.23,2.33,3.1,4.18,6.19,3.06,2.57-.94,2.46-2.26,3.9-3.27,2.46-1.74,3.68-3.66,3.78-5.25a50.07,50.07,0,0,1,1.33-6l-1.33-.09a33.81,33.81,0,0,1-1.86,3.28c-1.11-2.44-6.48-.67-6.48-.67l-1,.34-1.06-.34s-5.42-1.7-6.5.87A9.83,9.83,0,0,1,52.25,48Zm10.25,3.37c6.15-1,5.05,2.55,5,2.68h0a6,6,0,0,1-1.27,1c-2.38,1.29-2.64,1.1-3.58,1.14a7.13,7.13,0,0,1-3.62-1,10.39,10.39,0,0,1-1.72-1.31S55.09,50.79,61.24,51.61Z"/><path class="cls-5" d="M57.54,45.15c0,.66-.35,1.2-.77,1.2s-.76-.54-.76-1.2.34-1.21.76-1.21S57.54,44.48,57.54,45.15Z"/><path class="cls-5" d="M66.64,45.15c0,.66-.34,1.2-.76,1.2s-.77-.54-.77-1.2.34-1.21.77-1.21S66.64,44.48,66.64,45.15Z"/><path class="cls-5" d="M68.89,41.18s-3.16-1.25-5.6-.2l.24,1.36s3.58-.3,5.38.43A2.35,2.35,0,0,0,68.89,41.18Z"/><path class="cls-5" d="M53.84,41.19S57,39.93,59.49,41l-.25,1.36s-3.6-.3-5.42.43A2.41,2.41,0,0,1,53.84,41.19Z"/><path class="cls-7" d="M61.53,50.2A3.16,3.16,0,0,0,62.6,50a.3.3,0,0,0-.22-.55,1.75,1.75,0,0,1-1.19.11.32.32,0,0,1-.15-.27c-.1-1,.18-4.5.18-4.54A.29.29,0,0,0,61,44.4a.31.31,0,0,0-.32.28,42.65,42.65,0,0,0-.17,4.64.87.87,0,0,0,.43.72A1.17,1.17,0,0,0,61.53,50.2Z"/><path class="cls-10" d="M57.76,52.21a3.53,3.53,0,0,0,3.48,3.21c2.53,0,3.23-1.9,3.48-3.21Z"/><path class="cls-5" d="M72.74,40.06a61.75,61.75,0,0,1-.81,7.87l-1.33-.09s.32-2.05.47-3.38.4-3.82-.73-4.13-.47-3.15-2-4.38-5.09-2.33-7.41-.89-5,.64-6.05.89-2.53,1.72-2.14,3.1-.78,2.23-1.07,3.66.63,5.27.63,5.27L51,48.24a45.2,45.2,0,0,1-.61-8.53,6.51,6.51,0,0,1,3.3-5.53c5.42-3.08,11.15-1.93,14.91-.48A6.48,6.48,0,0,1,72.74,40.06Z"/><path class="cls-4" d="M87.53,156.18a104.84,104.84,0,0,1-18,2.95l-.81.06c-.83.05-1.65.1-2.48.13a101.92,101.92,0,0,1-12.23-.2l-2.47-.22-.79-.09a108.29,108.29,0,0,1-14.61-2.63c0-4.49,0-18.69.28-34.08,0-1.85.07-3.72.11-5.59.43-20.28,1.27-40.87,2.77-42.94s5.76-4.48,9.9-6.74l.74-.41L52.66,65a49.75,49.75,0,0,0,4.39-2.57V63s2.23,2.95,4.74,2.73c2.29-.2,4-2.84,4.33-3.32a58.41,58.41,0,0,0,5.27,3l1.93,1,.73.39c4.58,2.43,9.52,5.16,11,7.2a2.48,2.48,0,0,1,.32.75c.87,3,1.42,12.82,1.75,24.75v.13c0,.48,0,1,0,1.45,0,.07,0,.13,0,.2.1,4.18.19,8.59.25,13,0,.35,0,.7,0,1.06v.52c0,.87,0,1.75,0,2.61l0,1.92C87.66,136.38,87.59,151.47,87.53,156.18Z"/><path class="cls-11" d="M87.16,101.06c-1.44-2.35-3-4.76-4.45-6.88v0c-.61-.89-1.2-1.73-1.77-2.5l0,0-.52-.71a.75.75,0,0,1-.07-.12h0a.41.41,0,0,1,.14-.43.4.4,0,0,1,.56.08c1.75,2.32,4,5.65,6.11,9v.13C87.14,100.09,87.15,100.57,87.16,101.06Z"/><path class="cls-4" d="M85.11,73.65s9,16.56,14.54,24.94c0,0,3.14-2.87,7.21-6.72,4.42-4.18,10.46-11.15,10.46-11.15l3.34,4S107.09,109.11,101,112.17,83.69,93.52,83.69,93.52Z"/><path class="cls-11" d="M46.86,138.89h0a.41.41,0,0,1-.39-.42c.47-13.37-6.46-17.7-6.53-17.74a.41.41,0,0,1,.42-.71A12.42,12.42,0,0,1,44,124c1.62,2.6,3.5,7.22,3.24,14.46A.39.39,0,0,1,46.86,138.89Z"/><path class="cls-11" d="M76.43,126.3a.42.42,0,0,1-.41-.38c-.22-2.82.71-4.87,1.88-7.47.35-.76.7-1.55,1.07-2.43,2.27-5.52,1.13-11.84,1.12-11.9a.41.41,0,1,1,.8-.15,24.39,24.39,0,0,1-1.17,12.36c-.37.9-.73,1.69-1.07,2.46-1.17,2.59-2,4.46-1.81,7.07a.42.42,0,0,1-.38.44Z"/><path class="cls-10" d="M52.66,65c.17,1.32.43,3,.71,5,.08.57.17,1.17.26,1.78.28,2,.57,4.19.82,6.39.07.59.13,1.18.19,1.78.22,2.18.39,4.34.45,6.36,0,.61,0,1.2,0,1.78a27.41,27.41,0,0,1-.27,4.16c-.12.77-.23,1.51-.32,2.24s-.15,1.21-.21,1.79c-.24,2.27-.35,4.39-.39,6.38,0,.61,0,1.2,0,1.79,0,2.26.14,4.37.33,6.38,0,.6.12,1.19.18,1.78.24,2.19.54,4.28.82,6.35l.24,1.77c.12.94.24,1.89.34,2.84s.17,2.19.2,3.5c0,.57,0,1.16,0,1.78,0,2-.05,4.12-.14,6.39,0,.59-.05,1.19-.08,1.79-.1,2.11-.23,4.27-.38,6.41,0,.6-.09,1.2-.13,1.79-.17,2.23-.35,4.39-.54,6.41,0,.61-.11,1.21-.16,1.79-.21,2.21-.42,4.18-.6,5.76a101.92,101.92,0,0,0,12.23.2c.1-1.67.36-4.37.62-7.55,0-.58.09-1.18.14-1.79.15-2,.29-4.18.38-6.36,0-.6,0-1.2.06-1.8.06-2.17.07-4.33,0-6.36,0-.62-.06-1.22-.11-1.8s-.1-1.19-.17-1.75a35,35,0,0,1-.27-4.63c0-.6,0-1.2.05-1.8.09-2.07.32-4.14.58-6.35.07-.58.14-1.18.22-1.79.23-2,.48-4,.67-6.32.06-.58.1-1.18.15-1.79.13-2,.22-4,.24-6.34,0-.59,0-1.19,0-1.8,0-2-.11-4.1-.27-6.38,0-.2,0-.41,0-.62,0-.39-.06-.8-.07-1.2a58.56,58.56,0,0,1,0-6.35c0-.6.07-1.2.11-1.8.17-2.14.41-4.26.69-6.28.08-.61.16-1.21.25-1.79.33-2.23.69-4.32,1-6.19l.32-1.77c.22-1.26.42-2.39.56-3.34a58.41,58.41,0,0,1-5.27-3c-.3.48-2,3.12-4.33,3.32-2.51.22-4.74-2.73-4.74-2.73v-.57C56.07,63.08,54.49,64,52.66,65Z"/><path class="cls-12" d="M53.37,69.93c.08.57.17,1.17.26,1.78a33,33,0,0,0,8.08-1,21.49,21.49,0,0,1,8.8-.21l.32-1.77a23.46,23.46,0,0,0-9.52.24A30.92,30.92,0,0,1,53.37,69.93Z"/><path class="cls-12" d="M54.45,78.1c.07.59.13,1.18.19,1.78a36.48,36.48,0,0,0,7.07-1,21.5,21.5,0,0,1,7.53-.39c.08-.61.16-1.21.25-1.79a23.4,23.4,0,0,0-8.18.44A34.25,34.25,0,0,1,54.45,78.1Z"/><path class="cls-12" d="M55.09,86.24c0,.61,0,1.2,0,1.78a37.37,37.37,0,0,0,6.6-1,21.67,21.67,0,0,1,6.73-.48c0-.6.07-1.2.11-1.8a23.28,23.28,0,0,0-7.24.54A36.46,36.46,0,0,1,55.09,86.24Z"/><path class="cls-12" d="M54.31,96.21a34.46,34.46,0,0,0,7.4-1,21.51,21.51,0,0,1,6.8-.47c0-.2,0-.41,0-.62,0-.39-.06-.8-.07-1.2a23.54,23.54,0,0,0-7.09.55,33.45,33.45,0,0,1-6.79,1C54.44,95,54.37,95.63,54.31,96.21Z"/><path class="cls-12" d="M53.92,104.38a34.65,34.65,0,0,0,7.79-1,21.56,21.56,0,0,1,7.08-.46c0-.59,0-1.19,0-1.8a23.54,23.54,0,0,0-7.47.52,32.48,32.48,0,0,1-7.39,1C53.91,103.2,53.91,103.79,53.92,104.38Z"/><path class="cls-12" d="M54.25,110.76c0,.6.12,1.19.18,1.78a35.86,35.86,0,0,0,7.28-1A21.78,21.78,0,0,1,68.4,111c.06-.58.1-1.18.15-1.79a23.91,23.91,0,0,0-7.24.54A33.64,33.64,0,0,1,54.25,110.76Z"/><path class="cls-12" d="M55.25,118.89l.24,1.77a38.49,38.49,0,0,0,6.22-1,21.69,21.69,0,0,1,5.8-.55c.07-.58.14-1.18.22-1.79a23.6,23.6,0,0,0-6.42.6A37.55,37.55,0,0,1,55.25,118.89Z"/><path class="cls-12" d="M56,127c0,.57,0,1.16,0,1.78a39.94,39.94,0,0,0,5.65-.94,21.69,21.69,0,0,1,5.17-.56c0-.6,0-1.2.05-1.8a24.63,24.63,0,0,0-5.62.62A41.43,41.43,0,0,1,56,127Z"/><path class="cls-12" d="M55.84,137a40.5,40.5,0,0,0,5.87-1,21.45,21.45,0,0,1,5.72-.55c0-.62-.06-1.22-.11-1.8a23.81,23.81,0,0,0-6,.6,38.39,38.39,0,0,1-5.39.91C55.9,135.76,55.87,136.36,55.84,137Z"/><path class="cls-12" d="M55.33,145.16a37.56,37.56,0,0,0,6.38-1,22,22,0,0,1,5.69-.55c0-.6,0-1.2.06-1.8a24.07,24.07,0,0,0-6.15.61,38,38,0,0,1-5.85.94C55.42,144,55.37,144.57,55.33,145.16Z"/><path class="cls-12" d="M54.63,153.36a37.37,37.37,0,0,0,7.08-1,21.68,21.68,0,0,1,5.17-.57c0-.58.09-1.18.14-1.79a23.71,23.71,0,0,0-5.71.61,35,35,0,0,1-6.52,1C54.74,152.18,54.68,152.78,54.63,153.36Z"/><path class="cls-11" d="M68.74,159.19l.81-.06c1.61-9.45.68-23.33.34-27.58A46.5,46.5,0,0,1,71.77,116c1.21-4.26.47-14.13-.13-22.06-.16-2.22-.32-4.32-.42-6-.3-5.58,1.72-15.91,2.83-21.09l-.73-.39c-1.11,5.13-3.21,15.69-2.89,21.52.09,1.74.25,3.84.42,6.07.59,7.87,1.32,17.66.16,21.78a47.13,47.13,0,0,0-1.91,15.85C69.44,135.87,70.37,149.83,68.74,159.19Z"/><path class="cls-11" d="M52.27,120.72a52,52,0,0,1,.3,14c-.11,1.41-.23,2.87-.31,4.48-.25,5.06-1.11,15.25-1.49,19.65l.79.09c.38-4.41,1.24-14.62,1.49-19.7.08-1.6.2-3,.31-4.46a52.11,52.11,0,0,0-.31-14.14c-.21-1.27-.42-2.56-.64-3.84-1.07-6.33-2.18-12.88-1.65-16,.12-.77.29-1.64.46-2.56.71-3.79,1.6-8.5,1.32-12.59S50.6,70.56,50,66.42l-.74.41c.67,4.32,2.26,14.88,2.53,18.81S51.14,94.29,50.44,98c-.18.93-.34,1.8-.47,2.58-.54,3.27.53,9.59,1.66,16.28C51.84,118.17,52.06,119.46,52.27,120.72Z"/><path class="cls-9" d="M36.64,80.31s-8.09,27-10.09,36.59-2.16,29.59-2.16,29.59-3.53,7.34-3.62,10.61c-.09,3.48,1.74,6.25,1.53,8.53s2.57,1,1.78-3.58,1.44-8.79,2.4-8.66-.79,5,.06,6.81,2-1.67,3.05-3.75,1.08-6.88.56-10.25,5.59-23.84,5.62-29.77L43.5,90.29S41,79.38,36.64,80.31Z"/><path class="cls-4" d="M44.49,89.63A67.48,67.48,0,0,1,42,98.08h0c-.1.31-.21.63-.32,1,0,0,0,0,0,0-.31.93-.64,1.9-1,2.91v0c-1.37,4.16-2.89,8.93-4.16,13.82-.44,1.68-.85,3.37-1.21,5.06-.47,2.15-.86,4.3-1.15,6.4-1,7.58-3,17.17-3,17.17-2.9,1.19-7.43-.38-7.43-.38s-.12-13.82.53-19.18a144.19,144.19,0,0,1,3.08-16.79,214.83,214.83,0,0,1,11.26-33.4l.32-.72h1.44C43.22,75.82,45.23,85,44.49,89.63Z"/><path class="cls-3" d="M23.51,141.33l.23,3.18s4.31,1.4,7.54.41l.86-2.83A24,24,0,0,1,23.51,141.33Z"/><path class="cls-11" d="M42,98.08h0a.59.59,0,0,1,0,.13l-.3.83s0,0,0,0c-.32.9-.64,1.88-1,2.91v0a159.23,159.23,0,0,0-4.19,16.43c0-.86,0-1.74,0-2.61-.44,1.68-.85,3.37-1.21,5.06a59.79,59.79,0,0,1,1.23-6.64A156.61,156.61,0,0,1,41.25,98a.4.4,0,0,1,.51-.23A.38.38,0,0,1,42,98.08Z"/><path class="cls-5" d="M186.7,169.41h19.1c-.06-1.32-.12-2.59-.19-3.79-.33-6.55-.61-11-.61-11l-15.54.69-1.29.06-2.28.1s.22,4,.56,9.82C186.53,166.58,186.61,168,186.7,169.41Z"/><path class="cls-6" d="M188.17,155.37l-2.28.1s.22,4,.56,9.82a138.86,138.86,0,0,0,19.16.33c-.33-6.55-.61-11-.61-11l-15.54.69Z"/><path class="cls-6" d="M190.25,169.41c-.35-6-.63-11.23-.79-14.1l-1.29.06c.16,2.86.44,8,.79,14Z"/><path class="cls-5" d="M181.09,169.41c.1-1.64.19-3.2.28-4.63.33-5.56.53-9.31.53-9.31l-2.48-.11-1.28-.06-15.35-.68s-.17,2.65-.4,6.87c-.12,2.25-.26,4.95-.4,7.92Z"/><path class="cls-6" d="M162.39,161.49a167.93,167.93,0,0,0,19,3.29c.33-5.56.53-9.31.53-9.31l-2.48-.11-1.28-.06-15.35-.68S162.62,157.27,162.39,161.49Z"/><path class="cls-6" d="M178.63,169.41c.35-6,.64-11.19.79-14l-1.28-.06c-.16,2.87-.45,8-.8,14.11Z"/><path class="cls-4" d="M207.77,157.6A91.33,91.33,0,0,1,196.1,160c-1.36.19-2.71.35-4.06.47-1.82.17-3.65.28-5.47.34a85.25,85.25,0,0,1-9-.2,91.31,91.31,0,0,1-17.49-3c-.06-5.44,0-24.93.43-43.74l.06-2.53c0-.17,0-.35,0-.53s0-.39,0-.58c0-.6,0-1.19,0-1.78,0-1.21.06-2.41.1-3.6l.06-2.11c0-.14,0-.29,0-.43,0-.46,0-.92,0-1.38h0c0-.14,0-.28,0-.42,0-.42,0-.84,0-1.25s0-.7,0-1c.45-12.68,1.11-22.69,2.06-24.1,1.6-2.39,7.06-5.57,11.45-8.15,1.57-.92,3.44-1.88,4.5-2.58,1.56,1.25,2.7,2.39,5,2.31,2.58-.09,3.22-1.65,4.21-3,.6.39,2.13,1.65,2.93,2.11l2.18,1.27c1.19.68,2.45,1.4,3.7,2.14,1.86,1.09,3.69,2.22,5.21,3.29a14,14,0,0,1,3.31,3c.86,1.29,1.41,9.63,1.77,20.61,0,.39,0,.78,0,1.17v.14c0,.4,0,.81,0,1.22,0,1.24.07,2.5.1,3.78,0,.27,0,.55,0,.82s0,.41,0,.61c0,.53,0,1.06,0,1.59v.33c0,1.4.06,2.83.09,4.27,0,.43,0,.85,0,1.27C207.92,130.09,207.85,151.76,207.77,157.6Z"/><path class="cls-11" d="M207.6,110.32l-6.17,6.25-5.74-5.82L190,116.57l-5.76-5.84-5.77,5.84-5.8-5.88-5.8,5.88-6.26-6.35c0-.6,0-1.19,0-1.78,0-1.21.06-2.41.1-3.6l6.12-6.21,5.8,5.89,5.8-5.89,5.77,5.85L190,98.63l5.74,5.82,5.74-5.82,6.06,6.15c0,1.4.06,2.83.09,4.27C207.58,109.48,207.59,109.9,207.6,110.32Z"/><path class="cls-11" d="M197,142.54h0c-8.25,0-15.3-3.79-19.75-6.94a45.2,45.2,0,0,1-7.77-6.87.4.4,0,0,1,.05-.56.41.41,0,0,1,.56,0,43.82,43.82,0,0,0,7.63,6.76c4.36,3.07,11.24,6.74,19.28,6.78a.4.4,0,0,1,.4.39A.41.41,0,0,1,197,142.54Z"/><path class="cls-11" d="M191.81,137.66c-7-1.38-13.24-6.76-13.53-7a.4.4,0,0,1,0-.56.41.41,0,0,1,.56,0c.07.07,7.39,6.39,14.85,7.08a.39.39,0,0,1,.36.43.4.4,0,0,1-.43.36C193,137.86,192.4,137.77,191.81,137.66Z"/><path class="cls-11" d="M177.74,76.6a.4.4,0,0,1-.39-.33.4.4,0,0,1,.32-.46c10.06-1.91,13.09-8.38,13.12-8.45a.39.39,0,0,1,.52-.19.39.39,0,0,1,.2.52c-.12.28-3.23,6.91-13.69,8.9Z"/><path class="cls-11" d="M165.47,94h0a.38.38,0,0,1-.06.13l-.46.74,0,0c-.5.81-1,1.7-1.56,2.64a0,0,0,0,0,0,0c-.85,1.48-1.72,3.08-2.58,4.71,0-.46,0-.92,0-1.38h0c0-.14,0-.28,0-.42,1.38-2.56,2.76-5,3.91-6.78a.4.4,0,0,1,.55-.12A.41.41,0,0,1,165.47,94Z"/><path class="cls-9" d="M216.16,79.3S229,75.17,232.83,66.73c1.1-2.45-8-27.27-8-27.27l-4.38.21s1.25,8.61,2,13.49c.62,4,1.62,8.8,2,10.38.08.34.12.53.12.53l-.65.12c-6,1.22-13.69,5.14-13.69,5.14Z"/><path class="cls-7" d="M227.8,66.45a.43.43,0,0,0,.58-.09.42.42,0,0,0-.1-.58,31.79,31.79,0,0,0-3.83-2.24c.08.34.12.53.12.53l-.65.12A33.88,33.88,0,0,1,227.8,66.45Z"/><path class="cls-4" d="M196.48,68s-3.9,9.13,6,14.21c6.86,3.52,22.48-5.67,22.48-5.67L219.4,64.67S205.11,70.57,196.48,68Z"/><path class="cls-9" d="M222.62,25.5c-.39.27-.31,1.95-.14,3.53l-.16,0c-.46-2.11-1.38-5.7-2.17-5-.51.45.18,3.54.65,5.39l-.29.09c-.59-2.2-1.87-6.42-2.71-5.6-.57.55.52,4.27,1.12,6.17l-.25.1c-.57-1.85-1.81-5.33-2.65-4.51s1.43,6,1.43,6h0l.57,2.07s-.68.29-1.75-.91-2.33-1.42-1.45.32c1,2,2.48,3.38,3.13,4.78s2.7,1.85,2.7,1.85l4.11-.2s.8-7-.74-10.26h0C223.76,27.38,223.3,25,222.62,25.5Z"/><path class="cls-5" d="M171.75,41.53c0,7,4.31,11.83,11.31,11.83S195,48.17,195,41.17a15.09,15.09,0,0,0-.92-5.33c0-.1-.07-.2-.11-.29s-.15-.36-.24-.53-.26-.54-.4-.8a10.35,10.35,0,0,0-9.48-5.36C175.4,28.86,171.75,34.52,171.75,41.53Z"/><path class="cls-7" d="M173.33,44.54s-2-2.59-3.4-.45.6,8.48,4.14,6.94Z"/><path class="cls-8" d="M173.3,49.07a.31.31,0,0,1-.29-.22,4.67,4.67,0,0,0-2.59-2.76.29.29,0,0,1-.18-.38.31.31,0,0,1,.39-.18,5.2,5.2,0,0,1,3,3.16.31.31,0,0,1-.21.37Z"/><path class="cls-8" d="M171.25,48.08a.32.32,0,0,1-.16,0,.31.31,0,0,1-.09-.42,2.82,2.82,0,0,1,1.13-.9.29.29,0,0,1,.39.15.29.29,0,0,1-.15.39,2,2,0,0,0-.86.69A.3.3,0,0,1,171.25,48.08Z"/><path class="cls-7" d="M193.37,44.54s1.95-2.59,3.4-.45-.6,8.48-4.14,6.94Z"/><path class="cls-8" d="M193.4,49.07a.31.31,0,0,0,.29-.22,4.67,4.67,0,0,1,2.59-2.76.3.3,0,0,0,.18-.38.31.31,0,0,0-.39-.18,5.2,5.2,0,0,0-3,3.16.31.31,0,0,0,.21.37Z"/><path class="cls-8" d="M195.44,48.08a.33.33,0,0,0,.17,0,.31.31,0,0,0,.09-.42,2.82,2.82,0,0,0-1.13-.9.3.3,0,0,0-.24.54,2,2,0,0,1,.86.69A.3.3,0,0,0,195.44,48.08Z"/><path class="cls-9" d="M188.14,56.4v6.3s-1.88,3.21-4.42,3.43-4.79-2.76-4.79-2.76V56.84Z"/><path class="cls-7" d="M188.14,56.4v2.8c-1.71,1.89-4.73,2.36-9.21,1.7V56.84Z"/><path class="cls-9" d="M194.78,40.22a61.37,61.37,0,0,1-.82,8,17.15,17.15,0,0,1-.39,1.7c-1.33,4.64-4.64,12.6-13.93,9.29-4.1-1.47-6-6-6.85-10.68a44.51,44.51,0,0,1-.61-8.62,6.58,6.58,0,0,1,3.33-5.6c5.48-3.1,11.26-1.94,15.07-.48A6.55,6.55,0,0,1,194.78,40.22Z"/><path class="cls-5" d="M179.37,45.36c0,.68-.35,1.22-.78,1.22s-.77-.54-.77-1.22.35-1.21.77-1.21S179.37,44.69,179.37,45.36Z"/><path class="cls-5" d="M188.49,45.34c0,.67-.34,1.22-.77,1.22S187,46,187,45.34s.34-1.22.77-1.22S188.49,44.67,188.49,45.34Z"/><path class="cls-5" d="M190.24,41.16a6.56,6.56,0,0,0-4.32-.16l.19,1a11.87,11.87,0,0,1,4.15.33A1.83,1.83,0,0,0,190.24,41.16Z"/><path class="cls-5" d="M176,41.16a6.56,6.56,0,0,1,4.32-.16l-.18,1a11.87,11.87,0,0,0-4.15.33A1.77,1.77,0,0,1,176,41.16Z"/><path class="cls-7" d="M183.45,50.47a3.25,3.25,0,0,0,1.09-.23.3.3,0,0,0,.16-.39.29.29,0,0,0-.39-.16,1.78,1.78,0,0,1-1.2.11.34.34,0,0,1-.15-.28c-.1-1,.18-4.55.18-4.58a.3.3,0,0,0-.27-.33.3.3,0,0,0-.32.28,43.05,43.05,0,0,0-.18,4.69.9.9,0,0,0,.43.73A1.21,1.21,0,0,0,183.45,50.47Z"/><path class="cls-10" d="M179.43,52c.5,1.72,1.92,3.45,3.87,3.47s3.36-1.75,3.85-3.47Z"/><path class="cls-7" d="M183.13,57.34a3.12,3.12,0,0,0,1.46-.41.31.31,0,0,0,.1-.41.3.3,0,0,0-.41-.1,2.66,2.66,0,0,1-1.15.32,2.42,2.42,0,0,1-1.09-.32.29.29,0,0,0-.41.1.29.29,0,0,0,.09.41A3.14,3.14,0,0,0,183.13,57.34Z"/><path class="cls-5" d="M194.46,44.6h-1.35c.15-1.37.36-3.76-.76-4.11-3.53-1.08,1.05-3.58-.55-4.83s-5.56-.71-8.32-.8a59.46,59.46,0,0,0-8.33.2c-1.09.25-.49,2-.09,3.45s-1.33,2.94-1.62,4.39a6,6,0,0,0,0,1.7h-1.13a47,47,0,0,1-.13-4.73,6.58,6.58,0,0,1,3.33-5.6c5.48-3.1,11.26-1.94,15.07-.48a6.55,6.55,0,0,1,4.2,6.43C194.72,41.56,194.62,43.09,194.46,44.6Z"/><path class="cls-10" d="M178.46,48.89a3.39,3.39,0,1,1,3.39-3.39A3.39,3.39,0,0,1,178.46,48.89Zm0-6.25a2.86,2.86,0,1,0,2.86,2.86A2.87,2.87,0,0,0,178.46,42.64Z"/><path class="cls-10" d="M187.72,48.89a3.39,3.39,0,1,1,3.39-3.39A3.39,3.39,0,0,1,187.72,48.89Zm0-6.25a2.86,2.86,0,1,0,2.86,2.86A2.87,2.87,0,0,0,187.72,42.64Z"/><path class="cls-10" d="M175.64,44.41a.23.23,0,0,1-.18-.08h0a4.21,4.21,0,0,0-3.58-1,.27.27,0,0,1-.12-.52A4.63,4.63,0,0,1,175.83,44a.27.27,0,0,1,0,.37A.24.24,0,0,1,175.64,44.41Z"/><path class="cls-10" d="M190.6,44.41a.25.25,0,0,1-.22-.12.26.26,0,0,1,.07-.36c.1-.07,2.5-1.62,4.54-1.28a.26.26,0,0,1-.08.52c-1.84-.3-4.15,1.18-4.17,1.2A.23.23,0,0,1,190.6,44.41Z"/><path class="cls-10" d="M184.52,44.74a2.16,2.16,0,0,0-1.46-.86,2,2,0,0,0-1.39.86l-.44-.29a2.45,2.45,0,0,1,1.83-1.09A2.67,2.67,0,0,1,185,44.43Z"/><path class="cls-9" d="M164.35,93.52a96.69,96.69,0,0,1-7.77,12.39,33,33,0,0,1-3.81,4.25c-2.07,1.87-4.08,2.84-5.72,2-6.09-3.06-19.66-27.49-19.66-27.49l3.34-4s6,7,10.46,11.15c4.07,3.85,7.2,6.72,7.2,6.72.57-.85,1.17-1.79,1.79-2.79s1.36-2.17,2.06-3.32C157.32,84.12,163,74.1,163,74.1Z"/><path class="cls-7" d="M156.58,105.91a33,33,0,0,1-3.81,4.25L150.18,95.8c.67-1.06,1.36-2.17,2.06-3.32Z"/><path class="cls-4" d="M163,74.1l-12.2,19.19,4.09,16.87L165,93.72S166.18,82.48,163,74.1Z"/><path class="cls-4" d="M147.63,169.41c-.87-4.83-1.73-10.27-2.51-15.56-.17-1.17-.34-2.33-.51-3.47-.62-4.38-1.18-8.52-1.63-12l-.47-3.58c-.43-3.43-.69-5.56-.69-5.56l-19.26.73-19.32-.73s-.5,4.21-1.3,10.32c-.14,1.12-.3,2.29-.46,3.51-.43,3.21-.92,6.75-1.45,10.38l0,.16-.51,3.4a.09.09,0,0,1,0,0h0c-.41,2.75-.84,5.5-1.29,8.14-.18,1.09-.36,2.16-.54,3.2l-.18,1Z"/><path class="cls-11" d="M107.68,135.06a1.82,1.82,0,1,1-1.82-1.81A1.82,1.82,0,0,1,107.68,135.06Z"/><path class="cls-11" d="M112.18,142.1a1.82,1.82,0,1,1-1.81-1.82A1.81,1.81,0,0,1,112.18,142.1Z"/><path class="cls-11" d="M121.05,138.47a1.82,1.82,0,1,1-1.82-1.82A1.82,1.82,0,0,1,121.05,138.47Z"/><path class="cls-11" d="M107.06,149.57a1.82,1.82,0,1,1-1.82-1.82A1.82,1.82,0,0,1,107.06,149.57Z"/><path class="cls-11" d="M118.13,148.79a1.82,1.82,0,1,1-1.81-1.82A1.82,1.82,0,0,1,118.13,148.79Z"/><path class="cls-11" d="M103.12,141.31a1.81,1.81,0,0,1-1.64,1.8c.16-1.22.32-2.39.46-3.51A1.82,1.82,0,0,1,103.12,141.31Z"/><path class="cls-11" d="M136.18,159.46a1.82,1.82,0,1,1-1.81-1.82A1.81,1.81,0,0,1,136.18,159.46Z"/><path class="cls-11" d="M135.33,149.57a1.82,1.82,0,1,1-1.82-1.82A1.82,1.82,0,0,1,135.33,149.57Z"/><path class="cls-11" d="M145.12,153.85a1.89,1.89,0,0,1-.72.14,1.82,1.82,0,0,1,0-3.63l.21,0C144.78,151.52,145,152.68,145.12,153.85Z"/><path class="cls-11" d="M137.14,166.71a1.82,1.82,0,1,1-1.81-1.82A1.81,1.81,0,0,1,137.14,166.71Z"/><path class="cls-11" d="M144.91,163.81a1.82,1.82,0,1,1-1.82-1.82A1.82,1.82,0,0,1,144.91,163.81Z"/><path class="cls-11" d="M128.75,169.41a1.82,1.82,0,0,0-1.5-.79,1.78,1.78,0,0,0-1.49.79Z"/><path class="cls-11" d="M105.86,161a1.82,1.82,0,1,1-1.81-1.82A1.81,1.81,0,0,1,105.86,161Z"/><path class="cls-11" d="M101.07,155.3a1.82,1.82,0,0,1-1.58,1.8.09.09,0,0,0,0,0l.51-3.4A1.83,1.83,0,0,1,101.07,155.3Z"/><path class="cls-11" d="M99,166.7a1.81,1.81,0,0,1-1.29,1.74c.18-1,.36-2.11.54-3.2A1.79,1.79,0,0,1,99,166.7Z"/><path class="cls-11" d="M110.37,167.47a1.82,1.82,0,1,1-1.82-1.81A1.82,1.82,0,0,1,110.37,167.47Z"/><path class="cls-11" d="M120,166.05a1.82,1.82,0,1,1-1.82-1.81A1.82,1.82,0,0,1,120,166.05Z"/><path class="cls-11" d="M113.11,157.12a1.82,1.82,0,1,1-1.81-1.81A1.81,1.81,0,0,1,113.11,157.12Z"/><path class="cls-11" d="M122.86,155.31a1.82,1.82,0,1,1-1.81-1.82A1.81,1.81,0,0,1,122.86,155.31Z"/><path class="cls-11" d="M127.25,145.73a1.82,1.82,0,1,1-1.81-1.82A1.81,1.81,0,0,1,127.25,145.73Z"/><path class="cls-11" d="M143,138.42a1.72,1.72,0,0,1-.39,0,1.81,1.81,0,0,1-.08-3.62Z"/><path class="cls-11" d="M133.51,138.47a1.82,1.82,0,1,1-1.82-1.82A1.81,1.81,0,0,1,133.51,138.47Z"/><path class="cls-11" d="M140.16,144.94a1.82,1.82,0,1,1-1.82-1.82A1.81,1.81,0,0,1,140.16,144.94Z"/><path class="cls-11" d="M129.07,161a1.82,1.82,0,1,1-1.82-1.82A1.82,1.82,0,0,1,129.07,161Z"/><path class="cls-3" d="M143,129.75c-10.17,6.64-28.83,6.12-40.55,0,1.12-7,2.59-14,2.28-23.25,0-1-.08-2-.13-3s-.1-1.74-.16-2.59c-1-15.45-3.64-28.08-2.35-29.71a12.38,12.38,0,0,1,2.67-2.28c.46-.31.95-.63,1.46-.94,1.22-.74,2.57-1.49,3.93-2.22,3.22-1.72,6.5-3.32,8.14-4.41a10.34,10.34,0,0,0,4.31,1.09h.24a10.38,10.38,0,0,0,4.32-1.09c1.52,1,4.39,2.43,7.31,4a62.83,62.83,0,0,1,6,3.49A12.26,12.26,0,0,1,143.07,71c.64.8.37,4.35-.18,9.61s-1.36,12-1.85,19.51c-.14,2.08-.25,4.22-.32,6.38C140.4,115.79,141.88,122.78,143,129.75Z"/><path class="cls-4" d="M136.78,122h0c-8.18,0-15.17-3.76-19.59-6.88a44.89,44.89,0,0,1-7.7-6.82.4.4,0,0,1,.05-.56.39.39,0,0,1,.55,0,44,44,0,0,0,7.57,6.7c4.33,3,11.15,6.69,19.12,6.72a.39.39,0,0,1,.39.4A.39.39,0,0,1,136.78,122Z"/><path class="cls-4" d="M131.36,117.27c-7-1.37-13.13-6.7-13.41-7a.38.38,0,0,1,0-.55.4.4,0,0,1,.56,0c.07.06,7.33,6.34,14.72,7a.4.4,0,0,1,.36.43.39.39,0,0,1-.43.36A17.36,17.36,0,0,1,131.36,117.27Z"/><path class="cls-4" d="M121.05,81.22a.39.39,0,0,1-.08-.78c10-1.89,13-8.31,13-8.37a.39.39,0,0,1,.52-.2.39.39,0,0,1,.19.52c-.12.28-3.2,6.86-13.58,8.83Z"/><path class="cls-9" d="M134.47,65.29c-2,4.51-6.85,9.19-13.18,8.1a15.23,15.23,0,0,1-11.14-7.66c3.22-1.72,6.5-3.32,8.14-4.41a10.34,10.34,0,0,0,4.31,1.09h.24a10.38,10.38,0,0,0,4.32-1.09C128.68,62.33,131.55,63.75,134.47,65.29Z"/><path class="cls-10" d="M129.18,61.65a.31.31,0,0,0-.32.31c0,.26-.11,6.23-5.47,6.69-5,.43-7-4.32-7.66-6.3a.28.28,0,0,0-.27-.19h-.06a.28.28,0,0,0-.26.37c.68,2,2.84,7,7.91,6.77l.4,0c5.93-.52,6-7.24,6-7.31A.32.32,0,0,0,129.18,61.65Z"/><path class="cls-5" d="M133,29.92s4.79,7.42,4.27,15.15.71,16.65-6.21,16.25-19.25,2.78-23.17-3.24S133,29.92,133,29.92Z"/><path class="cls-6" d="M134.74,43.56s1.24,11.2-4.07,14.29-9.17-.36-9.17-.36S132.71,41.87,134.74,43.56Z"/><path class="cls-7" d="M112.66,43.51s-1.91-2.55-3.33-.44.59,8.32,4.06,6.8Z"/><path class="cls-8" d="M112.63,48a.31.31,0,0,1-.28-.22,4.57,4.57,0,0,0-2.54-2.7.29.29,0,0,1-.17-.38.28.28,0,0,1,.37-.17,5.07,5.07,0,0,1,2.91,3.1.3.3,0,0,1-.21.36Z"/><path class="cls-8" d="M110.63,47a.29.29,0,0,1-.25-.45,2.79,2.79,0,0,1,1.1-.89.3.3,0,0,1,.39.15.29.29,0,0,1-.15.39,1.94,1.94,0,0,0-.84.67A.3.3,0,0,1,110.63,47Z"/><path class="cls-7" d="M132.33,43.51s1.91-2.55,3.33-.44-.59,8.32-4.06,6.8Z"/><path class="cls-8" d="M132.35,48a.31.31,0,0,0,.29-.22,4.57,4.57,0,0,1,2.54-2.7.3.3,0,0,0,.17-.38.28.28,0,0,0-.37-.17,5.07,5.07,0,0,0-2.91,3.1.3.3,0,0,0,.2.36Z"/><path class="cls-8" d="M134.36,47a.29.29,0,0,0,.25-.45,2.79,2.79,0,0,0-1.1-.89.3.3,0,0,0-.39.15.29.29,0,0,0,.15.39,2,2,0,0,1,.84.67A.29.29,0,0,0,134.36,47Z"/><path class="cls-9" d="M127.19,55.14v6.18s-1.84,3.15-4.33,3.37S118.15,62,118.15,62v-6.4Z"/><path class="cls-7" d="M127.19,55.14v2.74c-1.67,1.86-4.64,2.52-9,1.87V55.58Z"/><path class="cls-9" d="M133.71,39.27a59.25,59.25,0,0,1-.8,7.81c-.12.59-.25,1.16-.39,1.66-1.3,4.56-4.55,12.37-13.66,9.12-4-1.44-5.89-5.92-6.72-10.48a43.65,43.65,0,0,1-.61-8.46,6.46,6.46,0,0,1,3.27-5.49c5.38-3.05,11-1.91,14.79-.47A6.43,6.43,0,0,1,133.71,39.27Z"/><path class="cls-5" d="M118.48,43.87c0,.66-.34,1.2-.76,1.2s-.76-.54-.76-1.2.34-1.19.76-1.19S118.48,43.21,118.48,43.87Z"/><path class="cls-5" d="M127.86,43.87c0,.66-.34,1.2-.76,1.2s-.76-.54-.76-1.2.34-1.19.76-1.19S127.86,43.21,127.86,43.87Z"/><path class="cls-5" d="M116.22,40.31a12.89,12.89,0,0,1,3.25-.48.56.56,0,0,1,.56.66h0a.56.56,0,0,1-.58.46,14.28,14.28,0,0,0-4.45.54.84.84,0,0,1,.26-.6A2,2,0,0,1,116.22,40.31Z"/><path class="cls-5" d="M128.49,40.34a12.81,12.81,0,0,0-3.25-.49.56.56,0,0,0-.56.66h0a.55.55,0,0,0,.58.46,14.3,14.3,0,0,1,4.45.55.87.87,0,0,0-.26-.61A1.91,1.91,0,0,0,128.49,40.34Z"/><path class="cls-7" d="M122.6,49.32a1.26,1.26,0,0,1-.64-.15.89.89,0,0,1-.43-.72,44.08,44.08,0,0,1,.18-4.6.29.29,0,1,1,.58,0,44.83,44.83,0,0,0-.17,4.5.33.33,0,0,0,.14.28,1.79,1.79,0,0,0,1.18-.12.3.3,0,0,1,.22.55A3.23,3.23,0,0,1,122.6,49.32Z"/><path class="cls-10" d="M118.87,51.18a3.5,3.5,0,0,0,3.44,3.17c2.49,0,3.19-1.88,3.43-3.17Z"/><path class="cls-7" d="M122.28,56.06a3.05,3.05,0,0,1-1.38-.4.29.29,0,1,1,.31-.5h0a2.4,2.4,0,0,0,1.07.31,2.64,2.64,0,0,0,1.13-.31.29.29,0,0,1,.4.1.29.29,0,0,1-.1.4A3,3,0,0,1,122.28,56.06Z"/><path class="cls-5" d="M134.89,38.79a.94.94,0,0,1-.7.54,20.88,20.88,0,0,1-.11,2.17c-.36,4.25-1.43,5-1.68,3.94a48.17,48.17,0,0,1-.07-6,14.22,14.22,0,0,1-1.55-.2l-1-4.12-.34,4.07c-1.48.51-4.93-.31-4.93-.31l-1.15-4.06-.72,3.91a8.21,8.21,0,0,1-5,.36L117,34.88l-1.47,4.22s-4.73,1.69-4.78,0a31.81,31.81,0,0,1,1.3-5.92,9,9,0,0,1,4.29-5.45,15.67,15.67,0,0,1,14.19-.2C135.08,30.22,134.89,38.79,134.89,38.79Z"/><path class="cls-5" d="M113.39,30.23a28,28,0,0,0-5.17,12.89c-1.28,8.26-3,14.37,1.93,17.1,5.39,3,4.92-3.11,4.85-4.75s-4.67-6.15-1.61-18.82C114.38,32.56,113.39,30.23,113.39,30.23Z"/><path class="cls-6" d="M112.48,47.31h0c0,.06,0,.39,0,.9,0,.32,0,.71.06,1.15.19,2.78.73,7.59,2.32,9.26a5.29,5.29,0,0,0,3.26,1.12V57.56a8.66,8.66,0,0,1-3.58-3.32,20.79,20.79,0,0,1-2-6.11Z"/><path class="cls-10" d="M133.78,50a.69.69,0,1,1-.69-.69A.69.69,0,0,1,133.78,50Z"/><path class="cls-3" d="M147.8,101.84c-2,5.58-10.68,5.17-20.62,2.12h0l-.09,0-1.37-.44-.57-.19c-1.07-.36-2.15-.74-3.23-1.16a107,107,0,0,1-10.5-4.65l0-.06,1-2.64.34-.9s18.43,2,27.69.08l.47-.11c0-.2,0-.41-.11-.61-4.91-16.71.46-19.91,2.26-22.25C143.07,71,151.48,91.3,147.8,101.84Z"/><path class="cls-4" d="M144.8,96.66a.38.38,0,0,1-.17,0,.4.4,0,0,1-.36-.22c-.7-1.44-3.08-2.29-3.82-2.52l.47-.11c0-.2-.08-.41-.11-.61.93.31,3.36,1.25,4.17,2.9A.4.4,0,0,1,144.8,96.66Z"/><path class="cls-4" d="M119,96c-3.76,0-6.82-.21-7.08-.23a.4.4,0,0,1,0-.79c.14,0,14,1,19.42-1.22a.39.39,0,0,1,.29.73C128.65,95.67,123.35,96,119,96Z"/><path class="cls-4" d="M125.68,103.48h0c3.16-.87,6-1.72,7.68-2.25a9.31,9.31,0,0,0,5.06-5,.39.39,0,0,1,.52-.2.38.38,0,0,1,.2.51A10.14,10.14,0,0,1,133.6,102c-1.2.39-3,.94-5.16,1.54a4.72,4.72,0,0,1-2.76,0Z"/><path class="cls-3" d="M134.18,100.78c-28.48,9.59-37.24,3.31-37.24,3.31-1.91-17.33,5.15-32.92,5.15-32.92a78.69,78.69,0,0,1,4.45,9.44l.62,13.29,0,.37,0,.18-.12.91h0l.18,0c8.62,1.82,24.37-.21,24.37-.21Z"/><path class="cls-4" d="M107.15,95.41a28.6,28.6,0,0,0-4.29,4.48.4.4,0,0,1-.56.08.4.4,0,0,1-.07-.55h0a28.67,28.67,0,0,1,4.86-5l-.12.91h0Z"/><path class="cls-9" d="M131.52,95.2s3.16-7.16,7.95-6.52l1.45,5.17c-2.63,1.12-3,5.62-6.74,6.93Z"/><path class="cls-9" d="M112.76,93.88a11.42,11.42,0,0,0-7.23-6C100.29,86.5,97,89,96.6,89.9s2,0,2,0a4.54,4.54,0,0,0-2.39,1.85c-.87,1.43,2.12-.11,2.12-.11s-2.14.94-2.41,1.81,2.55-.6,3.08-.57c0,0-2.52,1-2.51,1.9s2.9-.57,5-.45a33.16,33.16,0,0,1,5.45,1,36.72,36.72,0,0,0,5,.65Z"/><path class="cls-4" d="M163.36,21.22a3.52,3.52,0,1,1,3.52-3.52A3.52,3.52,0,0,1,163.36,21.22Zm0-5.93a2.42,2.42,0,1,0,2.42,2.41A2.41,2.41,0,0,0,163.36,15.29Z"/><path class="cls-3" d="M194.05,15.24a3.52,3.52,0,1,1,3.52-3.51A3.52,3.52,0,0,1,194.05,15.24Zm0-5.93a2.42,2.42,0,1,0,2.42,2.42A2.42,2.42,0,0,0,194.05,9.31Z"/><path class="cls-4" d="M198.4,26.67a.54.54,0,0,1-.55-.55V23.69a.54.54,0,0,1,.55-.55.55.55,0,0,1,.55.55v2.43A.55.55,0,0,1,198.4,26.67Z"/><path class="cls-4" d="M198.4,30.93a.54.54,0,0,1-.55-.55V28a.54.54,0,0,1,.55-.55A.55.55,0,0,1,199,28v2.43A.55.55,0,0,1,198.4,30.93Z"/><path class="cls-4" d="M201.81,27.59h-2.18a.56.56,0,0,1,0-1.11h2.18a.56.56,0,0,1,0,1.11Z"/><path class="cls-4" d="M197.17,27.59H195a.56.56,0,0,1,0-1.11h2.19a.56.56,0,0,1,0,1.11Z"/><path class="cls-2" d="M179.82,11.93a.54.54,0,0,1-.55-.55V9a.54.54,0,0,1,.55-.55.55.55,0,0,1,.55.55v2.43A.55.55,0,0,1,179.82,11.93Z"/><path class="cls-2" d="M179.82,16.19a.54.54,0,0,1-.55-.55V13.21a.54.54,0,0,1,.55-.55.55.55,0,0,1,.55.55v2.43A.55.55,0,0,1,179.82,16.19Z"/><path class="cls-2" d="M183.23,12.85h-2.18a.56.56,0,0,1,0-1.11h2.18a.56.56,0,1,1,0,1.11Z"/><path class="cls-2" d="M178.59,12.85H176.4a.56.56,0,0,1,0-1.11h2.19a.56.56,0,0,1,0,1.11Z"/><path class="cls-4" d="M37.64,8.78a3.52,3.52,0,1,1,3.52,3.52A3.53,3.53,0,0,1,37.64,8.78Zm1.1,0a2.42,2.42,0,1,0,2.42-2.42A2.42,2.42,0,0,0,38.74,8.78Z"/><path class="cls-3" d="M23.51,22.18A3.52,3.52,0,1,1,27,25.7,3.52,3.52,0,0,1,23.51,22.18Zm1.11,0A2.42,2.42,0,1,0,27,19.77,2.41,2.41,0,0,0,24.62,22.18Z"/><path class="cls-4" d="M16.2,27.12a.55.55,0,0,0,.55-.55V24.14a.55.55,0,0,0-.55-.56.56.56,0,0,0-.55.56v2.43A.55.55,0,0,0,16.2,27.12Z"/><path class="cls-4" d="M16.2,31.38a.55.55,0,0,0,.55-.55V28.39a.55.55,0,0,0-.55-.55.55.55,0,0,0-.55.55v2.44A.55.55,0,0,0,16.2,31.38Z"/><path class="cls-4" d="M12.79,28H15a.54.54,0,0,0,.55-.55.55.55,0,0,0-.55-.55H12.79a.56.56,0,0,0-.56.55A.55.55,0,0,0,12.79,28Z"/><path class="cls-4" d="M17.43,28h2.19a.55.55,0,0,0,.55-.55.55.55,0,0,0-.55-.55H17.43a.55.55,0,0,0-.55.55A.55.55,0,0,0,17.43,28Z"/><path class="cls-2" d="M28.92,8.42a.55.55,0,0,0,.55-.55V5.43a.56.56,0,0,0-1.11,0V7.87A.56.56,0,0,0,28.92,8.42Z"/><path class="cls-2" d="M28.92,12.68a.56.56,0,0,0,.55-.56V9.69a.56.56,0,0,0-1.11,0v2.43A.56.56,0,0,0,28.92,12.68Z"/><path class="cls-2" d="M25.5,9.33h2.19a.55.55,0,0,0,.55-.55.55.55,0,0,0-.55-.55H25.5a.55.55,0,0,0-.55.55A.55.55,0,0,0,25.5,9.33Z"/><path class="cls-2" d="M30.14,9.33h2.19a.55.55,0,0,0,.55-.55.54.54,0,0,0-.55-.55H30.14a.55.55,0,0,0-.55.55A.55.55,0,0,0,30.14,9.33Z"/><path class="cls-1" d="M134.1,9a.32.32,0,0,1-.19,0c-.67-.28-1.06-.41-1.06-.41a.39.39,0,0,1,.24-.75s.43.14,1.13.44a.39.39,0,0,1-.12.75Z"/><path class="cls-1" d="M154.07,30c.27.71.52,1.45.74,2.18a.41.41,0,0,0,.42.28l.07,0a.38.38,0,0,0,.26-.49c-.23-.75-.48-1.5-.76-2.22a.38.38,0,0,0-.5-.23A.4.4,0,0,0,154.07,30Z"/><path class="cls-1" d="M155.42,34.44c.18.74.35,1.5.49,2.25a.38.38,0,0,0,.42.32h0a.4.4,0,0,0,.32-.46c-.15-.77-.31-1.54-.5-2.29a.39.39,0,1,0-.76.18Z"/><path class="cls-1" d="M157.08,46.27a.4.4,0,0,0,.35-.38c0-.79,0-1.57,0-2.34a.39.39,0,0,0-.4-.38.38.38,0,0,0-.38.4c0,.76,0,1.53,0,2.31a.41.41,0,0,0,.39.4Z"/><path class="cls-1" d="M156.6,38.53a.41.41,0,0,0-.34.44c.05.35.09.71.13,1.06s.08.82.11,1.23a.39.39,0,0,0,.42.36h0a.38.38,0,0,0,.35-.42c0-.41-.07-.84-.11-1.25s-.08-.72-.13-1.08a.4.4,0,0,0-.43-.34Z"/><path class="cls-1" d="M153.2,27.92a.39.39,0,0,0,.4.22.2.2,0,0,0,.11,0,.38.38,0,0,0,.2-.51c-.32-.72-.66-1.43-1-2.12a.4.4,0,0,0-.53-.16.39.39,0,0,0-.17.53C152.55,26.52,152.88,27.22,153.2,27.92Z"/><path class="cls-1" d="M136,10c.68.34,1.35.71,2,1.11a.42.42,0,0,0,.24.05.4.4,0,0,0,.3-.19.39.39,0,0,0-.14-.54c-.68-.4-1.37-.78-2.06-1.13a.39.39,0,1,0-.36.7Z"/><path class="cls-1" d="M141.83,13.66a.36.36,0,0,0,.28.08.39.39,0,0,0,.2-.7c-.62-.47-1.27-.93-1.91-1.37a.4.4,0,0,0-.55.11.39.39,0,0,0,.11.54C140.59,12.75,141.22,13.2,141.83,13.66Z"/><path class="cls-1" d="M148.41,20.08a.37.37,0,0,0,.35.14.32.32,0,0,0,.2-.08.4.4,0,0,0,.07-.55c-.49-.61-1-1.21-1.53-1.79a.39.39,0,1,0-.58.53C147.43,18.89,147.94,19.48,148.41,20.08Z"/><path class="cls-1" d="M145.32,16.67a.38.38,0,0,0,.31.11.37.37,0,0,0,.24-.12.39.39,0,0,0,0-.55c-.56-.54-1.14-1.08-1.74-1.59a.39.39,0,0,0-.55,0,.41.41,0,0,0,0,.56C144.2,15.62,144.77,16.14,145.32,16.67Z"/><path class="cls-1" d="M151.06,23.84a.37.37,0,0,0,.37.19.43.43,0,0,0,.16-.05.39.39,0,0,0,.13-.54c-.4-.67-.84-1.33-1.28-2a.4.4,0,0,0-.55-.1.39.39,0,0,0-.09.55C150.23,22.55,150.66,23.19,151.06,23.84Z"/><polygon class="cls-3" points="134.1 6.35 135.81 0 114.8 0.18 134.1 6.35"/><polygon class="cls-4" points="114.8 0.18 133.08 7.88 133.13 7.9 133.91 9.21 134.1 6.35 114.8 0.18"/><polygon class="cls-4" points="133.91 9.21 132.21 8.94 133.13 7.9 133.91 9.21"/><polygon class="cls-3" points="130.83 6.93 133.13 7.9 128.39 13.24 114.8 0.18 130.83 6.93"/><rect class="cls-2" x="15.25" y="169.41" width="215.44" height="8.38" rx="4"/><path class="cls-4" d="M230.7,173.41v.19H15.25v-.19a4,4,0,0,1,4-4H226.7A4,4,0,0,1,230.7,173.41Z"/><rect class="cls-5" x="86.74" y="117.1" width="70.81" height="39.73" rx="5.38"/><rect class="cls-6" x="116.66" y="156.79" width="10.97" height="12.5"/><circle class="cls-13" cx="122.02" cy="137.45" r="5.44"/><path class="cls-5" d="M110.82,164.85h22.28a3,3,0,0,1,3,3v1.43a0,0,0,0,1,0,0H107.82a0,0,0,0,1,0,0v-1.43A3,3,0,0,1,110.82,164.85Z"/></g></g></svg>